<svg width="24" height="24" viewBox="0 0 24 24" fill="none" xmlns="http://www.w3.org/2000/svg">
<mask id="mask0_2181_90367" style="mask-type:alpha" maskUnits="userSpaceOnUse" x="0" y="0" width="24" height="24">
<rect width="24" height="24" fill="#D9D9D9"/>
</mask>
<g mask="url(#mask0_2181_90367)">
<path d="M11.25 12.751H6.25C6.0375 12.751 5.85942 12.6791 5.71575 12.5352C5.57192 12.3914 5.5 12.2132 5.5 12.0007C5.5 11.7881 5.57192 11.61 5.71575 11.4665C5.85942 11.3228 6.0375 11.251 6.25 11.251H11.25V6.25098C11.25 6.03848 11.3219 5.86039 11.4658 5.71673C11.6096 5.57289 11.7878 5.50098 12.0003 5.50098C12.2129 5.50098 12.391 5.57289 12.5345 5.71673C12.6782 5.86039 12.75 6.03848 12.75 6.25098V11.251H17.75C17.9625 11.251 18.1406 11.3229 18.2843 11.4667C18.4281 11.6106 18.5 11.7887 18.5 12.0012C18.5 12.2139 18.4281 12.392 18.2843 12.5355C18.1406 12.6791 17.9625 12.751 17.75 12.751H12.75V17.751C12.75 17.9635 12.6781 18.1416 12.5342 18.2852C12.3904 18.4291 12.2122 18.501 11.9997 18.501C11.7871 18.501 11.609 18.4291 11.4655 18.2852C11.3218 18.1416 11.25 17.9635 11.25 17.751V12.751Z" fill="#005F8E"/>
</g>
</svg>
