<svg width="24" height="24" viewBox="0 0 24 24" fill="none" xmlns="http://www.w3.org/2000/svg">
<mask id="mask0_4010_74556" style="mask-type:alpha" maskUnits="userSpaceOnUse" x="0" y="0" width="24" height="24">
<rect width="24" height="24" fill="#D9D9D9"/>
</mask>
<g mask="url(#mask0_4010_74556)">
<path d="M16.627 12.749H5.25C5.03717 12.749 4.859 12.6772 4.7155 12.5335C4.57183 12.39 4.5 12.2119 4.5 11.999C4.5 11.7862 4.57183 11.608 4.7155 11.4645C4.859 11.3209 5.03717 11.249 5.25 11.249H16.627L11.4577 6.07978C11.3091 5.93111 11.2357 5.75711 11.2375 5.55778C11.2395 5.35845 11.318 5.1812 11.473 5.02603C11.6282 4.8812 11.8038 4.8062 12 4.80103C12.1962 4.79586 12.3718 4.87086 12.527 5.02603L18.8673 11.3663C18.9609 11.4599 19.0269 11.5587 19.0652 11.6625C19.1037 11.7664 19.123 11.8785 19.123 11.999C19.123 12.1195 19.1037 12.2317 19.0652 12.3355C19.0269 12.4394 18.9609 12.5381 18.8673 12.6318L12.527 18.972C12.3885 19.1105 12.217 19.1814 12.0125 19.1845C11.808 19.1877 11.6282 19.1169 11.473 18.972C11.318 18.8169 11.2405 18.6387 11.2405 18.4375C11.2405 18.2362 11.318 18.0579 11.473 17.9028L16.627 12.749Z" fill="#005F8E"/>
</g>
</svg>
