<svg width="24" height="24" viewBox="0 0 24 24" fill="none" xmlns="http://www.w3.org/2000/svg">
<mask id="mask0_2181_89937" style="mask-type:alpha" maskUnits="userSpaceOnUse" x="0" y="0" width="24" height="24">
<rect width="24" height="24" fill="#D9D9D9"/>
</mask>
<g mask="url(#mask0_2181_89937)">
<path d="M12.9467 12.0005L8.8735 7.9275C8.73517 7.789 8.66433 7.61492 8.661 7.40525C8.65783 7.19575 8.72867 7.0185 8.8735 6.8735C9.0185 6.72867 9.19417 6.65625 9.4005 6.65625C9.60683 6.65625 9.7825 6.72867 9.9275 6.8735L14.4217 11.3678C14.5152 11.4614 14.5813 11.5602 14.6198 11.664C14.6583 11.7678 14.6775 11.88 14.6775 12.0005C14.6775 12.121 14.6583 12.2332 14.6198 12.337C14.5813 12.4408 14.5152 12.5396 14.4217 12.6333L9.9275 17.1275C9.789 17.2658 9.61492 17.3367 9.40525 17.34C9.19575 17.3432 9.0185 17.2723 8.8735 17.1275C8.72867 16.9825 8.65625 16.8068 8.65625 16.6005C8.65625 16.3942 8.72867 16.2185 8.8735 16.0735L12.9467 12.0005Z" fill="#005F8E"/>
</g>
</svg>
