<svg width="24" height="24" viewBox="0 0 24 24" fill="none" xmlns="http://www.w3.org/2000/svg">
<mask id="mask0_2198_94099" style="mask-type:alpha" maskUnits="userSpaceOnUse" x="0" y="0" width="24" height="24">
<rect width="24" height="24" fill="#D9D9D9"/>
</mask>
<g mask="url(#mask0_2198_94099)">
<path d="M12.0005 10.453L7.9275 14.5108C7.789 14.6493 7.6175 14.7227 7.413 14.731C7.2085 14.7394 7.02867 14.6659 6.8735 14.5108C6.72867 14.3659 6.65625 14.1903 6.65625 13.9838C6.65625 13.7774 6.72867 13.6019 6.8735 13.457L11.3677 8.96278C11.4614 8.86911 11.5602 8.80311 11.664 8.76478C11.7678 8.72628 11.88 8.70703 12.0005 8.70703C12.121 8.70703 12.2332 8.72628 12.337 8.76478C12.4408 8.80311 12.5396 8.86911 12.6332 8.96278L17.1275 13.457C17.2658 13.5955 17.3392 13.7669 17.3475 13.9713C17.3558 14.1758 17.2825 14.3556 17.1275 14.5108C16.9825 14.6556 16.8068 14.728 16.6005 14.728C16.3942 14.728 16.2185 14.6556 16.0735 14.5108L12.0005 10.453Z" fill="#005F8E"/>
</g>
</svg>
