<svg width="24" height="24" viewBox="0 0 24 24" fill="none" xmlns="http://www.w3.org/2000/svg">
<mask id="mask0_4404_232854" style="mask-type:alpha" maskUnits="userSpaceOnUse" x="0" y="0" width="24" height="24">
<rect width="24" height="24" fill="#D9D9D9"/>
</mask>
<g mask="url(#mask0_4404_232854)">
<path d="M11.25 4.4226V0.922852H12.75V4.4226H11.25ZM7.24825 5.74185L4.604 3.09785L5.67325 2.0286L8.31725 4.67285L7.24825 5.74185ZM4.25 22.4996C4.0375 22.4996 3.85942 22.4277 3.71575 22.2839C3.57192 22.1402 3.5 21.9621 3.5 21.7496V14.0766L5.54225 8.2496C5.61675 8.0201 5.75333 7.83777 5.952 7.7026C6.15067 7.56727 6.37183 7.4996 6.6155 7.4996H9.4615V5.73035H11.8808C11.5898 6.20735 11.3637 6.71844 11.2027 7.2636C11.0419 7.80877 10.9615 8.38427 10.9615 8.9901V8.9996H6.86925L5.327 13.1919H12.4963C12.7219 13.4894 12.9713 13.7657 13.2443 14.0209C13.5173 14.2759 13.8192 14.4995 14.15 14.6919H5V18.9996H19V15.5206C19.2667 15.4771 19.5234 15.4149 19.7703 15.3341C20.0169 15.2534 20.2602 15.1574 20.5 15.0459V21.7496C20.5 21.9621 20.4281 22.1402 20.2843 22.2839C20.1406 22.4277 19.9625 22.4996 19.75 22.4996H19.1348C18.9223 22.4996 18.7441 22.4277 18.6003 22.2839C18.4566 22.1402 18.3848 21.9621 18.3848 21.7496V20.4996H5.61525V21.7496C5.61525 21.9621 5.54342 22.1402 5.39975 22.2839C5.25592 22.4277 5.07775 22.4996 4.86525 22.4996H4.25ZM6.2885 17.7111H9.13475C9.37992 17.7111 9.58542 17.6282 9.75125 17.4624C9.91708 17.2965 10 17.0911 10 16.8461C10 16.6009 9.91708 16.3954 9.75125 16.2294C9.58542 16.0634 9.37992 15.9804 9.13475 15.9804H6.2885V17.7111ZM17.7115 17.7111V15.9804H14.8652C14.6201 15.9804 14.4146 16.0633 14.2488 16.2291C14.0829 16.3949 14 16.6004 14 16.8454C14 17.0905 14.0829 17.2961 14.2488 17.4621C14.4146 17.6281 14.6201 17.7111 14.8652 17.7111H17.7115ZM16.9385 11.1246L20.25 7.82835L19.4115 6.9901L16.9385 9.43235L15.896 8.3901L15.0577 9.24385L16.9385 11.1246ZM17.6538 4.4901C18.9026 4.4901 19.9648 4.92785 20.8403 5.80335C21.7159 6.67902 22.1538 7.74127 22.1538 8.9901C22.1538 10.2388 21.7159 11.3009 20.8403 12.1766C19.9648 13.0521 18.9026 13.4899 17.6538 13.4899C16.4051 13.4899 15.3429 13.0521 14.4672 12.1766C13.5916 11.3009 13.1538 10.2388 13.1538 8.9901C13.1538 7.74127 13.5916 6.67902 14.4672 5.80335C15.3429 4.92785 16.4051 4.4901 17.6538 4.4901Z" fill="#005F8E"/>
</g>
</svg>
