<svg width="24" height="24" viewBox="0 0 24 24" fill="none" xmlns="http://www.w3.org/2000/svg">
<mask id="mask0_2177_80983" style="mask-type:alpha" maskUnits="userSpaceOnUse" x="0" y="0" width="24" height="24">
<rect width="24" height="24" fill="#D9D9D9"/>
</mask>
<g mask="url(#mask0_2177_80983)">
<path d="M8.94238 14.75C7.34522 14.75 5.98763 14.191 4.86963 13.073C3.75147 11.9548 3.19238 10.5972 3.19238 9C3.19238 8.72217 3.21263 8.44442 3.25313 8.16675C3.29347 7.88892 3.36105 7.62242 3.45588 7.36725C3.52005 7.21342 3.60663 7.09967 3.71563 7.026C3.82447 6.95233 3.94747 6.89883 4.08463 6.8655C4.22197 6.83217 4.36013 6.83467 4.49913 6.873C4.6383 6.9115 4.76488 6.98783 4.87888 7.102L7.54238 9.74625L9.68863 7.6L7.05388 4.95575C6.93988 4.84158 6.86363 4.71275 6.82513 4.56925C6.78663 4.42575 6.78405 4.286 6.81738 4.15C6.85072 4.01417 6.90588 3.89175 6.98288 3.78275C7.05972 3.67375 7.17188 3.58717 7.31938 3.523C7.57455 3.42183 7.83997 3.351 8.11563 3.3105C8.39113 3.27017 8.66672 3.25 8.94238 3.25C10.5397 3.25 11.8974 3.809 13.0154 4.927C14.1334 6.04517 14.6924 7.40283 14.6924 9C14.6924 9.42183 14.6526 9.81475 14.5731 10.1788C14.4936 10.5429 14.3744 10.8949 14.2154 11.2348L19.6501 16.6385C20.0693 17.056 20.2789 17.5671 20.2789 18.1718C20.2789 18.7764 20.07 19.2884 19.6521 19.7078C19.2343 20.1269 18.7228 20.3365 18.1176 20.3365C17.5125 20.3365 17.0002 20.1218 16.5809 19.6923L11.1771 14.273C10.8245 14.4257 10.466 14.5433 10.1019 14.626C9.73755 14.7087 9.35105 14.75 8.94238 14.75ZM8.94238 13.25C9.38005 13.25 9.81772 13.1849 10.2554 13.0548C10.6929 12.9248 11.093 12.7213 11.4559 12.4443L17.6656 18.654C17.7873 18.7757 17.9398 18.834 18.1231 18.829C18.3065 18.8238 18.459 18.7603 18.5809 18.6385C18.7027 18.5167 18.7636 18.3641 18.7636 18.1807C18.7636 17.9974 18.7027 17.8448 18.5809 17.723L12.3714 11.5288C12.652 11.1826 12.859 10.7887 12.9924 10.347C13.1257 9.90533 13.1924 9.45633 13.1924 9C13.1924 7.891 12.7962 6.90958 12.0039 6.05575C11.2115 5.20192 10.209 4.78333 8.99613 4.8L11.1636 6.96725C11.3443 7.14808 11.4346 7.359 11.4346 7.6C11.4346 7.841 11.3443 8.05192 11.1636 8.23275L8.17513 11.2213C7.9943 11.4019 7.78338 11.4923 7.54238 11.4923C7.30138 11.4923 7.09047 11.4019 6.90963 11.2213L4.74238 9.05375C4.74488 10.3371 5.1763 11.3573 6.03663 12.1145C6.89697 12.8715 7.86555 13.25 8.94238 13.25Z" fill="#005F8E"/>
</g>
</svg>
