<svg width="24" height="24" viewBox="0 0 24 24" fill="none" xmlns="http://www.w3.org/2000/svg">
<mask id="mask0_4008_73799" style="mask-type:alpha" maskUnits="userSpaceOnUse" x="0" y="0" width="24" height="24">
<rect width="24" height="24" fill="#D9D9D9"/>
</mask>
<g mask="url(#mask0_4008_73799)">
<path d="M8.94238 14.75C7.34622 14.75 5.98888 14.1907 4.87038 13.072C3.75172 11.9535 3.19238 10.5962 3.19238 9C3.19238 8.72433 3.21263 8.44708 3.25313 8.16825C3.29347 7.88942 3.36105 7.62242 3.45588 7.36725C3.52005 7.21342 3.60663 7.09967 3.71563 7.026C3.82447 6.95233 3.94747 6.89883 4.08463 6.8655C4.22197 6.83217 4.36013 6.83467 4.49913 6.873C4.6383 6.9115 4.76488 6.98783 4.87888 7.102L7.54238 9.74625L9.68863 7.6L7.05388 4.95575C6.93988 4.84158 6.86363 4.71342 6.82513 4.57125C6.78663 4.42892 6.78405 4.28917 6.81738 4.152C6.85072 4.01483 6.90588 3.89175 6.98288 3.78275C7.05972 3.67375 7.17188 3.58717 7.31938 3.523C7.57455 3.42183 7.83997 3.351 8.11563 3.3105C8.39113 3.27017 8.66672 3.25 8.94238 3.25C10.5385 3.25 11.896 3.80933 13.0146 4.928C14.1331 6.0465 14.6924 7.40383 14.6924 9C14.6924 9.42183 14.6526 9.81475 14.5731 10.1788C14.4936 10.5429 14.3744 10.8949 14.2154 11.2348L19.6501 16.6385C20.0693 17.0577 20.2789 17.5692 20.2789 18.173C20.2789 18.7768 20.0693 19.2884 19.6501 19.7078C19.231 20.1269 18.7195 20.3365 18.1156 20.3365C17.5118 20.3365 17.0002 20.1218 16.5809 19.6923L11.1771 14.273C10.8245 14.4257 10.4661 14.5433 10.1021 14.626C9.73797 14.7087 9.35138 14.75 8.94238 14.75Z" fill="#005F8E"/>
</g>
</svg>
