<svg width="25" height="24" viewBox="0 0 25 24" fill="none" xmlns="http://www.w3.org/2000/svg">
<mask id="mask0_4018_117642" style="mask-type:alpha" maskUnits="userSpaceOnUse" x="0" y="0" width="25" height="24">
<rect x="0.78418" width="24" height="24" fill="#D9D9D9"/>
</mask>
<g mask="url(#mask0_4018_117642)">
<path d="M12.7842 16.7308C13.013 16.7308 13.2048 16.6533 13.3597 16.4985C13.5145 16.3437 13.5919 16.1518 13.5919 15.923C13.5919 15.6942 13.5145 15.5023 13.3597 15.3475C13.2048 15.1928 13.013 15.1155 12.7842 15.1155C12.5553 15.1155 12.3635 15.1928 12.2087 15.3475C12.0538 15.5023 11.9764 15.6942 11.9764 15.923C11.9764 16.1518 12.0538 16.3437 12.2087 16.4985C12.3635 16.6533 12.5553 16.7308 12.7842 16.7308ZM12.7844 13.077C12.9971 13.077 13.1752 13.0051 13.3187 12.8613C13.4623 12.7176 13.5342 12.5395 13.5342 12.327V7.827C13.5342 7.6145 13.4623 7.43633 13.3184 7.2925C13.1746 7.14883 12.9964 7.077 12.7839 7.077C12.5713 7.077 12.3932 7.14883 12.2497 7.2925C12.106 7.43633 12.0342 7.6145 12.0342 7.827V12.327C12.0342 12.5395 12.1061 12.7176 12.2499 12.8613C12.3938 13.0051 12.5719 13.077 12.7844 13.077ZM12.7859 21.5C11.4719 21.5 10.2368 21.2507 9.08068 20.752C7.92451 20.2533 6.91885 19.5766 6.06368 18.7218C5.20851 17.8669 4.53143 16.8617 4.03243 15.706C3.5336 14.5503 3.28418 13.3156 3.28418 12.0017C3.28418 10.6877 3.53351 9.45267 4.03218 8.2965C4.53085 7.14033 5.2076 6.13467 6.06243 5.2795C6.91726 4.42433 7.92251 3.74725 9.07818 3.24825C10.2338 2.74942 11.4686 2.5 12.7824 2.5C14.0964 2.5 15.3315 2.74933 16.4877 3.248C17.6438 3.74667 18.6495 4.42342 19.5047 5.27825C20.3598 6.13308 21.0369 7.13833 21.5359 8.294C22.0348 9.44967 22.2842 10.6844 22.2842 11.9983C22.2842 13.3123 22.0348 14.5473 21.5362 15.7035C21.0375 16.8597 20.3608 17.8653 19.5059 18.7205C18.6511 19.5757 17.6458 20.2528 16.4902 20.7518C15.3345 21.2506 14.0998 21.5 12.7859 21.5Z" fill="#005F8E"/>
</g>
</svg>
