<svg width="20" height="20" viewBox="0 0 20 20" fill="none" xmlns="http://www.w3.org/2000/svg">
<mask id="mask0_4041_90314" style="mask-type:alpha" maskUnits="userSpaceOnUse" x="0" y="0" width="20" height="20">
<rect width="20" height="20" fill="#D9D9D9"/>
</mask>
<g mask="url(#mask0_4041_90314)">
<path d="M4.42345 17.0827C4.00248 17.0827 3.64616 16.9368 3.35449 16.6452C3.06283 16.3535 2.91699 15.9972 2.91699 15.5762V4.42247C2.91699 4.0015 3.06283 3.64518 3.35449 3.35352C3.64616 3.06185 4.00248 2.91602 4.42345 2.91602H9.0547C9.23206 2.91602 9.3806 2.97588 9.50033 3.0956C9.61991 3.21518 9.6797 3.36365 9.6797 3.54102C9.6797 3.71838 9.61991 3.86685 9.50033 3.98643C9.3806 4.10615 9.23206 4.16602 9.0547 4.16602H4.42345C4.35928 4.16602 4.30053 4.19275 4.2472 4.24622C4.19373 4.29956 4.16699 4.35831 4.16699 4.42247V15.5762C4.16699 15.6404 4.19373 15.6991 4.2472 15.7525C4.30053 15.8059 4.35928 15.8327 4.42345 15.8327H15.5772C15.6414 15.8327 15.7001 15.8059 15.7535 15.7525C15.8069 15.6991 15.8337 15.6404 15.8337 15.5762V10.945C15.8337 10.7676 15.8935 10.6191 16.0132 10.4993C16.1328 10.3798 16.2813 10.32 16.4587 10.32C16.636 10.32 16.7845 10.3798 16.9041 10.4993C17.0238 10.6191 17.0837 10.7676 17.0837 10.945V15.5762C17.0837 15.9972 16.9378 16.3535 16.6462 16.6452C16.3545 16.9368 15.9982 17.0827 15.5772 17.0827H4.42345ZM15.8337 5.04414L8.53887 12.3391C8.42345 12.4544 8.27838 12.5134 8.10366 12.5162C7.92908 12.5189 7.78137 12.4598 7.66053 12.3391C7.53984 12.2183 7.47949 12.0719 7.47949 11.9C7.47949 11.728 7.53984 11.5816 7.66053 11.4608L14.9555 4.16602H12.292C12.1146 4.16602 11.9662 4.10615 11.8466 3.98643C11.7269 3.86685 11.667 3.71838 11.667 3.54102C11.667 3.36365 11.7269 3.21518 11.8466 3.0956C11.9662 2.97588 12.1146 2.91602 12.292 2.91602H16.3303C16.5452 2.91602 16.7244 2.98789 16.868 3.13164C17.0118 3.27525 17.0837 3.45449 17.0837 3.66935V7.70768C17.0837 7.88504 17.0238 8.03352 16.9041 8.1531C16.7845 8.27282 16.636 8.33268 16.4587 8.33268C16.2813 8.33268 16.1328 8.27282 16.0132 8.1531C15.8935 8.03352 15.8337 7.88504 15.8337 7.70768V5.04414Z" fill="#005F8E"/>
</g>
</svg>
