<svg width="25" height="24" viewBox="0 0 25 24" fill="none" xmlns="http://www.w3.org/2000/svg">
<mask id="mask0_4008_73785" style="mask-type:alpha" maskUnits="userSpaceOnUse" x="0" y="0" width="25" height="24">
<rect x="0.904297" width="24" height="24" fill="#D9D9D9"/>
</mask>
<g mask="url(#mask0_4008_73785)">
<path d="M6.21205 20.5C5.70688 20.5 5.2793 20.325 4.9293 19.975C4.5793 19.625 4.4043 19.1974 4.4043 18.6923V5.30775C4.4043 4.80258 4.5793 4.375 4.9293 4.025C5.2793 3.675 5.70688 3.5 6.21205 3.5H19.5965C20.1017 3.5 20.5293 3.675 20.8793 4.025C21.2293 4.375 21.4043 4.80258 21.4043 5.30775V18.6923C21.4043 19.1974 21.2293 19.625 20.8793 19.975C20.5293 20.325 20.1017 20.5 19.5965 20.5H6.21205ZM19.9043 7.673L13.989 14.3L10.6523 10.9635C10.4716 10.7827 10.2608 10.6923 10.0198 10.6923C9.77863 10.6923 9.56771 10.7827 9.38705 10.9635L5.9043 14.4462V16.5845L10.0198 12.4692L13.3773 15.827C13.5581 16.0077 13.7784 16.0954 14.038 16.0903C14.2975 16.0852 14.5125 15.984 14.683 15.7865L19.9043 9.923V7.673Z" fill="#005F8E"/>
</g>
</svg>
