<svg width="24" height="24" viewBox="0 0 24 24" fill="none" xmlns="http://www.w3.org/2000/svg">
<mask id="mask0_4061_69770" style="mask-type:alpha" maskUnits="userSpaceOnUse" x="0" y="0" width="24" height="24">
<rect width="24" height="24" fill="#D9D9D9"/>
</mask>
<g mask="url(#mask0_4061_69770)">
<path d="M12.6844 22.5C11.3563 22.5 10.1114 22.1891 8.94994 21.5673C7.78844 20.9454 6.8436 20.0794 6.11544 18.9693L2.11344 12.8442C2.02244 12.7096 1.98619 12.5641 2.00469 12.4078C2.02336 12.2513 2.08977 12.116 2.20394 12.002C2.46027 11.7353 2.77336 11.5834 3.14319 11.5463C3.51302 11.5091 3.84985 11.5969 4.15369 11.8098L7.49994 14.0655V4.5C7.49994 4.29367 7.57186 4.11708 7.71569 3.97025C7.85935 3.82342 8.03744 3.75 8.24994 3.75C8.45644 3.75 8.63302 3.82342 8.77969 3.97025C8.92652 4.11708 8.99994 4.29367 8.99994 4.5V15.2212C8.99994 15.5819 8.83844 15.8487 8.51544 16.0215C8.19227 16.1943 7.88002 16.1769 7.57869 15.9693L4.74219 14.0423L7.37694 18.1077C7.96027 19.0154 8.72127 19.7243 9.65994 20.2345C10.5986 20.7448 11.6068 21 12.6844 21C14.4331 21 15.9229 20.3878 17.1537 19.1635C18.3845 17.9392 18.9999 16.4494 18.9999 14.6943V5.25C18.9999 5.04367 19.0718 4.86708 19.2154 4.72025C19.3593 4.57342 19.5374 4.5 19.7499 4.5C19.9563 4.5 20.1329 4.57342 20.2797 4.72025C20.4265 4.86708 20.4999 5.04367 20.4999 5.25V14.6943C20.4999 16.8678 19.7414 18.7121 18.2244 20.2272C16.7074 21.7424 14.8608 22.5 12.6844 22.5ZM12.0869 1.75C12.2994 1.75 12.4775 1.82342 12.6212 1.97025C12.7647 2.11708 12.8364 2.29367 12.8364 2.5V11C12.8364 11.2125 12.7645 11.3906 12.6207 11.5343C12.4769 11.6781 12.2987 11.75 12.0862 11.75C11.8735 11.75 11.6954 11.6781 11.5519 11.5343C11.4083 11.3906 11.3364 11.2125 11.3364 11V2.5C11.3364 2.29367 11.4084 2.11708 11.5522 1.97025C11.696 1.82342 11.8743 1.75 12.0869 1.75ZM15.9234 2.75C16.1359 2.75 16.314 2.82342 16.4577 2.97025C16.6012 3.11708 16.6729 3.29367 16.6729 3.5V11C16.6729 11.2125 16.601 11.3906 16.4572 11.5343C16.3134 11.6781 16.1352 11.75 15.9227 11.75C15.71 11.75 15.5319 11.6781 15.3884 11.5343C15.2448 11.3906 15.1729 11.2125 15.1729 11V3.5C15.1729 3.29367 15.2449 3.11708 15.3887 2.97025C15.5325 2.82342 15.7108 2.75 15.9234 2.75Z" fill="#005F8E"/>
</g>
</svg>
