<svg width="24" height="24" viewBox="0 0 24 24" fill="none" xmlns="http://www.w3.org/2000/svg">
<mask id="mask0_4404_232847" style="mask-type:alpha" maskUnits="userSpaceOnUse" x="0" y="0" width="24" height="24">
<rect width="24" height="24" fill="#D9D9D9"/>
</mask>
<g mask="url(#mask0_4404_232847)">
<path d="M4.25 20.5C4.0375 20.5 3.85942 20.4281 3.71575 20.2843C3.57192 20.1406 3.5 19.9625 3.5 19.75V12.077L5.54225 6.25C5.61675 6.0205 5.75333 5.83817 5.952 5.703C6.15067 5.56767 6.37183 5.5 6.6155 5.5H11.8345C11.814 5.6475 11.8028 5.79242 11.801 5.93475C11.799 6.07692 11.8013 6.22692 11.8078 6.38475C11.8078 6.49742 11.8103 6.6025 11.8153 6.7C11.8204 6.7975 11.8333 6.8975 11.8538 7H6.86925L5.60775 10.577H13.9385C14.4565 11.0398 15.0299 11.4055 15.6588 11.674C16.2876 11.9427 16.9975 12.077 17.7885 12.077H5V17H19V11.9385C19.2667 11.8847 19.5234 11.8138 19.7703 11.726C20.0169 11.6382 20.2602 11.5283 20.5 11.3963V19.75C20.5 19.9625 20.4281 20.1406 20.2843 20.2843C20.1406 20.4281 19.9625 20.5 19.75 20.5H19.1348C18.9223 20.5 18.7441 20.4281 18.6003 20.2843C18.4566 20.1406 18.3848 19.9625 18.3848 19.75V18.5H5.61525V19.75C5.61525 19.9625 5.54342 20.1406 5.39975 20.2843C5.25592 20.4281 5.07775 20.5 4.86525 20.5H4.25ZM17.2385 9.65375L17.05 8.6615C16.8218 8.60133 16.6138 8.51642 16.426 8.40675C16.2382 8.29708 16.0693 8.166 15.9193 8.0135L14.9808 8.36925L14.4308 7.43075L15.1808 6.75375C15.1218 6.52175 15.0923 6.29617 15.0923 6.077C15.0923 5.85767 15.1218 5.632 15.1808 5.4L14.4308 4.75375L14.9833 3.8155L15.9038 4.1405C16.0538 3.98783 16.2227 3.85675 16.4105 3.74725C16.5983 3.63758 16.8115 3.55258 17.05 3.49225L17.2385 2.5H18.323L18.527 3.477C18.7653 3.5475 18.9784 3.63758 19.1663 3.74725C19.3541 3.85675 19.523 3.98783 19.673 4.1405L20.5938 3.8155L21.146 4.75375L20.4115 5.4C20.4705 5.632 20.5026 5.86017 20.5078 6.0845C20.5128 6.309 20.4807 6.53725 20.4115 6.76925L21.146 7.4155L20.6115 8.35375L19.673 8.0135C19.523 8.166 19.3516 8.29708 19.1588 8.40675C18.9658 8.51642 18.7552 8.60133 18.527 8.6615L18.323 9.65375H17.2385ZM17.7895 7.59625C18.2118 7.59625 18.5704 7.44842 18.8653 7.15275C19.1603 6.85708 19.3078 6.49808 19.3078 6.07575C19.3078 5.65342 19.1599 5.29483 18.8643 5C18.5686 4.70517 18.2096 4.55775 17.7873 4.55775C17.3649 4.55775 17.0063 4.70558 16.7115 5.00125C16.4167 5.29675 16.2693 5.65567 16.2693 6.078C16.2693 6.50033 16.4171 6.85892 16.7128 7.15375C17.0083 7.44875 17.3672 7.59625 17.7895 7.59625ZM7.46375 15.8462C7.82758 15.8462 8.13617 15.7188 8.3895 15.464C8.64267 15.2093 8.76925 14.9001 8.76925 14.5363C8.76925 14.1724 8.64192 13.8638 8.38725 13.6105C8.13242 13.3573 7.82308 13.2308 7.45925 13.2308C7.09542 13.2308 6.78692 13.3581 6.53375 13.6128C6.28042 13.8676 6.15375 14.1769 6.15375 14.5408C6.15375 14.9046 6.28117 15.2131 6.536 15.4663C6.79067 15.7196 7.09992 15.8462 7.46375 15.8462ZM16.5408 15.8462C16.9046 15.8462 17.2131 15.7188 17.4663 15.464C17.7196 15.2093 17.8463 14.9001 17.8463 14.5363C17.8463 14.1724 17.7188 13.8638 17.464 13.6105C17.2093 13.3573 16.9001 13.2308 16.5363 13.2308C16.1724 13.2308 15.8638 13.3581 15.6105 13.6128C15.3573 13.8676 15.2308 14.1769 15.2308 14.5408C15.2308 14.9046 15.3581 15.2131 15.6128 15.4663C15.8676 15.7196 16.1769 15.8462 16.5408 15.8462Z" fill="#005F8E"/>
</g>
</svg>
