<svg width="24" height="24" viewBox="0 0 24 24" fill="none" xmlns="http://www.w3.org/2000/svg">
<mask id="mask0_2183_90552" style="mask-type:alpha" maskUnits="userSpaceOnUse" x="0" y="0" width="24" height="24">
<rect width="24" height="24" fill="#D9D9D9"/>
</mask>
<g mask="url(#mask0_2183_90552)">
<path d="M11.5 14C10.8 14 10.2083 13.7583 9.725 13.275C9.24167 12.7917 9 12.2 9 11.5C9 10.8 9.24167 10.2083 9.725 9.725C10.2083 9.24167 10.8 9 11.5 9C12.2 9 12.7917 9.24167 13.275 9.725C13.7583 10.2083 14 10.8 14 11.5C14 12.2 13.7583 12.7917 13.275 13.275C12.7917 13.7583 12.2 14 11.5 14ZM4.30775 19.5C3.80258 19.5 3.375 19.325 3.025 18.975C2.675 18.625 2.5 18.1974 2.5 17.6923V6.30775C2.5 5.80258 2.675 5.375 3.025 5.025C3.375 4.675 3.80258 4.5 4.30775 4.5H19.6923C20.1974 4.5 20.625 4.675 20.975 5.025C21.325 5.375 21.5 5.80258 21.5 6.30775V18.127C21.5 18.532 21.3151 18.8124 20.9452 18.9682C20.5752 19.1241 20.248 19.0597 19.9635 18.775L14.8577 13.6692C15.0911 13.3256 15.2564 12.9794 15.3538 12.6308C15.4513 12.2821 15.5 11.9052 15.5 11.5C15.5 10.391 15.1106 9.44708 14.3318 8.66825C13.5529 7.88942 12.609 7.5 11.5 7.5C10.391 7.5 9.44708 7.88942 8.66825 8.66825C7.88942 9.44708 7.5 10.391 7.5 11.5C7.5 12.609 7.88942 13.5529 8.66825 14.3317C9.44708 15.1106 10.391 15.5 11.5 15.5C11.9333 15.5 12.3462 15.4368 12.7385 15.3105C13.1308 15.1842 13.4923 14.9948 13.823 14.7423L17.0443 17.9635C17.3289 18.248 17.3933 18.5753 17.2375 18.9453C17.0817 19.3151 16.8012 19.5 16.3962 19.5H4.30775Z" fill="#005F8E"/>
</g>
</svg>
