<svg width="24" height="24" viewBox="0 0 24 24" fill="none" xmlns="http://www.w3.org/2000/svg">
<mask id="mask0_4454_69642" style="mask-type:alpha" maskUnits="userSpaceOnUse" x="0" y="0" width="24" height="24">
<rect width="24" height="24" fill="#D9D9D9"/>
</mask>
<g mask="url(#mask0_4454_69642)">
<path d="M3.5 20.8811V3.11958C3.5 3.01575 3.54358 2.94616 3.63075 2.91083C3.71792 2.87566 3.8 2.89016 3.877 2.95433L4.59225 3.58308C4.67942 3.65741 4.77692 3.69458 4.88475 3.69458C4.99242 3.69458 5.08983 3.65741 5.177 3.58308L6.0155 2.87933C6.10267 2.80483 6.20008 2.76758 6.30775 2.76758C6.41542 2.76758 6.51283 2.80483 6.6 2.87933L7.4385 3.58308C7.52567 3.65741 7.62308 3.69458 7.73075 3.69458C7.83842 3.69458 7.93583 3.65741 8.023 3.58308L8.8615 2.87933C8.94867 2.80483 9.04608 2.76758 9.15375 2.76758C9.26158 2.76758 9.35908 2.80483 9.44625 2.87933L10.2848 3.58308C10.3719 3.65741 10.4693 3.69458 10.577 3.69458C10.6847 3.69458 10.7821 3.65741 10.8692 3.58308L11.7078 2.87933C11.7949 2.80483 11.8923 2.76758 12 2.76758C12.1077 2.76758 12.2051 2.80483 12.2923 2.87933L13.1307 3.58308C13.2179 3.65741 13.3153 3.69458 13.423 3.69458C13.5307 3.69458 13.6281 3.65741 13.7153 3.58308L14.5538 2.87933C14.6409 2.80483 14.7384 2.76758 14.8462 2.76758C14.9539 2.76758 15.0513 2.80483 15.1385 2.87933L15.977 3.58308C16.0642 3.65741 16.1616 3.69458 16.2693 3.69458C16.3769 3.69458 16.4743 3.65741 16.5615 3.58308L17.4 2.87933C17.4872 2.80483 17.5846 2.76758 17.6923 2.76758C17.7999 2.76758 17.8973 2.80483 17.9845 2.87933L18.823 3.58308C18.9102 3.65741 19.0076 3.69458 19.1152 3.69458C19.2231 3.69458 19.3206 3.65741 19.4078 3.58308L20.123 2.95433C20.2 2.89016 20.2821 2.87566 20.3693 2.91083C20.4564 2.94616 20.5 3.01575 20.5 3.11958V20.8811C20.5 20.9849 20.4564 21.0545 20.3693 21.0898C20.2821 21.125 20.2 21.1105 20.123 21.0463L19.4078 20.4176C19.3206 20.3432 19.2231 20.3061 19.1152 20.3061C19.0076 20.3061 18.9102 20.3432 18.823 20.4176L17.9845 21.1213C17.8973 21.1958 17.7999 21.2331 17.6923 21.2331C17.5846 21.2331 17.4872 21.1958 17.4 21.1213L16.5615 20.4176C16.4743 20.3432 16.3769 20.3061 16.2693 20.3061C16.1616 20.3061 16.0642 20.3432 15.977 20.4176L15.1385 21.1213C15.0513 21.1958 14.9539 21.2331 14.8462 21.2331C14.7384 21.2331 14.6409 21.1958 14.5538 21.1213L13.7153 20.4176C13.6281 20.3432 13.5307 20.3061 13.423 20.3061C13.3153 20.3061 13.2179 20.3432 13.1307 20.4176L12.2923 21.1213C12.2051 21.1958 12.1077 21.2331 12 21.2331C11.8923 21.2331 11.7949 21.1958 11.7078 21.1213L10.8692 20.4176C10.7821 20.3432 10.6847 20.3061 10.577 20.3061C10.4693 20.3061 10.3719 20.3432 10.2848 20.4176L9.44625 21.1213C9.35908 21.1958 9.26158 21.2331 9.15375 21.2331C9.04608 21.2331 8.94867 21.1958 8.8615 21.1213L8.023 20.4176C7.93583 20.3432 7.83842 20.3061 7.73075 20.3061C7.62308 20.3061 7.52567 20.3432 7.4385 20.4176L6.6 21.1213C6.51283 21.1958 6.41542 21.2331 6.30775 21.2331C6.20008 21.2331 6.10267 21.1958 6.0155 21.1213L5.177 20.4176C5.08983 20.3432 4.99242 20.3061 4.88475 20.3061C4.77692 20.3061 4.67942 20.3432 4.59225 20.4176L3.877 21.0463C3.8 21.1105 3.71792 21.125 3.63075 21.0898C3.54358 21.0545 3.5 20.9849 3.5 20.8811ZM7 16.4426H17C17.2128 16.4426 17.391 16.3708 17.5345 16.2273C17.6782 16.0837 17.75 15.9054 17.75 15.6926C17.75 15.4797 17.6782 15.3016 17.5345 15.1581C17.391 15.0144 17.2128 14.9426 17 14.9426H7C6.78717 14.9426 6.609 15.0144 6.4655 15.1581C6.32183 15.3016 6.25 15.4797 6.25 15.6926C6.25 15.9054 6.32183 16.0837 6.4655 16.2273C6.609 16.3708 6.78717 16.4426 7 16.4426ZM7 12.7503H17C17.2128 12.7503 17.391 12.6785 17.5345 12.5348C17.6782 12.3913 17.75 12.2132 17.75 12.0003C17.75 11.7875 17.6782 11.6093 17.5345 11.4658C17.391 11.3222 17.2128 11.2503 17 11.2503H7C6.78717 11.2503 6.609 11.3222 6.4655 11.4658C6.32183 11.6093 6.25 11.7875 6.25 12.0003C6.25 12.2132 6.32183 12.3913 6.4655 12.5348C6.609 12.6785 6.78717 12.7503 7 12.7503ZM7 9.05808H17C17.2128 9.05808 17.391 8.98625 17.5345 8.84258C17.6782 8.69908 17.75 8.52091 17.75 8.30808C17.75 8.09524 17.6782 7.91699 17.5345 7.77333C17.391 7.62983 17.2128 7.55808 17 7.55808H7C6.78717 7.55808 6.609 7.62983 6.4655 7.77333C6.32183 7.91699 6.25 8.09524 6.25 8.30808C6.25 8.52091 6.32183 8.69908 6.4655 8.84258C6.609 8.98625 6.78717 9.05808 7 9.05808ZM5 19.1003H19V4.90033H5V19.1003Z" fill="#005F8E"/>
</g>
</svg>
