<svg width="25" height="24" viewBox="0 0 25 24" fill="none" xmlns="http://www.w3.org/2000/svg">
<mask id="mask0_4012_102165" style="mask-type:alpha" maskUnits="userSpaceOnUse" x="0" y="0" width="25" height="24">
<rect x="0.015625" width="24" height="24" fill="#D9D9D9"/>
</mask>
<g mask="url(#mask0_4012_102165)">
<path d="M5.26562 18.8845C5.05313 18.8845 4.87504 18.8127 4.73138 18.669C4.58754 18.5252 4.51562 18.3469 4.51562 18.1343C4.51562 17.9218 4.58754 17.7437 4.73138 17.6C4.87504 17.4565 5.05313 17.3848 5.26562 17.3848H6.32337V9.923C6.32337 8.57817 6.73846 7.38908 7.56862 6.35575C8.39862 5.32242 9.46429 4.6615 10.7656 4.373V3.75C10.7656 3.40283 10.887 3.10767 11.1299 2.8645C11.3727 2.6215 11.6675 2.5 12.0144 2.5C12.3614 2.5 12.6566 2.6215 12.9001 2.8645C13.1438 3.10767 13.2656 3.40283 13.2656 3.75V4.373C14.567 4.6615 15.6326 5.32242 16.4626 6.35575C17.2928 7.38908 17.7079 8.57817 17.7079 9.923V17.3848H18.7656C18.9781 17.3848 19.1562 17.4566 19.2999 17.6003C19.4437 17.7441 19.5156 17.9223 19.5156 18.135C19.5156 18.3475 19.4437 18.5256 19.2999 18.6693C19.1562 18.8128 18.9781 18.8845 18.7656 18.8845H5.26562ZM12.0139 21.6923C11.5164 21.6923 11.091 21.5153 10.7379 21.1613C10.3845 20.8073 10.2079 20.3817 10.2079 19.8845H13.8234C13.8234 20.3833 13.6462 20.8093 13.2919 21.1625C12.9375 21.5157 12.5115 21.6923 12.0139 21.6923Z" fill="#005F8E"/>
</g>
</svg>
