<svg width="24" height="24" viewBox="0 0 24 24" fill="none" xmlns="http://www.w3.org/2000/svg">
<mask id="mask0_4454_69693" style="mask-type:alpha" maskUnits="userSpaceOnUse" x="0" y="0" width="24" height="24">
<rect width="24" height="24" fill="#D9D9D9"/>
</mask>
<g mask="url(#mask0_4454_69693)">
<path d="M4 7.6999H20V5.60365C20 5.52665 19.9679 5.45615 19.9038 5.39215C19.8398 5.32798 19.7693 5.2959 19.6923 5.2959H4.30775C4.23075 5.2959 4.16025 5.32798 4.09625 5.39215C4.03208 5.45615 4 5.52665 4 5.60365V7.6999ZM2.5 5.60365C2.5 5.09848 2.675 4.6709 3.025 4.3209C3.375 3.9709 3.80258 3.7959 4.30775 3.7959H19.6923C20.1974 3.7959 20.625 3.9709 20.975 4.3209C21.325 4.6709 21.5 5.09848 21.5 5.60365V9.98815C21.5 10.2458 21.4138 10.4609 21.2413 10.6334C21.0689 10.8057 20.8538 10.8919 20.596 10.8919H4V16.9881C4 17.0651 4.03208 17.1356 4.09625 17.1996C4.16025 17.2638 4.23075 17.2959 4.30775 17.2959H7.9365C8.14933 17.2959 8.32758 17.3677 8.47125 17.5114C8.61475 17.6549 8.6865 17.8331 8.6865 18.0459C8.6865 18.2587 8.61475 18.4369 8.47125 18.5804C8.32758 18.7241 8.14933 18.7959 7.9365 18.7959H4.30775C3.80258 18.7959 3.375 18.6209 3.025 18.2709C2.675 17.9209 2.5 17.4933 2.5 16.9881V5.60365ZM4 5.60365V17.2959V13.7016V15.3324V5.2959V5.60365ZM14.7962 20.2036C14.6821 20.2036 14.5715 20.1818 14.4645 20.1381C14.3573 20.0945 14.257 20.0259 14.1635 19.9324L11.4192 17.1881C11.2807 17.0496 11.2073 16.8781 11.199 16.6736C11.1907 16.4693 11.2641 16.2896 11.4192 16.1344C11.5641 15.9896 11.7372 15.9171 11.9385 15.9171C12.1397 15.9171 12.3178 15.9896 12.473 16.1344L14.7962 18.4266L19.923 13.2996C20.0718 13.151 20.2484 13.0776 20.4527 13.0796C20.6572 13.0815 20.8371 13.16 20.9923 13.3151C21.1371 13.4703 21.2121 13.6459 21.2173 13.8419C21.2224 14.0381 21.1474 14.2137 20.9923 14.3689L15.4288 19.9324C15.3353 20.0259 15.2366 20.0945 15.1328 20.1381C15.0289 20.1818 14.9167 20.2036 14.7962 20.2036Z" fill="#005F8E"/>
</g>
</svg>
