<svg width="24" height="24" viewBox="0 0 24 24" fill="none" xmlns="http://www.w3.org/2000/svg">
<mask id="mask0_4448_59450" style="mask-type:alpha" maskUnits="userSpaceOnUse" x="0" y="0" width="24" height="24">
<rect width="24" height="24" fill="#D9D9D9"/>
</mask>
<g mask="url(#mask0_4448_59450)">
<path d="M3.61525 19.5481V20.4424C3.61525 20.7362 3.51233 20.986 3.3065 21.1916C3.10067 21.3973 2.85067 21.5001 2.5565 21.5001C2.2625 21.5001 2.01292 21.3973 1.80775 21.1916C1.60258 20.986 1.5 20.7362 1.5 20.4424V13.5424C1.5 13.3609 1.51525 13.1831 1.54575 13.0089C1.57625 12.8349 1.62958 12.6646 1.70575 12.4981L3.529 8.17513C3.6335 7.9183 3.79775 7.71438 4.02175 7.56338C4.24575 7.41222 4.49492 7.33663 4.76925 7.33663H13.3845C13.6573 7.33663 13.9073 7.41222 14.1345 7.56338C14.3618 7.71438 14.5285 7.9183 14.6345 8.17513L16.448 12.4981C16.5242 12.6646 16.5775 12.8349 16.608 13.0089C16.6385 13.1831 16.6538 13.3609 16.6538 13.5424V20.4424C16.6538 20.7362 16.5508 20.986 16.345 21.1916C16.1392 21.3973 15.8892 21.5001 15.595 21.5001C15.3008 21.5001 15.0512 21.3973 14.8462 21.1916C14.6411 20.986 14.5385 20.7362 14.5385 20.4424V19.5481H3.61525ZM3.627 11.5099H14.5115L13.398 8.83663H4.75575L3.627 11.5099ZM3 18.0481H15.1538V13.0096H3V18.0481ZM5.531 16.8366C5.895 16.8366 6.20358 16.7116 6.45675 16.4616C6.70992 16.2116 6.8365 15.9038 6.8365 15.5381C6.8365 15.1723 6.70917 14.8614 6.4545 14.6054C6.19983 14.3494 5.8905 14.2214 5.5265 14.2214C5.16267 14.2214 4.85417 14.3494 4.601 14.6054C4.34783 14.8614 4.22125 15.1723 4.22125 15.5381C4.22125 15.9038 4.34858 16.2116 4.60325 16.4616C4.85792 16.7116 5.16717 16.8366 5.531 16.8366ZM12.6272 16.8366C12.9911 16.8366 13.2997 16.7116 13.553 16.4616C13.8062 16.2116 13.9327 15.9038 13.9327 15.5381C13.9327 15.1723 13.8053 14.8614 13.5505 14.6054C13.2958 14.3494 12.9866 14.2214 12.6228 14.2214C12.2589 14.2214 11.9504 14.3494 11.6973 14.6054C11.4439 14.8614 11.3173 15.1723 11.3173 15.5381C11.3173 15.9038 11.4447 16.2116 11.6995 16.4616C11.9542 16.7116 12.2634 16.8366 12.6272 16.8366ZM16.1557 5.95213H7.2905C7.0405 5.95213 6.853 5.87413 6.728 5.71813C6.603 5.5623 6.5405 5.39088 6.5405 5.20388C6.5405 5.01672 6.603 4.84463 6.728 4.68763C6.853 4.53063 7.0405 4.45213 7.2905 4.45213H16.25C16.5212 4.45213 16.7698 4.52747 16.9958 4.67813C17.2216 4.8288 17.3864 5.03297 17.4902 5.29063L19.2943 9.57513C19.3704 9.74163 19.4237 9.91188 19.4543 10.0859C19.4848 10.2599 19.5 10.4377 19.5 10.6194V17.8271C19.5 18.0396 19.4281 18.2177 19.2843 18.3614C19.1404 18.5052 18.9622 18.5771 18.7498 18.5771C18.5371 18.5771 18.359 18.5052 18.2155 18.3614C18.0718 18.2177 18 18.0396 18 17.8271V10.3809L16.1557 5.95213ZM19.05 3.06738H10.223C9.973 3.06738 9.7855 2.98947 9.6605 2.83363C9.5355 2.6778 9.473 2.5063 9.473 2.31913C9.473 2.13213 9.5355 1.96013 9.6605 1.80313C9.7855 1.64597 9.973 1.56738 10.223 1.56738H19.1443C19.4154 1.56738 19.6639 1.64272 19.8898 1.79338C20.1158 1.94405 20.2807 2.14822 20.3845 2.40588L22.1788 6.66163C22.2549 6.82813 22.3083 6.99838 22.3388 7.17238C22.3693 7.34638 22.3845 7.52422 22.3845 7.70588V14.9039C22.3845 15.1164 22.3126 15.2945 22.1688 15.4384C22.0251 15.582 21.8469 15.6539 21.6343 15.6539C21.4216 15.6539 21.2435 15.582 21.1 15.4384C20.9563 15.2945 20.8845 15.1164 20.8845 14.9039V7.45788L19.05 3.06738Z" fill="#005F8E"/>
</g>
</svg>
