<svg width="24" height="24" viewBox="0 0 24 24" fill="none" xmlns="http://www.w3.org/2000/svg">
<mask id="mask0_4040_43013" style="mask-type:alpha" maskUnits="userSpaceOnUse" x="0" y="0" width="24" height="24">
<rect width="24" height="24" fill="#D9D9D9"/>
</mask>
<g mask="url(#mask0_4040_43013)">
<path d="M15.9996 8.30859V5.30859H7.99959V8.30859H6.49959V3.80859H17.4996V8.30859H15.9996ZM17.8073 12.3086C18.0907 12.3086 18.3282 12.2128 18.5198 12.0211C18.7115 11.8294 18.8073 11.5919 18.8073 11.3086C18.8073 11.0253 18.7115 10.7878 18.5198 10.5961C18.3282 10.4044 18.0907 10.3086 17.8073 10.3086C17.524 10.3086 17.2865 10.4044 17.0948 10.5961C16.9032 10.7878 16.8073 11.0253 16.8073 11.3086C16.8073 11.5919 16.9032 11.8294 17.0948 12.0211C17.2865 12.2128 17.524 12.3086 17.8073 12.3086ZM15.9996 19.0008V14.7316H7.99959V19.0008H15.9996ZM17.4996 20.5008H6.49959V16.5008H2.78809V10.8086C2.78809 10.1003 3.03009 9.50651 3.51409 9.02734C3.99809 8.54818 4.58942 8.30859 5.28809 8.30859H18.7111C19.4194 8.30859 20.0132 8.54818 20.4923 9.02734C20.9715 9.50651 21.2111 10.1003 21.2111 10.8086V16.5008H17.4996V20.5008ZM19.7111 15.0008V10.8086C19.7111 10.5253 19.6153 10.2878 19.4236 10.0961C19.2319 9.90443 18.9944 9.80859 18.7111 9.80859H5.28809C5.00475 9.80859 4.76725 9.90443 4.57559 10.0961C4.38392 10.2878 4.28809 10.5253 4.28809 10.8086V15.0008H6.49959V13.2316H17.4996V15.0008H19.7111Z" fill="#005F8E"/>
</g>
</svg>
