<svg width="103" height="50" viewBox="0 0 103 50" fill="none" xmlns="http://www.w3.org/2000/svg">
<path d="M14.0081 44.906V31.2256H12.0222C11.1396 31.2256 10.4556 31.4315 9.97013 31.8434C9.49941 32.2406 9.26405 32.8804 9.26405 33.7631H8.82274V32.1082C8.82274 31.814 8.87422 31.5345 8.9772 31.2697C9.08017 30.9902 9.26404 30.7695 9.52883 30.6077C9.80832 30.4312 10.1981 30.3429 10.6983 30.3429H20.9586V31.2256H15.9939V44.906H14.0081Z" fill="#005F8E"/>
<path d="M22.8547 45.1266C22.5457 45.1266 22.2074 45.0751 21.8397 44.9722C21.4866 44.8839 21.1409 44.7221 20.8026 44.4867C20.4643 44.2514 20.1848 43.9351 19.9641 43.5379C19.7582 43.1408 19.6552 42.6406 19.6552 42.0375C19.6552 41.2285 19.9126 40.6033 20.4275 40.162C20.9571 39.7207 21.6484 39.4117 22.5016 39.2352C23.3695 39.044 24.2963 38.9484 25.2818 38.9484H25.9438C25.9438 37.9187 25.8408 37.139 25.6349 36.6095C25.4289 36.0652 25.1494 35.6974 24.7964 35.5062C24.4581 35.3003 24.0682 35.1973 23.6269 35.1973C23.0091 35.1973 22.4869 35.3297 22.0603 35.5945C21.6484 35.8592 21.3616 36.352 21.1998 37.0728H20.2068C20.2068 36.6904 20.2289 36.3373 20.273 36.0137C20.3172 35.6754 20.479 35.3665 20.7585 35.087C21.038 34.8075 21.494 34.6089 22.1265 34.4912C22.759 34.3735 23.4063 34.3147 24.0682 34.3147C24.5684 34.3147 25.0465 34.3735 25.5025 34.4912C25.9732 34.6089 26.3851 34.8295 26.7381 35.1532C27.1059 35.4621 27.3927 35.9254 27.5987 36.5433C27.8193 37.1464 27.9297 37.9481 27.9297 38.9484V44.906H26.8264L26.0541 43.913H25.9438C25.7231 44.1925 25.3627 44.4647 24.8626 44.7295C24.3624 44.9942 23.6931 45.1266 22.8547 45.1266ZM23.8476 44.1337C24.3919 44.1337 24.8185 44.0013 25.1274 43.7365C25.451 43.457 25.7231 43.1481 25.9438 42.8098V39.831H25.2818C24.1786 39.831 23.3107 40.0369 22.6781 40.4488C22.0603 40.846 21.7514 41.3756 21.7514 42.0375C21.7514 42.7583 21.9647 43.2879 22.3913 43.6262C22.8179 43.9645 23.3033 44.1337 23.8476 44.1337Z" fill="#005F8E"/>
<path d="M28.5794 49.0984V48.6571C29.0648 48.6571 29.462 48.4805 29.7709 48.1275C30.0798 47.7892 30.3078 47.2964 30.4549 46.6491C30.602 46.0019 30.6756 45.237 30.6756 44.3544V37.1832C30.6756 36.5212 30.58 35.9916 30.3887 35.5945C30.2122 35.1826 29.793 34.9766 29.131 34.9766H28.6897V34.5353H30.6756C31.1904 34.5353 31.5876 34.6015 31.8671 34.7339C32.1613 34.8663 32.3672 35.1237 32.4849 35.5062C32.6026 35.8887 32.6614 36.4477 32.6614 37.1832V44.3544C32.6614 45.4576 32.5438 46.3549 32.3084 47.0463C32.073 47.7524 31.6611 48.2673 31.0727 48.5909C30.4843 48.9292 29.6532 49.0984 28.5794 49.0984ZM31.514 33.2114C31.1757 33.2114 30.8815 33.0717 30.6314 32.7922C30.3961 32.5127 30.2784 32.1817 30.2784 31.7993C30.2784 31.4903 30.3667 31.2476 30.5432 31.0711C30.7344 30.8946 30.9845 30.8063 31.2934 30.8063C31.6317 30.8063 31.9186 30.9461 32.1539 31.2256C32.404 31.5051 32.529 31.836 32.529 32.2185C32.529 32.5274 32.4334 32.7701 32.2422 32.9466C32.0657 33.1232 31.823 33.2114 31.514 33.2114Z" fill="#005F8E"/>
<path d="M39.1507 45.1266C38.121 45.1266 37.2604 44.8839 36.569 44.3985C35.8924 43.913 35.3775 43.2584 35.0245 42.4347C34.6861 41.6109 34.517 40.7062 34.517 39.7207C34.517 38.7204 34.6935 37.8157 35.0465 37.0066C35.3996 36.1829 35.9071 35.5283 36.569 35.0428C37.231 34.5574 38.018 34.3147 38.93 34.3147C39.9303 34.3147 40.7541 34.5059 41.4013 34.8884C42.0633 35.2561 42.5487 35.8004 42.8576 36.5212C43.1813 37.242 43.3431 38.1246 43.3431 39.169L43.2989 40.0516H36.6132C36.6132 41.2579 36.8706 42.2582 37.3855 43.0525C37.915 43.8469 38.6505 44.244 39.592 44.244C40.3128 44.244 40.9085 44.0896 41.3793 43.7807C41.8647 43.4717 42.2986 43.0378 42.6811 42.4788L43.1224 42.8098C42.7988 43.3688 42.431 43.8174 42.0192 44.1558C41.622 44.4941 41.1807 44.7442 40.6952 44.906C40.2245 45.0531 39.7097 45.1266 39.1507 45.1266ZM36.6132 39.169H41.2469C41.2469 37.8892 41.0556 36.911 40.6732 36.2344C40.2907 35.543 39.7097 35.1973 38.93 35.1973C38.4887 35.1973 38.0915 35.3738 37.7385 35.7269C37.4002 36.0652 37.128 36.5359 36.9221 37.139C36.7161 37.7274 36.6132 38.4041 36.6132 39.169Z" fill="#005F8E"/>
<path d="M49.2627 45.1266C48.233 45.1266 47.3725 44.8839 46.6811 44.3985C46.0045 43.913 45.4896 43.2584 45.1366 42.4347C44.7982 41.6109 44.6291 40.7062 44.6291 39.7207C44.6291 38.7204 44.8056 37.8157 45.1586 37.0066C45.5117 36.1829 46.0192 35.5283 46.6811 35.0428C47.3431 34.5574 48.1301 34.3147 49.0421 34.3147C50.0424 34.3147 50.8661 34.5059 51.5134 34.8884C52.1754 35.2561 52.6608 35.8004 52.9697 36.5212C53.2933 37.242 53.4551 38.1246 53.4551 39.169L53.411 40.0516H46.7252C46.7252 41.2579 46.9827 42.2582 47.4975 43.0525C48.0271 43.8469 48.7626 44.244 49.704 44.244C50.4248 44.244 51.0206 44.0896 51.4913 43.7807C51.9768 43.4717 52.4107 43.0378 52.7932 42.4788L53.2345 42.8098C52.9109 43.3688 52.5431 43.8174 52.1312 44.1558C51.7341 44.4941 51.2927 44.7442 50.8073 44.906C50.3366 45.0531 49.8217 45.1266 49.2627 45.1266ZM46.7252 39.169H51.3589C51.3589 37.8892 51.1677 36.911 50.7852 36.2344C50.4028 35.543 49.8217 35.1973 49.0421 35.1973C48.6008 35.1973 48.2036 35.3738 47.8506 35.7269C47.5122 36.0652 47.2401 36.5359 47.0342 37.139C46.8282 37.7274 46.7252 38.4041 46.7252 39.169Z" fill="#005F8E"/>
<path d="M55.5134 44.906V37.1832C55.5134 36.5212 55.4178 35.9916 55.2266 35.5945C55.05 35.1826 54.6308 34.9766 53.9688 34.9766H53.7482V34.5353H55.5134C56.0724 34.5353 56.4916 34.6162 56.7711 34.7781C57.0653 34.9399 57.2713 35.1899 57.3889 35.5283C57.639 35.2782 57.9994 35.0134 58.4701 34.7339C58.9556 34.4544 59.5146 34.3147 60.1471 34.3147C60.3677 34.3147 60.6031 34.3441 60.8532 34.4029C61.1032 34.4471 61.3092 34.528 61.471 34.6457C61.6328 34.7633 61.7726 34.9031 61.8902 35.0649C62.0079 35.2267 62.1256 35.4179 62.2433 35.6386L61.3607 36.3006C61.1989 36.0799 60.9562 35.9181 60.6325 35.8151C60.3236 35.6974 59.9779 35.6386 59.5955 35.6386C59.1542 35.6386 58.7496 35.7416 58.3819 35.9475C58.0141 36.1387 57.7199 36.4035 57.4993 36.7419C57.4993 36.8154 57.4993 36.9257 57.4993 37.0728C57.4993 37.2052 57.4993 37.3156 57.4993 37.4038V44.906H55.5134Z" fill="#005F8E"/>
<path d="M51.1686 20.3198V18.7753H53.9047V20.3198H51.1686ZM48.4767 25.3728C48.2855 25.3728 48.1163 25.3507 47.9692 25.3066C47.8221 25.2625 47.6897 25.2036 47.572 25.1301C47.469 25.0565 47.3808 24.9903 47.3072 24.9315C47.8956 24.4313 48.3149 23.9018 48.565 23.3428C48.8297 22.7838 48.9989 22.2322 49.0725 21.6879C49.146 21.1583 49.1828 20.7023 49.1828 20.3198V10.6994C49.1828 10.3317 49.2784 10.0816 49.4696 9.9492C49.6609 9.8021 49.8962 9.72855 50.1757 9.72855C50.4552 9.72855 50.6906 9.8021 50.8818 9.9492C51.073 10.0816 51.1686 10.3317 51.1686 10.6994V20.3198C51.1686 20.8347 51.1245 21.3863 51.0362 21.9747C50.948 22.5631 50.8009 23.1148 50.5949 23.6296C50.389 24.1445 50.1095 24.5637 49.7565 24.8873C49.4181 25.211 48.9915 25.3728 48.4767 25.3728ZM53.9047 20.3198V18.7753C54.0812 18.7753 54.1989 18.8415 54.2578 18.9739C54.3166 19.1063 54.346 19.2975 54.346 19.5476C54.346 19.7829 54.3166 19.9742 54.2578 20.1213C54.1989 20.2537 54.0812 20.3198 53.9047 20.3198Z" fill="#005F8E"/>
<path d="M53.2502 20.3198V18.7753H53.8018C54.2578 18.7753 54.6256 18.6429 54.9051 18.3781C55.1993 18.1133 55.4126 17.7824 55.5449 17.3852C55.692 16.988 55.7656 16.5835 55.7656 16.1716V10.6994C55.7656 10.3317 55.8612 10.0816 56.0525 9.9492C56.2437 9.8021 56.479 9.72855 56.7585 9.72855C57.038 9.72855 57.2734 9.8021 57.4646 9.9492C57.6559 10.0816 57.7515 10.3317 57.7515 10.6994V16.1716C57.7515 16.9659 57.5823 17.6794 57.244 18.3119C56.9056 18.9297 56.4423 19.4225 55.8539 19.7903C55.2655 20.1433 54.5814 20.3198 53.8018 20.3198H53.2502ZM59.7153 20.3198C58.9503 20.3198 58.2663 20.1433 57.6632 19.7903C57.0748 19.4225 56.6114 18.9297 56.2731 18.3119C55.9348 17.6794 55.7656 16.9659 55.7656 16.1716H57.7515C57.7515 16.5835 57.8177 16.988 57.9501 17.3852C58.0972 17.7824 58.3178 18.1133 58.612 18.3781C58.9062 18.6429 59.274 18.7753 59.7153 18.7753H72.8523V20.3198H59.7153ZM72.8523 20.3198V18.7753C73.0288 18.7753 73.1465 18.8415 73.2053 18.9739C73.2642 19.1063 73.2936 19.2975 73.2936 19.5476C73.2936 19.7829 73.2642 19.9742 73.2053 20.1213C73.1465 20.2537 73.0288 20.3198 72.8523 20.3198ZM53.2502 20.3198C53.0737 20.3198 52.956 20.2537 52.8971 20.1213C52.8383 19.9742 52.8089 19.7829 52.8089 19.5476C52.8089 19.2975 52.8383 19.1063 52.8971 18.9739C52.956 18.8415 53.0737 18.7753 53.2502 18.7753V20.3198ZM58.3693 24.6226C58.031 24.6226 57.7368 24.4975 57.4867 24.2475C57.2366 23.9974 57.1116 23.7032 57.1116 23.3648C57.1116 23.0118 57.2366 22.7102 57.4867 22.4602C57.7368 22.2101 58.031 22.0851 58.3693 22.0851C58.7223 22.0851 59.0165 22.2101 59.2519 22.4602C59.502 22.7102 59.627 23.0118 59.627 23.3648C59.627 23.7032 59.502 23.9974 59.2519 24.2475C59.0165 24.4975 58.7223 24.6226 58.3693 24.6226ZM55.1478 24.6226C54.8094 24.6226 54.5152 24.4975 54.2652 24.2475C54.0151 23.9974 53.8901 23.7032 53.8901 23.3648C53.8901 23.0118 54.0151 22.7102 54.2652 22.4602C54.5152 22.2101 54.8094 22.0851 55.1478 22.0851C55.5008 22.0851 55.795 22.2101 56.0304 22.4602C56.2804 22.7102 56.4055 23.0118 56.4055 23.3648C56.4055 23.7032 56.2804 23.9974 56.0304 24.2475C55.795 24.4975 55.5008 24.6226 55.1478 24.6226Z" fill="#005F8E"/>
<path d="M59.8499 20.3198V18.7753H78.9225C79.5256 18.7753 80.0037 18.5399 80.3567 18.0692C80.7097 17.5838 80.8863 16.76 80.8863 15.5979C80.8863 13.9798 80.5112 12.8545 79.7609 12.2219C79.0254 11.5894 77.959 11.2731 76.5615 11.2731C76.2673 11.2731 76.0025 11.2805 75.7671 11.2952C75.5318 11.3099 75.3185 11.332 75.1273 11.3614C74.936 11.3761 74.7522 11.3834 74.5756 11.3834C74.2226 11.3834 73.9357 11.332 73.7151 11.229C73.4944 11.126 73.3253 10.9789 73.2076 10.7877C73.1046 10.5817 73.0237 10.3537 72.9649 10.1037C72.9354 9.94185 72.906 9.78003 72.8766 9.61822C72.8619 9.4417 72.8619 9.32402 72.8766 9.26518C73.0237 9.36815 73.2223 9.48583 73.4724 9.61822C73.7224 9.75061 74.0608 9.81681 74.4874 9.81681C74.6345 9.81681 74.8036 9.80945 74.9949 9.79474C75.2008 9.78003 75.4288 9.76532 75.6789 9.75061C75.929 9.7359 76.2011 9.72855 76.4953 9.72855C77.628 9.72855 78.5988 9.8683 79.4079 10.1478C80.217 10.4126 80.8716 10.8024 81.3717 11.3172C81.8866 11.8321 82.2617 12.4499 82.497 13.1707C82.7471 13.8915 82.8721 14.6932 82.8721 15.5758C82.8721 16.7526 82.6883 17.6941 82.3205 18.4002C81.9528 19.0916 81.4673 19.5843 80.8642 19.8785C80.2758 20.1727 79.6286 20.3198 78.9225 20.3198H59.8499ZM59.8499 20.3198C59.6734 20.3198 59.5557 20.2537 59.4969 20.1213C59.438 19.9742 59.4086 19.7829 59.4086 19.5476C59.4086 19.2975 59.438 19.1063 59.4969 18.9739C59.5557 18.8415 59.6734 18.7753 59.8499 18.7753V20.3198ZM76.8704 24.6226C76.5027 24.6226 76.1937 24.4975 75.9437 24.2475C75.6936 23.9974 75.5686 23.7032 75.5686 23.3648C75.5686 23.0118 75.6936 22.7102 75.9437 22.4602C76.1937 22.2101 76.5027 22.0851 76.8704 22.0851C77.2087 22.0851 77.5029 22.2101 77.753 22.4602C78.0031 22.7102 78.1281 23.0118 78.1281 23.3648C78.1281 23.7032 78.0031 23.9974 77.753 24.2475C77.5029 24.4975 77.2087 24.6226 76.8704 24.6226Z" fill="#005F8E"/>
<path d="M89.5839 20.3198C88.819 20.3198 88.135 20.1433 87.5319 19.7903C86.9435 19.4225 86.4801 18.9297 86.1417 18.3119C85.8034 17.6794 85.6343 16.9659 85.6343 16.1716V9.02246C85.6343 8.56645 85.568 8.15456 85.4357 7.78681C85.318 7.41906 85.1635 7.11014 84.9723 6.86007C84.7811 6.61 84.5972 6.42612 84.4207 6.30844C84.4795 6.23489 84.5751 6.15398 84.7075 6.06572C84.8546 5.97746 85.0311 5.90391 85.2371 5.84507C85.443 5.78623 85.6563 5.75681 85.877 5.75681C86.1565 5.75681 86.4286 5.83036 86.6934 5.97746C86.9582 6.10985 87.1788 6.35257 87.3553 6.70561C87.5319 7.05866 87.6201 7.5588 87.6201 8.20605V16.1716C87.6201 16.5835 87.6863 16.988 87.8187 17.3852C87.9658 17.7824 88.1865 18.1133 88.4807 18.3781C88.7749 18.6429 89.1426 18.7753 89.5839 18.7753H96.3662V20.3198H89.5839ZM96.3662 20.3198V18.7753C96.5428 18.7753 96.6605 18.8415 96.7193 18.9739C96.7781 19.1063 96.8076 19.2975 96.8076 19.5476C96.8076 19.7829 96.7781 19.9742 96.7193 20.1213C96.6605 20.2537 96.5428 20.3198 96.3662 20.3198Z" fill="#005F8E"/>
<path d="M89.6155 20.3198V18.7753H97.1921C97.6629 18.7753 98.0527 18.665 98.3616 18.4443C98.6705 18.2237 98.9059 17.9442 99.0677 17.6058C99.2442 17.2675 99.3692 16.9144 99.4428 16.5467C99.5311 16.1789 99.5825 15.848 99.5972 15.5538C99.612 15.2449 99.6193 15.0242 99.6193 14.8918C99.6193 14.4946 99.5825 14.0239 99.509 13.4796C99.4354 12.9354 99.2663 12.369 99.0015 11.7806C98.7514 11.1922 98.3322 10.6553 97.7438 10.1699C97.8173 10.0963 97.9056 10.0301 98.0086 9.97127C98.1262 9.89771 98.2586 9.83887 98.4057 9.79474C98.5528 9.75061 98.722 9.72855 98.9132 9.72855C99.4281 9.72855 99.8547 9.89772 100.193 10.236C100.546 10.5744 100.826 11.0157 101.031 11.56C101.237 12.0895 101.385 12.6559 101.473 13.259C101.561 13.8621 101.605 14.4211 101.605 14.9359C101.605 16.6276 101.215 17.9515 100.436 18.9077C99.6561 19.8491 98.5749 20.3198 97.1921 20.3198H89.6155ZM89.6155 20.3198C89.4389 20.3198 89.3213 20.2537 89.2624 20.1213C89.2036 19.9742 89.1742 19.7829 89.1742 19.5476C89.1742 19.2975 89.2036 19.1063 89.2624 18.9739C89.3213 18.8415 89.4389 18.7753 89.6155 18.7753V20.3198ZM100.59 8.29431C100.252 8.29431 99.9576 8.16927 99.7076 7.9192C99.4575 7.66913 99.3325 7.37493 99.3325 7.03659C99.3325 6.68355 99.4575 6.38199 99.7076 6.13192C99.9576 5.88185 100.252 5.75681 100.59 5.75681C100.943 5.75681 101.237 5.88185 101.473 6.13192C101.723 6.38199 101.848 6.68355 101.848 7.03659C101.848 7.37493 101.723 7.66913 101.473 7.9192C101.237 8.16927 100.943 8.29431 100.59 8.29431ZM97.3687 8.29431C97.0303 8.29431 96.7361 8.16927 96.4861 7.9192C96.236 7.66913 96.1109 7.37493 96.1109 7.03659C96.1109 6.68355 96.236 6.38199 96.4861 6.13192C96.7361 5.88185 97.0303 5.75681 97.3687 5.75681C97.7217 5.75681 98.0159 5.88185 98.2513 6.13192C98.5013 6.38199 98.6264 6.68355 98.6264 7.03659C98.6264 7.37493 98.5013 7.66913 98.2513 7.9192C98.0159 8.16927 97.7217 8.29431 97.3687 8.29431Z" fill="#005F8E"/>
<path d="M83.6333 5.20253C83.4991 5.01189 83.4532 4.84596 83.4956 4.70474C83.5379 4.55646 83.6262 4.44349 83.7604 4.36582C83.9016 4.28815 84.0534 4.25991 84.2158 4.28109C84.3782 4.29521 84.5159 4.37641 84.6288 4.52469L84.5123 4.42937C84.4135 4.37288 84.297 4.26344 84.1628 4.10104C84.0357 3.93158 83.9227 3.72681 83.8239 3.48674C83.7321 3.23961 83.6862 2.97483 83.6862 2.6924C83.6862 2.4382 83.7321 2.20167 83.8239 1.98278C83.9227 1.76389 84.0604 1.57325 84.237 1.41085C84.4135 1.24845 84.6324 1.12488 84.8936 1.04015C85.1549 0.948361 85.4479 0.902466 85.7727 0.902466C86.1328 0.902466 86.3941 0.948361 86.5564 1.04015C86.7259 1.13194 86.8318 1.24139 86.8742 1.36848C86.9236 1.48852 86.9483 1.5909 86.9483 1.67563C86.9483 1.88746 86.8954 2.0428 86.7895 2.14165C86.6835 2.23344 86.5635 2.28287 86.4294 2.28993C86.3023 2.29699 86.2069 2.27227 86.1434 2.21579C86.1505 2.02514 86.101 1.8698 85.9951 1.74977C85.8963 1.62267 85.7762 1.53088 85.635 1.4744C85.4938 1.41085 85.3632 1.37907 85.2431 1.37907H85.4338C85.3279 1.37907 85.2113 1.42144 85.0843 1.50617C84.9642 1.5909 84.8583 1.72153 84.7665 1.89805C84.6747 2.07457 84.6288 2.31111 84.6288 2.60766C84.6288 3.00307 84.7136 3.30669 84.883 3.51852C85.0595 3.72328 85.2784 3.86097 85.5397 3.93158C85.8009 4.00219 86.0551 4.03749 86.3023 4.03749C86.4647 4.03749 86.6094 4.03043 86.7365 4.01631C86.8636 3.99513 86.9554 3.97747 87.0119 3.96335C87.1601 3.96335 87.2625 3.99866 87.319 4.06926C87.3826 4.13987 87.4143 4.22107 87.4143 4.31286C87.4214 4.39759 87.4038 4.47526 87.3614 4.54587C87.3261 4.61648 87.2802 4.65179 87.2237 4.65179C86.9836 4.67297 86.7294 4.69768 86.4611 4.72592C86.1999 4.75417 85.9386 4.78594 85.6774 4.82125C85.4232 4.84949 85.1796 4.88126 84.9466 4.91657C84.7136 4.95187 84.5017 4.98718 84.3111 5.02248C84.1204 5.05073 83.9651 5.07897 83.8451 5.10721C83.7321 5.14252 83.6615 5.17429 83.6333 5.20253Z" fill="#005F8E"/>
<path d="M57.4867 24.2475C57.7368 24.4975 58.031 24.6226 58.3693 24.6226C58.7223 24.6226 59.0165 24.4975 59.2519 24.2475C59.502 23.9974 59.627 23.7032 59.627 23.3648C59.627 23.0118 59.502 22.7102 59.2519 22.4602C59.0165 22.2101 58.7223 22.0851 58.3693 22.0851C58.031 22.0851 57.7368 22.2101 57.4867 22.4602C57.2366 22.7102 57.1116 23.0118 57.1116 23.3648C57.1116 23.7032 57.2366 23.9974 57.4867 24.2475Z" fill="#005F8E"/>
<path d="M66.9786 44.9002V33.0092C66.9786 32.3486 66.8832 31.8201 66.6923 31.4237C66.5162 31.0127 66.0978 30.8072 65.4372 30.8072H64.9968V30.3668H70.722C71.1037 30.3668 71.5294 30.3961 71.9992 30.4548C72.4837 30.4989 72.9681 30.609 73.4526 30.7851C73.9517 30.9466 74.4068 31.1888 74.8178 31.5118C75.2435 31.8348 75.5812 32.2605 75.8308 32.789C76.095 33.3175 76.2271 33.9781 76.2271 34.7708C76.2271 35.5195 76.1023 36.1508 75.8528 36.6646C75.6032 37.1637 75.2729 37.5674 74.8619 37.8757C74.4655 38.184 74.0471 38.4188 73.6067 38.5803C73.1663 38.7271 72.7479 38.8299 72.3515 38.8886C71.9552 38.9327 71.6322 38.9547 71.3827 38.9547H68.9604V44.9002H66.9786ZM68.9604 38.184H70.6119C70.9202 38.184 71.2652 38.1252 71.6469 38.0078C72.0286 37.8904 72.4029 37.6922 72.7699 37.4133C73.1369 37.1343 73.4379 36.7747 73.6728 36.3343C73.9076 35.8792 74.0251 35.3213 74.0251 34.6607C74.0251 34.0001 73.9076 33.4496 73.6728 33.0092C73.4379 32.5541 73.1369 32.1871 72.7699 31.9082C72.4029 31.6292 72.0286 31.4311 71.6469 31.3136C71.2652 31.1962 70.9202 31.1375 70.6119 31.1375C70.333 31.1375 70.0394 31.1595 69.7311 31.2035C69.4375 31.2476 69.1806 31.2989 68.9604 31.3577V38.184Z" fill="#005F8E"/>
<path d="M78.4679 44.9002V33.0092C78.4679 32.3486 78.3724 31.8201 78.1816 31.4237C78.0054 31.0127 77.5871 30.8072 76.9264 30.8072H76.486V30.3668H78.4679C78.9817 30.3668 79.378 30.4328 79.657 30.5649C79.9506 30.6971 80.1561 30.954 80.2735 31.3356C80.391 31.7173 80.4497 32.2752 80.4497 33.0092V44.9002H78.4679Z" fill="#005F8E"/>
<path d="M87.4783 45.1204C86.8617 45.1204 86.2672 45.0103 85.6947 44.7901C85.1221 44.5699 84.6524 44.1735 84.2854 43.601C83.9184 43.0284 83.7349 42.2137 83.7349 41.1567V37.1931C83.7349 36.5324 83.6394 36.004 83.4486 35.6076C83.2724 35.1965 82.854 34.991 82.1934 34.991H81.9732V34.5506H83.7349C84.2487 34.5506 84.645 34.6167 84.9239 34.7488C85.2176 34.8809 85.4231 35.1378 85.5405 35.5195C85.658 35.9012 85.7167 36.459 85.7167 37.1931V41.1567C85.7167 41.8907 85.8341 42.4779 86.069 42.9183C86.3039 43.3441 86.6048 43.6523 86.9718 43.8432C87.3535 44.034 87.7426 44.1294 88.1389 44.1294C88.4325 44.1294 88.7114 44.0781 88.9757 43.9753C89.2399 43.8579 89.4895 43.7111 89.7244 43.5349C89.9593 43.3587 90.1648 43.1679 90.341 42.9624V34.5506H92.3228V44.9002H91.2218L90.451 44.0193H90.341C90.062 44.2983 89.6803 44.5552 89.1959 44.7901C88.7114 45.0103 88.1389 45.1204 87.4783 45.1204Z" fill="#005F8E"/>
<path d="M98.9543 45.1204C98.0735 45.1204 97.3542 45.047 96.7963 44.9002C96.2385 44.7387 95.8201 44.5185 95.5412 44.2396C95.2623 43.9606 95.1008 43.645 95.0567 43.2927C95.0127 42.9404 94.9907 42.4853 94.9907 41.9274H95.4311C95.5485 42.6467 95.8568 43.2119 96.3559 43.623C96.8551 44.034 97.5744 44.2396 98.5139 44.2396C99.3507 44.2396 99.9599 44.0928 100.342 43.7991C100.738 43.5055 100.936 43.1385 100.936 42.6981C100.936 42.2577 100.767 41.8907 100.43 41.5971C100.107 41.2888 99.6149 40.9952 98.9543 40.7163L97.6331 40.1658C96.7963 39.8281 96.1431 39.4318 95.6733 38.9767C95.2182 38.5069 94.9907 37.9124 94.9907 37.1931C94.9907 36.2682 95.3357 35.5635 96.0256 35.0791C96.7156 34.58 97.5817 34.3304 98.624 34.3304C99.4608 34.3304 100.151 34.4112 100.694 34.5726C101.237 34.7194 101.648 34.9323 101.927 35.2112C102.206 35.4901 102.367 35.8058 102.412 36.1581C102.456 36.5104 102.478 36.9655 102.478 37.5234H102.037C101.92 36.804 101.611 36.2388 101.112 35.8278C100.628 35.4167 99.9452 35.2112 99.0644 35.2112C98.3451 35.2112 97.7946 35.358 97.4129 35.6516C97.0459 35.9452 96.8624 36.3122 96.8624 36.7526C96.8624 37.1343 97.0165 37.4867 97.3248 37.8096C97.6331 38.1179 98.0662 38.3895 98.624 38.6244L99.9452 39.1749C100.885 39.5566 101.597 39.9749 102.081 40.43C102.566 40.8851 102.808 41.4944 102.808 42.2577C102.808 43.1826 102.441 43.8946 101.707 44.3937C100.973 44.8781 100.055 45.1204 98.9543 45.1204Z" fill="#005F8E"/>
<path d="M7.36953 26.0207C5.98159 26.0207 4.80037 25.7845 3.82587 25.312C2.86612 24.8395 2.13524 24.1898 1.63322 23.363C1.14597 22.5509 0.902344 21.6428 0.902344 20.6388C0.902344 20.2696 0.939257 19.8119 1.01308 19.2656C1.10167 18.7045 1.24194 18.1508 1.43389 17.6045C1.64061 17.0434 1.91376 16.5783 2.25337 16.2092C2.60773 15.8253 3.05807 15.6333 3.60439 15.6333C3.79634 15.6333 3.96614 15.6555 4.11379 15.6998C4.26144 15.7441 4.38695 15.8031 4.4903 15.877C4.60843 15.936 4.7044 16.0025 4.77823 16.0763C4.24668 16.5193 3.84801 17.0139 3.58224 17.5602C3.31646 18.1065 3.1319 18.6381 3.02854 19.1549C2.93995 19.6569 2.89565 20.0998 2.89565 20.4837C2.89565 21.8864 3.3017 22.8979 4.11379 23.518C4.94064 24.1529 6.01851 24.4704 7.34738 24.4704C8.64672 24.4704 9.58432 24.1677 10.1602 23.5623C10.7508 22.9717 11.0461 21.9824 11.0461 20.5945V11.9568C11.0461 11.5877 11.1421 11.3366 11.334 11.2038C11.526 11.0561 11.7622 10.9823 12.0427 10.9823C12.3233 10.9823 12.5595 11.0561 12.7515 11.2038C12.9434 11.3366 13.0394 11.5877 13.0394 11.9568V20.5945C13.0394 22.2482 12.5891 23.5623 11.6884 24.5368C10.7877 25.5261 9.34807 26.0207 7.36953 26.0207ZM15.0106 20.3951C14.2428 20.3951 13.5562 20.218 12.9508 19.8636C12.3602 19.4945 11.8951 18.9998 11.5555 18.3797C11.2159 17.7448 11.0461 17.0287 11.0461 16.2313H13.0394C13.0394 16.6448 13.1058 17.0508 13.2387 17.4495C13.3864 17.8481 13.6079 18.1803 13.9032 18.4461C14.1985 18.7119 14.5676 18.8448 15.0106 18.8448H15.3206V20.3951H15.0106ZM21.6106 20.3951C20.8428 20.3951 20.1562 20.218 19.5509 19.8636C18.9603 19.4945 18.4952 18.9998 18.1556 18.3797C17.816 17.7448 17.6462 17.0287 17.6462 16.2313H19.6395C19.6395 16.6448 19.7059 17.0508 19.8388 17.4495C19.9864 17.8481 20.2079 18.1803 20.5032 18.4461C20.7985 18.7119 21.1677 18.8448 21.6106 18.8448H22.1422V20.3951H21.6106ZM15.3206 20.3951V18.8448H15.675C16.1327 18.8448 16.5018 18.7119 16.7824 18.4461C17.0777 18.1803 17.2918 17.8481 17.4247 17.4495C17.5723 17.0508 17.6462 16.6448 17.6462 16.2313V11.4252C17.6462 11.0561 17.7421 10.8051 17.9341 10.6722C18.126 10.5246 18.3623 10.4507 18.6428 10.4507C18.9233 10.4507 19.1596 10.5246 19.3515 10.6722C19.5435 10.8051 19.6395 11.0561 19.6395 11.4252V16.2313C19.6395 17.0287 19.4697 17.7448 19.1301 18.3797C18.7905 18.9998 18.3254 19.4945 17.7347 19.8636C17.1441 20.218 16.4575 20.3951 15.675 20.3951H15.3206ZM28.2107 20.3951C27.4429 20.3951 26.7563 20.218 26.1509 19.8636C25.5603 19.4945 25.0952 18.9998 24.7556 18.3797C24.416 17.7448 24.2462 17.0287 24.2462 16.2313H26.2395C26.2395 16.6448 26.306 17.0508 26.4389 17.4495C26.5865 17.8481 26.808 18.1803 27.1033 18.4461C27.3986 18.7119 27.7677 18.8448 28.2107 18.8448H29.008V20.3951H28.2107ZM22.1422 20.3951V18.8448H22.2751C22.7328 18.8448 23.1019 18.7119 23.3825 18.4461C23.6778 18.1803 23.8919 17.8481 24.0247 17.4495C24.1724 17.0508 24.2462 16.6448 24.2462 16.2313V10.7387C24.2462 10.3695 24.3422 10.1185 24.5341 9.98562C24.7261 9.83797 24.9623 9.76414 25.2429 9.76414C25.5234 9.76414 25.7597 9.83797 25.9516 9.98562C26.1436 10.1185 26.2395 10.3695 26.2395 10.7387V16.2313C26.2395 17.0287 26.0697 17.7448 25.7301 18.3797C25.3905 18.9998 24.9254 19.4945 24.3348 19.8636C23.7442 20.218 23.0576 20.3951 22.2751 20.3951H22.1422ZM29.008 20.3951V18.8448C29.1852 18.8448 29.3033 18.9112 29.3624 19.0441C29.4215 19.177 29.451 19.3689 29.451 19.62C29.451 19.8562 29.4215 20.0482 29.3624 20.1958C29.3033 20.3287 29.1852 20.3951 29.008 20.3951Z" fill="#005F8E"/>
<path d="M35.497 20.3951C34.7292 20.3951 34.0426 20.218 33.4373 19.8636C32.8466 19.4945 32.3815 18.9998 32.0419 18.3797C31.7023 17.7448 31.5325 17.0287 31.5325 16.2313H33.5258C33.5258 16.6448 33.5923 17.0508 33.7252 17.4495C33.8728 17.8481 34.0943 18.1803 34.3896 18.4461C34.6849 18.7119 35.0541 18.8448 35.497 18.8448H36.2943V20.3951H35.497ZM29.008 20.3951V18.8448H29.5614C30.0191 18.8448 30.3882 18.7119 30.6688 18.4461C30.9641 18.1803 31.1782 17.8481 31.3111 17.4495C31.4587 17.0508 31.5325 16.6448 31.5325 16.2313V9.05541C31.5325 8.59769 31.4661 8.18426 31.3332 7.81513C31.2151 7.446 31.06 7.13593 30.8681 6.88492C30.6762 6.63391 30.4916 6.44934 30.3144 6.33122C30.3735 6.25739 30.4694 6.17619 30.6023 6.08759C30.75 5.999 30.9198 5.92518 31.1117 5.86612C31.3184 5.80705 31.5325 5.77752 31.754 5.77752C32.0346 5.77752 32.3077 5.85135 32.5735 5.999C32.854 6.13189 33.0829 6.37552 33.2601 6.72988C33.4373 7.08425 33.5258 7.58627 33.5258 8.23594V16.2313C33.5258 17.0287 33.356 17.7448 33.0164 18.3797C32.6768 18.9998 32.2117 19.4945 31.6211 19.8636C31.0305 20.218 30.3439 20.3951 29.5614 20.3951H29.008ZM29.008 20.3951C28.8308 20.3951 28.7124 20.3287 28.6533 20.1958C28.5942 20.0482 28.5647 19.8562 28.5647 19.62C28.5647 19.3689 28.5942 19.177 28.6533 19.0441C28.7124 18.9112 28.8308 18.8448 29.008 18.8448V20.3951ZM36.2943 20.3951V18.8448C36.4715 18.8448 36.5896 18.9112 36.6487 19.0441C36.7078 19.177 36.7373 19.3689 36.7373 19.62C36.7373 19.8562 36.7078 20.0482 36.6487 20.1958C36.5896 20.3287 36.4715 20.3951 36.2943 20.3951Z" fill="#005F8E"/>
<path d="M36.2966 20.3951V18.8448H37.7805C38.253 18.8448 38.6443 18.734 38.9543 18.5126C39.2644 18.2911 39.5006 18.0105 39.6631 17.6709C39.8402 17.3313 39.9657 16.977 40.0396 16.6078C40.1282 16.2387 40.1798 15.9065 40.1946 15.6112C40.2094 15.3011 40.2168 15.0796 40.2168 14.9468C40.2168 14.5481 40.1798 14.0756 40.106 13.5293C40.0322 12.983 39.8624 12.4145 39.5966 11.8239C39.3456 11.2333 38.9248 10.6944 38.3342 10.2071C38.408 10.1333 38.4966 10.0668 38.6 10.0078C38.7181 9.93395 38.851 9.87488 38.9986 9.83059C39.1463 9.78629 39.3161 9.76414 39.508 9.76414C40.0248 9.76414 40.453 9.93395 40.7926 10.2735C41.147 10.6131 41.4275 11.0561 41.6342 11.6024C41.8409 12.134 41.9886 12.7024 42.0772 13.3078C42.1658 13.9132 42.2101 14.4743 42.2101 14.991C42.2101 16.6891 41.8188 18.0179 41.0362 18.9777C40.2537 19.9226 39.1684 20.3951 37.7805 20.3951H36.2966ZM36.2966 20.3951C36.1194 20.3951 36.0013 20.3287 35.9422 20.1958C35.8832 20.0482 35.8536 19.8562 35.8536 19.62C35.8536 19.3689 35.8832 19.177 35.9422 19.0441C36.0013 18.9112 36.1194 18.8448 36.2966 18.8448V20.3951ZM39.5745 24.714C39.2053 24.714 38.8953 24.5885 38.6443 24.3375C38.3932 24.0865 38.2677 23.7911 38.2677 23.4515C38.2677 23.0972 38.3932 22.7945 38.6443 22.5435C38.8953 22.2925 39.2053 22.167 39.5745 22.167C39.9141 22.167 40.2094 22.2925 40.4604 22.5435C40.7114 22.7945 40.8369 23.0972 40.8369 23.4515C40.8369 23.7911 40.7114 24.0865 40.4604 24.3375C40.2094 24.5885 39.9141 24.714 39.5745 24.714Z" fill="#005F8E"/>
</svg>
