<svg width="24" height="24" viewBox="0 0 24 24" fill="none" xmlns="http://www.w3.org/2000/svg">
<mask id="mask0_4454_69694" style="mask-type:alpha" maskUnits="userSpaceOnUse" x="0" y="0" width="24" height="24">
<rect width="24" height="24" fill="#D9D9D9"/>
</mask>
<g mask="url(#mask0_4454_69694)">
<path d="M21.7579 17.8657L20.4444 16.5522V10.979H14.8714L11.6791 7.78697H20.4444V5.69072C20.4444 5.60088 20.4156 5.52714 20.3579 5.46947C20.3002 5.4118 20.2265 5.38297 20.1366 5.38297H9.27513L7.77513 3.88297H20.1366C20.6418 3.88297 21.0694 4.05797 21.4194 4.40797C21.7694 4.75797 21.9444 5.18555 21.9444 5.69072V17.0752C21.9444 17.2162 21.9293 17.3547 21.8991 17.4907C21.869 17.6266 21.8219 17.7516 21.7579 17.8657ZM9.90213 10.979H4.44438V17.0752C4.44438 17.1522 4.47647 17.2227 4.54063 17.2867C4.60463 17.3509 4.67513 17.383 4.75213 17.383H16.3059L9.90213 10.979ZM4.75213 18.883C4.24697 18.883 3.81938 18.708 3.46938 18.358C3.11938 18.008 2.94438 17.5804 2.94438 17.0752V5.69072C2.94438 5.18555 3.11938 4.75797 3.46938 4.40797C3.81938 4.05797 4.24697 3.88297 4.75213 3.88297H4.94438L6.44438 5.38297H4.75213C4.67513 5.38297 4.60463 5.41505 4.54063 5.47922C4.47647 5.54322 4.44438 5.61372 4.44438 5.69072V7.78697H6.70988L2.23663 3.31372C2.08797 3.16505 2.01205 2.98847 2.00888 2.78397C2.00572 2.57947 2.08163 2.39964 2.23663 2.24447C2.3918 2.0893 2.57005 2.01172 2.77138 2.01172C2.97255 2.01172 3.15072 2.0893 3.30588 2.24447L21.7636 20.7022C21.9123 20.8509 21.9882 21.0249 21.9914 21.2242C21.9947 21.4236 21.9188 21.6008 21.7636 21.756C21.6085 21.9111 21.4303 21.9887 21.2291 21.9887C21.0278 21.9887 20.8496 21.9111 20.6944 21.756L17.8059 18.883H4.75213Z" fill="#005F8E"/>
</g>
</svg>
