<svg width="20" height="21" viewBox="0 0 20 21" fill="none" xmlns="http://www.w3.org/2000/svg">
<mask id="mask0_4577_6887" style="mask-type:alpha" maskUnits="userSpaceOnUse" x="0" y="0" width="20" height="21">
<rect y="0.5" width="20" height="20" fill="#D9D9D9"/>
</mask>
<g mask="url(#mask0_4577_6887)">
<path d="M4.42443 17.5827C4.00345 17.5827 3.64714 17.4368 3.35547 17.1452C3.0638 16.8535 2.91797 16.4972 2.91797 16.0762V4.92247C2.91797 4.5015 3.0638 4.14518 3.35547 3.85352C3.64714 3.56185 4.00345 3.41602 4.42443 3.41602H9.05568C9.23304 3.41602 9.38158 3.47588 9.5013 3.5956C9.62089 3.71518 9.68068 3.86365 9.68068 4.04102C9.68068 4.21838 9.62089 4.36685 9.5013 4.48643C9.38158 4.60615 9.23304 4.66602 9.05568 4.66602H4.42443C4.36026 4.66602 4.30151 4.69275 4.24818 4.74622C4.19471 4.79956 4.16797 4.85831 4.16797 4.92247V16.0762C4.16797 16.1404 4.19471 16.1991 4.24818 16.2525C4.30151 16.3059 4.36026 16.3327 4.42443 16.3327H15.5782C15.6423 16.3327 15.7011 16.3059 15.7544 16.2525C15.8079 16.1991 15.8346 16.1404 15.8346 16.0762V11.445C15.8346 11.2676 15.8945 11.1191 16.0142 10.9993C16.1338 10.8798 16.2823 10.82 16.4596 10.82C16.637 10.82 16.7855 10.8798 16.9051 10.9993C17.0248 11.1191 17.0846 11.2676 17.0846 11.445V16.0762C17.0846 16.4972 16.9388 16.8535 16.6471 17.1452C16.3555 17.4368 15.9992 17.5827 15.5782 17.5827H4.42443ZM15.8346 5.54414L8.53984 12.8391C8.42443 12.9544 8.27936 13.0134 8.10464 13.0162C7.93005 13.0189 7.78234 12.9598 7.66151 12.8391C7.54082 12.7183 7.48047 12.5719 7.48047 12.4C7.48047 12.228 7.54082 12.0816 7.66151 11.9608L14.9565 4.66602H12.293C12.1156 4.66602 11.9671 4.60615 11.8476 4.48643C11.7278 4.36685 11.668 4.21838 11.668 4.04102C11.668 3.86365 11.7278 3.71518 11.8476 3.5956C11.9671 3.47588 12.1156 3.41602 12.293 3.41602H16.3313C16.5462 3.41602 16.7254 3.48789 16.869 3.63164C17.0128 3.77525 17.0846 3.95449 17.0846 4.16935V8.20768C17.0846 8.38504 17.0248 8.53352 16.9051 8.6531C16.7855 8.77282 16.637 8.83268 16.4596 8.83268C16.2823 8.83268 16.1338 8.77282 16.0142 8.6531C15.8945 8.53352 15.8346 8.38504 15.8346 8.20768V5.54414Z" fill="#005F8E"/>
</g>
</svg>
