<svg width="56" height="56" viewBox="0 0 56 56" fill="none" xmlns="http://www.w3.org/2000/svg">
<mask id="mask0_4577_1480" style="mask-type:alpha" maskUnits="userSpaceOnUse" x="0" y="0" width="56" height="56">
<rect width="56" height="56" fill="#D9D9D9"/>
</mask>
<g mask="url(#mask0_4577_1480)">
<path d="M24.15 38.8588L36.5254 26.4833L33.9949 23.9528L24.1138 33.8333L19.1695 28.8884L16.6746 31.3833L24.15 38.8588ZM15.1667 45.5C11.942 45.5 9.19139 44.3796 6.91483 42.1388C4.63828 39.8984 3.5 37.1659 3.5 33.9413C3.5 31.0872 4.41389 28.5489 6.24167 26.3264C8.06944 24.1035 10.4012 22.7887 13.237 22.3819C13.9848 18.894 15.7387 16.0417 18.4987 13.825C21.2582 11.6083 24.4253 10.5 28 10.5C32.221 10.5 35.804 11.9725 38.7491 14.9176C41.6941 17.8626 43.1667 21.4457 43.1667 25.6667V26.8333H43.8848C46.3437 27.0247 48.3943 28.0134 50.0366 29.7996C51.6789 31.5854 52.5 33.7077 52.5 36.1667C52.5 38.7691 51.5951 40.9753 49.7852 42.7852C47.9753 44.5951 45.7691 45.5 43.1667 45.5H15.1667ZM15.1667 42H43.1667C44.8 42 46.1806 41.4361 47.3083 40.3083C48.4361 39.1806 49 37.8 49 36.1667C49 34.5333 48.4361 33.1528 47.3083 32.025C46.1806 30.8972 44.8 30.3333 43.1667 30.3333H39.6667V25.6667C39.6667 22.4389 38.5292 19.6875 36.2542 17.4125C33.9792 15.1375 31.2278 14 28 14C24.7722 14 22.0208 15.1375 19.7458 17.4125C17.4708 19.6875 16.3333 22.4389 16.3333 25.6667H15.1667C12.9111 25.6667 10.9861 26.4639 9.39167 28.0583C7.79722 29.6528 7 31.5778 7 33.8333C7 36.0889 7.79722 38.0139 9.39167 39.6083C10.9861 41.2028 12.9111 42 15.1667 42Z" fill="#4F4F4F"/>
</g>
</svg>
