<svg width="56" height="56" viewBox="0 0 56 56" fill="none" xmlns="http://www.w3.org/2000/svg">
<mask id="mask0_4577_1487" style="mask-type:alpha" maskUnits="userSpaceOnUse" x="0" y="0" width="56" height="56">
<rect width="56" height="56" fill="#D9D9D9"/>
</mask>
<g mask="url(#mask0_4577_1487)">
<path d="M19.4759 26.8331V17.4998C19.4759 16.752 19.7376 16.1163 20.2611 15.5929C20.7845 15.0694 21.4202 14.8077 22.168 14.8077C22.9158 14.8077 23.5515 15.0694 24.0749 15.5929C24.5984 16.1163 24.8601 16.752 24.8601 17.4998V26.8331C24.8601 27.5809 24.5984 28.2166 24.0749 28.74C23.5515 29.2635 22.9158 29.5252 22.168 29.5252C21.4202 29.5252 20.7845 29.2635 20.2611 28.74C19.7376 28.2166 19.4759 27.5809 19.4759 26.8331ZM30.3796 28.0809V8.16645C30.3796 7.41862 30.6413 6.78298 31.1648 6.25953C31.6882 5.73609 32.3238 5.47437 33.0717 5.47437C33.8195 5.47437 34.4551 5.73609 34.9786 6.25953C35.502 6.78298 35.7638 7.41862 35.7638 8.16645V28.0809C35.7638 28.978 35.4875 29.651 34.9348 30.0998C34.3822 30.5486 33.7623 30.7729 33.0752 30.7729C32.388 30.7729 31.767 30.5486 31.212 30.0998C30.6571 29.651 30.3796 28.978 30.3796 28.0809ZM8.52734 34.6049V26.8331C8.52734 26.0853 8.78907 25.4496 9.31251 24.9262C9.83595 24.4028 10.4716 24.141 11.2194 24.141C11.9673 24.141 12.6029 24.4028 13.1263 24.9262C13.6498 25.4496 13.9115 26.0853 13.9115 26.8331V34.6049C13.9115 35.5024 13.6352 36.1754 13.0826 36.6238C12.5296 37.0726 11.9095 37.297 11.2223 37.297C10.5352 37.297 9.91412 37.0726 9.35918 36.6238C8.80462 36.1754 8.52734 35.5024 8.52734 34.6049ZM12.5932 48.5331C11.8267 48.5331 11.2918 48.1763 10.9884 47.4627C10.6847 46.7495 10.8125 46.1131 11.3717 45.5534L20.7143 36.2114C21.097 35.8283 21.5629 35.6173 22.112 35.5785C22.6607 35.5396 23.1476 35.7116 23.5727 36.0947L30.3796 41.9461L44.7926 27.5331H42.0013C41.5055 27.5331 41.09 27.3653 40.7548 27.0297C40.4191 26.6941 40.2513 26.2784 40.2513 25.7825C40.2513 25.2863 40.4191 24.8708 40.7548 24.5359C41.09 24.2007 41.5055 24.0331 42.0013 24.0331H48.6426C49.2399 24.0331 49.7408 24.2351 50.1453 24.6392C50.5493 25.0436 50.7513 25.5445 50.7513 26.1419V32.7831C50.7513 33.2789 50.5835 33.6945 50.2479 34.0297C49.9123 34.3653 49.4966 34.5331 49.0008 34.5331C48.5045 34.5331 48.089 34.3653 47.7542 34.0297C47.419 33.6945 47.2513 33.2789 47.2513 32.7831V29.9919L31.905 45.3382C31.5223 45.7213 31.0565 45.9322 30.5073 45.9711C29.9586 46.01 29.4717 45.8379 29.0467 45.4549L22.2398 39.6035L13.831 48.0128C13.6836 48.1571 13.4993 48.28 13.278 48.3815C13.0571 48.4826 12.8288 48.5331 12.5932 48.5331Z" fill="#4F4F4F"/>
</g>
</svg>
