<svg width="57" height="56" viewBox="0 0 57 56" fill="none" xmlns="http://www.w3.org/2000/svg">
<mask id="mask0_4581_63353" style="mask-type:alpha" maskUnits="userSpaceOnUse" x="0" y="0" width="57" height="56">
<rect x="0.671875" width="56" height="56" fill="#D9D9D9"/>
</mask>
<g mask="url(#mask0_4581_63353)">
<path d="M28.6723 31.3966C28.3281 31.3966 27.9939 31.3517 27.6695 31.2618C27.3448 31.172 27.0224 31.0448 26.7024 30.8803L7.65886 20.7531C7.27581 20.5345 7.00067 20.2652 6.83345 19.9452C6.66584 19.6251 6.58203 19.2738 6.58203 18.8911C6.58203 18.508 6.66584 18.1565 6.83345 17.8364C7.00067 17.5164 7.27581 17.2471 7.65886 17.0285L26.7024 6.90126C27.0224 6.73676 27.3448 6.60959 27.6695 6.51976C27.9939 6.42993 28.3281 6.38501 28.6723 6.38501C29.0164 6.38501 29.3507 6.42993 29.675 6.51976C29.9998 6.60959 30.3221 6.73676 30.6422 6.90126L49.7079 17.0285C50.0909 17.2471 50.3663 17.5164 50.5339 17.8364C50.7015 18.1565 50.7853 18.508 50.7853 18.8911C50.7853 19.2738 50.7015 19.6251 50.5339 19.9452C50.3663 20.2652 50.0909 20.5345 49.7079 20.7531L30.6422 30.8803C30.3221 31.0448 29.9998 31.172 29.675 31.2618C29.3507 31.3517 29.0164 31.3966 28.6723 31.3966ZM28.6723 27.9643L45.8759 18.8911L28.6723 9.81793L11.4908 18.8911L28.6723 27.9643ZM28.6723 37.073L47.3477 27.1878C47.4406 27.1338 47.7578 27.0815 48.2991 27.0309C48.7658 27.0605 49.1479 27.2355 49.4454 27.5559C49.7433 27.876 49.8922 28.2693 49.8922 28.736C49.8922 29.0588 49.821 29.3503 49.6787 29.6104C49.5368 29.871 49.3042 30.088 48.981 30.2614L30.6422 39.9897C30.3221 40.1542 29.9998 40.2813 29.675 40.3712C29.3507 40.4606 29.0164 40.5053 28.6723 40.5053C28.3281 40.5053 27.9939 40.4606 27.6695 40.3712C27.3448 40.2813 27.0224 40.1542 26.7024 39.9897L8.3857 30.2614C8.06253 30.088 7.82628 29.871 7.67695 29.6104C7.52723 29.3503 7.45236 29.0588 7.45236 28.736C7.45236 28.2693 7.605 27.876 7.91028 27.5559C8.21517 27.2355 8.60095 27.0605 9.06761 27.0309C9.23211 27.001 9.39078 27.0002 9.54361 27.0286C9.69606 27.057 9.85453 27.1101 10.019 27.1878L28.6723 37.073ZM28.6723 46.1818L47.3477 36.2966C47.4406 36.2429 47.7578 36.1906 48.2991 36.1397C48.7658 36.1696 49.1479 36.3446 49.4454 36.6647C49.7433 36.9847 49.8922 37.3781 49.8922 37.8448C49.8922 38.1679 49.821 38.4596 49.6787 38.7198C49.5368 38.9799 49.3042 39.1967 48.981 39.3702L30.6422 49.0984C30.3221 49.2629 29.9998 49.3901 29.675 49.4799C29.3507 49.5698 29.0164 49.6147 28.6723 49.6147C28.3281 49.6147 27.9939 49.5698 27.6695 49.4799C27.3448 49.3901 27.0224 49.2629 26.7024 49.0984L8.3857 39.3702C8.06253 39.1967 7.82628 38.9799 7.67695 38.7198C7.52723 38.4596 7.45236 38.1679 7.45236 37.8448C7.45236 37.3781 7.605 36.9847 7.91028 36.6647C8.21517 36.3446 8.60095 36.1696 9.06761 36.1397C9.23211 36.1097 9.39078 36.109 9.54361 36.1373C9.69606 36.1657 9.85453 36.2188 10.019 36.2966L28.6723 46.1818Z" fill="#4F4F4F"/>
</g>
</svg>
