<svg width="97" height="48" viewBox="0 0 97 48" fill="none" xmlns="http://www.w3.org/2000/svg">
<path d="M14.9451 42.0928V30.0724H13.2002C12.4247 30.0724 11.8237 30.2533 11.3972 30.6152C10.9836 30.9642 10.7768 31.5264 10.7768 32.302H10.389V30.8479C10.389 30.5894 10.4343 30.3438 10.5247 30.1111C10.6152 29.8656 10.7768 29.6717 11.0094 29.5295C11.255 29.3744 11.5975 29.2968 12.037 29.2968H21.0523V30.0724H16.69V42.0928H14.9451Z" fill="#4F4F4F"/>
<path d="M22.7183 42.2867C22.4469 42.2867 22.1496 42.2414 21.8264 42.1509C21.5162 42.0734 21.2125 41.9312 20.9152 41.7244C20.6179 41.5176 20.3724 41.2397 20.1785 40.8907C19.9975 40.5418 19.9071 40.1023 19.9071 39.5724C19.9071 38.8615 20.1332 38.3122 20.5856 37.9244C21.0509 37.5367 21.6584 37.2652 22.4081 37.1101C23.1707 36.9421 23.985 36.8581 24.8509 36.8581H25.4326C25.4326 35.9533 25.3421 35.2683 25.1611 34.803C24.9802 34.3247 24.7346 34.0016 24.4244 33.8336C24.1271 33.6526 23.7846 33.5622 23.3969 33.5622C22.854 33.5622 22.3952 33.6785 22.0203 33.9111C21.6584 34.1438 21.4064 34.5768 21.2642 35.2101H20.3917C20.3917 34.8741 20.4111 34.5639 20.4499 34.2795C20.4887 33.9822 20.6309 33.7108 20.8764 33.4652C21.122 33.2196 21.5227 33.0452 22.0785 32.9418C22.6343 32.8383 23.203 32.7867 23.7846 32.7867C24.2241 32.7867 24.6441 32.8383 25.0448 32.9418C25.4584 33.0452 25.8203 33.239 26.1305 33.5234C26.4537 33.7948 26.7057 34.202 26.8867 34.7448C27.0805 35.2748 27.1775 35.9792 27.1775 36.8581V42.0928H26.2081L25.5295 41.2203H25.4326C25.2387 41.4659 24.922 41.705 24.4826 41.9377C24.0431 42.1703 23.455 42.2867 22.7183 42.2867ZM23.5907 41.4142C24.069 41.4142 24.4438 41.2979 24.7152 41.0652C24.9996 40.8197 25.2387 40.5482 25.4326 40.251V37.6336H24.8509C23.8815 37.6336 23.119 37.8146 22.5632 38.1765C22.0203 38.5254 21.7489 38.9907 21.7489 39.5724C21.7489 40.2057 21.9363 40.671 22.3111 40.9683C22.686 41.2656 23.1125 41.4142 23.5907 41.4142Z" fill="#4F4F4F"/>
<path d="M27.7484 45.7765V45.3887C28.1749 45.3887 28.5239 45.2336 28.7953 44.9234C29.0667 44.6261 29.2671 44.1931 29.3963 43.6244C29.5256 43.0557 29.5902 42.3836 29.5902 41.6081V35.3071C29.5902 34.7254 29.5062 34.2601 29.3382 33.9111C29.183 33.5492 28.8147 33.3683 28.233 33.3683H27.8453V32.9805H29.5902C30.0426 32.9805 30.3916 33.0387 30.6371 33.155C30.8956 33.2713 31.0766 33.4975 31.18 33.8336C31.2834 34.1696 31.3351 34.6608 31.3351 35.3071V41.6081C31.3351 42.5775 31.2317 43.3659 31.0249 43.9734C30.8181 44.5938 30.4562 45.0462 29.9392 45.3306C29.4222 45.6278 28.6919 45.7765 27.7484 45.7765ZM30.3269 31.8173C30.0296 31.8173 29.7711 31.6945 29.5514 31.4489C29.3446 31.2033 29.2412 30.9125 29.2412 30.5764C29.2412 30.305 29.3188 30.0918 29.4739 29.9366C29.6419 29.7815 29.8616 29.704 30.1331 29.704C30.4303 29.704 30.6824 29.8268 30.8892 30.0724C31.1089 30.3179 31.2188 30.6088 31.2188 30.9448C31.2188 31.2162 31.1348 31.4295 30.9667 31.5846C30.8116 31.7397 30.5984 31.8173 30.3269 31.8173Z" fill="#4F4F4F"/>
<path d="M37.0369 42.2867C36.1322 42.2867 35.376 42.0734 34.7685 41.6469C34.174 41.2203 33.7216 40.6452 33.4114 39.9214C33.1141 39.1975 32.9655 38.4026 32.9655 37.5367C32.9655 36.6577 33.1206 35.8628 33.4308 35.152C33.741 34.4281 34.1869 33.853 34.7685 33.4264C35.3502 32.9999 36.0417 32.7867 36.843 32.7867C37.722 32.7867 38.4458 32.9547 39.0145 33.2907C39.5961 33.6139 40.0226 34.0921 40.2941 34.7254C40.5784 35.3588 40.7206 36.1343 40.7206 37.052L40.6818 37.8275H34.8073C34.8073 38.8873 35.0335 39.7663 35.4859 40.4642C35.9512 41.1622 36.5975 41.5112 37.4247 41.5112C38.058 41.5112 38.5815 41.3754 38.9951 41.104C39.4216 40.8326 39.8029 40.4513 40.139 39.9601L40.5267 40.251C40.2424 40.7421 39.9192 41.1363 39.5573 41.4336C39.2084 41.7309 38.8206 41.9506 38.3941 42.0928C37.9805 42.222 37.5281 42.2867 37.0369 42.2867ZM34.8073 37.052H38.8788C38.8788 35.9275 38.7107 35.0679 38.3747 34.4734C38.0386 33.8659 37.5281 33.5622 36.843 33.5622C36.4553 33.5622 36.1063 33.7173 35.7961 34.0275C35.4988 34.3247 35.2597 34.7384 35.0788 35.2683C34.8978 35.7853 34.8073 36.3799 34.8073 37.052Z" fill="#4F4F4F"/>
<path d="M45.922 42.2867C45.0172 42.2867 44.2611 42.0734 43.6536 41.6469C43.0591 41.2203 42.6067 40.6452 42.2965 39.9214C41.9992 39.1975 41.8505 38.4026 41.8505 37.5367C41.8505 36.6577 42.0056 35.8628 42.3159 35.152C42.6261 34.4281 43.072 33.853 43.6536 33.4264C44.2352 32.9999 44.9267 32.7867 45.7281 32.7867C46.607 32.7867 47.3308 32.9547 47.8995 33.2907C48.4812 33.6139 48.9077 34.0921 49.1791 34.7254C49.4635 35.3588 49.6057 36.1343 49.6057 37.052L49.5669 37.8275H43.6924C43.6924 38.8873 43.9186 39.7663 44.371 40.4642C44.8363 41.1622 45.4825 41.5112 46.3097 41.5112C46.9431 41.5112 47.4665 41.3754 47.8801 41.104C48.3067 40.8326 48.688 40.4513 49.024 39.9601L49.4118 40.251C49.1274 40.7421 48.8043 41.1363 48.4424 41.4336C48.0934 41.7309 47.7057 41.9506 47.2791 42.0928C46.8655 42.222 46.4131 42.2867 45.922 42.2867ZM43.6924 37.052H47.7638C47.7638 35.9275 47.5958 35.0679 47.2597 34.4734C46.9237 33.8659 46.4131 33.5622 45.7281 33.5622C45.3403 33.5622 44.9914 33.7173 44.6812 34.0275C44.3839 34.3247 44.1448 34.7384 43.9638 35.2683C43.7829 35.7853 43.6924 36.3799 43.6924 37.052Z" fill="#4F4F4F"/>
<path d="M51.4142 42.0928V35.3071C51.4142 34.7254 51.3302 34.2601 51.1621 33.9111C51.007 33.5492 50.6387 33.3683 50.057 33.3683H49.8632V32.9805H51.4142C51.9053 32.9805 52.2737 33.0516 52.5193 33.1938C52.7778 33.336 52.9587 33.5557 53.0621 33.853C53.2819 33.6333 53.5985 33.4006 54.0121 33.155C54.4387 32.9094 54.9298 32.7867 55.4856 32.7867C55.6795 32.7867 55.8863 32.8125 56.106 32.8642C56.3257 32.903 56.5067 32.9741 56.6489 33.0775C56.7911 33.1809 56.9138 33.3037 57.0172 33.4458C57.1206 33.588 57.2241 33.756 57.3275 33.9499L56.5519 34.5316C56.4098 34.3377 56.1965 34.1955 55.9121 34.105C55.6407 34.0016 55.337 33.9499 55.0009 33.9499C54.6132 33.9499 54.2577 34.0404 53.9346 34.2213C53.6115 34.3894 53.353 34.622 53.1591 34.9193C53.1591 34.9839 53.1591 35.0809 53.1591 35.2101C53.1591 35.3265 53.1591 35.4234 53.1591 35.5009V42.0928H51.4142Z" fill="#4F4F4F"/>
<path d="M47.5966 20.49V19.1328H50.0007V20.49H47.5966ZM45.2313 24.9298C45.0633 24.9298 44.9146 24.9104 44.7854 24.8716C44.6561 24.8328 44.5398 24.7811 44.4364 24.7165C44.3459 24.6519 44.2684 24.5937 44.2038 24.542C44.7208 24.1026 45.0891 23.6372 45.3089 23.1461C45.5415 22.6549 45.6902 22.1702 45.7548 21.692C45.8194 21.2267 45.8517 20.826 45.8517 20.49V12.0369C45.8517 11.7138 45.9357 11.494 46.1038 11.3777C46.2718 11.2485 46.4786 11.1838 46.7242 11.1838C46.9697 11.1838 47.1765 11.2485 47.3446 11.3777C47.5126 11.494 47.5966 11.7138 47.5966 12.0369V20.49C47.5966 20.9423 47.5578 21.427 47.4803 21.944C47.4027 22.4611 47.2735 22.9458 47.0925 23.3981C46.9116 23.8505 46.666 24.2189 46.3558 24.5032C46.0585 24.7876 45.6837 24.9298 45.2313 24.9298ZM50.0007 20.49V19.1328C50.1558 19.1328 50.2592 19.191 50.3109 19.3073C50.3626 19.4236 50.3884 19.5917 50.3884 19.8114C50.3884 20.0182 50.3626 20.1862 50.3109 20.3155C50.2592 20.4318 50.1558 20.49 50.0007 20.49Z" fill="#4F4F4F"/>
<path d="M49.4256 20.49V19.1328H49.9103C50.3109 19.1328 50.6341 19.0165 50.8796 18.7838C51.1381 18.5512 51.3256 18.2604 51.4419 17.9114C51.5711 17.5624 51.6358 17.207 51.6358 16.8451V12.0369C51.6358 11.7138 51.7198 11.494 51.8878 11.3777C52.0558 11.2485 52.2626 11.1838 52.5082 11.1838C52.7538 11.1838 52.9606 11.2485 53.1286 11.3777C53.2967 11.494 53.3807 11.7138 53.3807 12.0369V16.8451C53.3807 17.543 53.232 18.1699 52.9347 18.7257C52.6375 19.2685 52.2303 19.7015 51.7133 20.0247C51.1963 20.3349 50.5953 20.49 49.9103 20.49H49.4256ZM55.1062 20.49C54.4341 20.49 53.8331 20.3349 53.3031 20.0247C52.7861 19.7015 52.379 19.2685 52.0817 18.7257C51.7844 18.1699 51.6358 17.543 51.6358 16.8451H53.3807C53.3807 17.207 53.4388 17.5624 53.5552 17.9114C53.6844 18.2604 53.8783 18.5512 54.1368 18.7838C54.3953 19.0165 54.7184 19.1328 55.1062 19.1328H66.6492V20.49H55.1062ZM66.6492 20.49V19.1328C66.8043 19.1328 66.9076 19.191 66.9593 19.3073C67.011 19.4236 67.0369 19.5917 67.0369 19.8114C67.0369 20.0182 67.011 20.1862 66.9593 20.3155C66.9076 20.4318 66.8043 20.49 66.6492 20.49ZM49.4256 20.49C49.2705 20.49 49.1671 20.4318 49.1154 20.3155C49.0637 20.1862 49.0378 20.0182 49.0378 19.8114C49.0378 19.5917 49.0637 19.4236 49.1154 19.3073C49.1671 19.191 49.2705 19.1328 49.4256 19.1328V20.49ZM53.9235 24.2706C53.6262 24.2706 53.3677 24.1607 53.148 23.941C52.9283 23.7213 52.8184 23.4628 52.8184 23.1655C52.8184 22.8553 52.9283 22.5903 53.148 22.3706C53.3677 22.1509 53.6262 22.041 53.9235 22.041C54.2337 22.041 54.4922 22.1509 54.699 22.3706C54.9188 22.5903 55.0286 22.8553 55.0286 23.1655C55.0286 23.4628 54.9188 23.7213 54.699 23.941C54.4922 24.1607 54.2337 24.2706 53.9235 24.2706ZM51.0929 24.2706C50.7956 24.2706 50.5371 24.1607 50.3174 23.941C50.0977 23.7213 49.9878 23.4628 49.9878 23.1655C49.9878 22.8553 50.0977 22.5903 50.3174 22.3706C50.5371 22.1509 50.7956 22.041 51.0929 22.041C51.4031 22.041 51.6616 22.1509 51.8684 22.3706C52.0881 22.5903 52.198 22.8553 52.198 23.1655C52.198 23.4628 52.0881 23.7213 51.8684 23.941C51.6616 24.1607 51.4031 24.2706 51.0929 24.2706Z" fill="#4F4F4F"/>
<path d="M55.2245 20.49V19.1328H71.9828C72.5127 19.1328 72.9328 18.926 73.243 18.5124C73.5532 18.0859 73.7083 17.3621 73.7083 16.341C73.7083 14.9192 73.3787 13.9304 72.7195 13.3746C72.0732 12.8189 71.1362 12.541 69.9083 12.541C69.6498 12.541 69.4171 12.5474 69.2103 12.5604C69.0035 12.5733 68.8161 12.5927 68.6481 12.6185C68.48 12.6314 68.3185 12.6379 68.1634 12.6379C67.8532 12.6379 67.6011 12.5927 67.4072 12.5022C67.2134 12.4117 67.0647 12.2825 66.9613 12.1144C66.8708 11.9335 66.7998 11.7331 66.7481 11.5134C66.7222 11.3712 66.6964 11.2291 66.6705 11.0869C66.6576 10.9318 66.6576 10.8284 66.6705 10.7767C66.7998 10.8672 66.9743 10.9706 67.194 11.0869C67.4137 11.2032 67.711 11.2614 68.0858 11.2614C68.2151 11.2614 68.3637 11.2549 68.5317 11.242C68.7127 11.2291 68.913 11.2161 69.1328 11.2032C69.3525 11.1903 69.5916 11.1838 69.8501 11.1838C70.8453 11.1838 71.6984 11.3066 72.4093 11.5522C73.1202 11.7848 73.6953 12.1274 74.1348 12.5797C74.5872 13.0321 74.9168 13.575 75.1236 14.2083C75.3433 14.8417 75.4532 15.5461 75.4532 16.3216C75.4532 17.3556 75.2916 18.1828 74.9685 18.8032C74.6453 19.4107 74.2188 19.8437 73.6889 20.1022C73.1719 20.3607 72.6032 20.49 71.9828 20.49H55.2245ZM55.2245 20.49C55.0694 20.49 54.966 20.4318 54.9143 20.3155C54.8626 20.1862 54.8367 20.0182 54.8367 19.8114C54.8367 19.5917 54.8626 19.4236 54.9143 19.3073C54.966 19.191 55.0694 19.1328 55.2245 19.1328V20.49ZM70.1797 24.2706C69.8566 24.2706 69.5851 24.1607 69.3654 23.941C69.1457 23.7213 69.0358 23.4628 69.0358 23.1655C69.0358 22.8553 69.1457 22.5903 69.3654 22.3706C69.5851 22.1509 69.8566 22.041 70.1797 22.041C70.477 22.041 70.7355 22.1509 70.9552 22.3706C71.1749 22.5903 71.2848 22.8553 71.2848 23.1655C71.2848 23.4628 71.1749 23.7213 70.9552 23.941C70.7355 24.1607 70.477 24.2706 70.1797 24.2706Z" fill="#4F4F4F"/>
<path d="M81.3505 20.49C80.6784 20.49 80.0774 20.3349 79.5475 20.0247C79.0305 19.7015 78.6233 19.2685 78.326 18.7257C78.0288 18.1699 77.8801 17.543 77.8801 16.8451V10.5634C77.8801 10.1627 77.822 9.80083 77.7056 9.4777C77.6022 9.15457 77.4665 8.88314 77.2985 8.66341C77.1305 8.44368 76.9689 8.28212 76.8138 8.17872C76.8655 8.11409 76.9495 8.043 77.0658 7.96545C77.1951 7.8879 77.3502 7.82328 77.5311 7.77158C77.7121 7.71987 77.8995 7.69402 78.0934 7.69402C78.339 7.69402 78.5781 7.75865 78.8107 7.8879C79.0434 8.00423 79.2373 8.21749 79.3924 8.5277C79.5475 8.8379 79.625 9.27736 79.625 9.84607V16.8451C79.625 17.207 79.6832 17.5624 79.7995 17.9114C79.9288 18.2604 80.1226 18.5512 80.3811 18.7838C80.6397 19.0165 80.9628 19.1328 81.3505 19.1328H87.3099V20.49H81.3505ZM87.3099 20.49V19.1328C87.465 19.1328 87.5684 19.191 87.6201 19.3073C87.6718 19.4236 87.6976 19.5917 87.6976 19.8114C87.6976 20.0182 87.6718 20.1862 87.6201 20.3155C87.5684 20.4318 87.465 20.49 87.3099 20.49Z" fill="#4F4F4F"/>
<path d="M81.3783 20.49V19.1328H88.0356C88.4492 19.1328 88.7917 19.0359 89.0631 18.842C89.3345 18.6481 89.5414 18.4025 89.6835 18.1053C89.8386 17.808 89.9485 17.4978 90.0131 17.1747C90.0907 16.8515 90.1359 16.5607 90.1488 16.3022C90.1618 16.0308 90.1682 15.8369 90.1682 15.7206C90.1682 15.3716 90.1359 14.958 90.0713 14.4798C90.0067 14.0015 89.858 13.5039 89.6254 12.9869C89.4056 12.4699 89.0373 11.9981 88.5203 11.5716C88.5849 11.507 88.6624 11.4488 88.7529 11.3971C88.8563 11.3325 88.9726 11.2808 89.1019 11.242C89.2311 11.2032 89.3798 11.1838 89.5478 11.1838C90.0002 11.1838 90.375 11.3325 90.6723 11.6297C90.9825 11.927 91.2281 12.3148 91.409 12.793C91.59 13.2583 91.7192 13.7559 91.7968 14.2859C91.8744 14.8158 91.9131 15.307 91.9131 15.7593C91.9131 17.2457 91.5706 18.409 90.8856 19.2491C90.2005 20.0764 89.2505 20.49 88.0356 20.49H81.3783ZM81.3783 20.49C81.2232 20.49 81.1197 20.4318 81.068 20.3155C81.0163 20.1862 80.9905 20.0182 80.9905 19.8114C80.9905 19.5917 81.0163 19.4236 81.068 19.3073C81.1197 19.191 81.2232 19.1328 81.3783 19.1328V20.49ZM91.0213 9.92362C90.724 9.92362 90.4655 9.81376 90.2458 9.59403C90.026 9.3743 89.9162 9.1158 89.9162 8.81852C89.9162 8.50831 90.026 8.24334 90.2458 8.02362C90.4655 7.80389 90.724 7.69402 91.0213 7.69402C91.3315 7.69402 91.59 7.80389 91.7968 8.02362C92.0165 8.24334 92.1264 8.50831 92.1264 8.81852C92.1264 9.1158 92.0165 9.3743 91.7968 9.59403C91.59 9.81376 91.3315 9.92362 91.0213 9.92362ZM88.1907 9.92362C87.8934 9.92362 87.6349 9.81376 87.4152 9.59403C87.1954 9.3743 87.0856 9.1158 87.0856 8.81852C87.0856 8.50831 87.1954 8.24334 87.4152 8.02362C87.6349 7.80389 87.8934 7.69402 88.1907 7.69402C88.5009 7.69402 88.7594 7.80389 88.9662 8.02362C89.1859 8.24334 89.2958 8.50831 89.2958 8.81852C89.2958 9.1158 89.1859 9.3743 88.9662 9.59403C88.7594 9.81376 88.5009 9.92362 88.1907 9.92362Z" fill="#4F4F4F"/>
<path d="M76.1219 7.207C76.0041 7.03949 75.9637 6.8937 76.001 6.76961C76.0382 6.63933 76.1157 6.54006 76.2336 6.47182C76.3577 6.40357 76.4911 6.37876 76.6338 6.39737C76.7765 6.40978 76.8974 6.48112 76.9967 6.61141L76.8943 6.52765C76.8075 6.47802 76.7051 6.38186 76.5872 6.23916C76.4756 6.09027 76.3763 5.91035 76.2894 5.69941C76.2088 5.48227 76.1685 5.24961 76.1685 5.00145C76.1685 4.7781 76.2088 4.57026 76.2894 4.37794C76.3763 4.18561 76.4973 4.0181 76.6524 3.87541C76.8075 3.73271 76.9998 3.62414 77.2293 3.54969C77.4589 3.46904 77.7164 3.42871 78.0018 3.42871C78.3182 3.42871 78.5477 3.46904 78.6904 3.54969C78.8393 3.63034 78.9324 3.72651 78.9696 3.83818C79.013 3.94365 79.0347 4.03361 79.0347 4.10806C79.0347 4.29418 78.9882 4.43067 78.8952 4.51753C78.8021 4.59818 78.6966 4.64161 78.5787 4.64782C78.4671 4.65402 78.3833 4.6323 78.3275 4.58267C78.3337 4.41516 78.2903 4.27867 78.1972 4.1732C78.1103 4.06153 78.0049 3.98088 77.8808 3.93124C77.7567 3.87541 77.6419 3.84749 77.5365 3.84749H77.704C77.6109 3.84749 77.5085 3.88471 77.3969 3.95916C77.2914 4.03361 77.1983 4.14839 77.1177 4.30349C77.037 4.45859 76.9967 4.66643 76.9967 4.927C76.9967 5.27443 77.0711 5.5412 77.22 5.72733C77.3751 5.90725 77.5675 6.02823 77.797 6.09027C78.0266 6.15231 78.2499 6.18333 78.4671 6.18333C78.6098 6.18333 78.7369 6.17712 78.8486 6.16472C78.9603 6.1461 79.0409 6.13059 79.0906 6.11819C79.2209 6.11819 79.3108 6.14921 79.3605 6.21125C79.4163 6.27329 79.4442 6.34463 79.4442 6.42529C79.4504 6.49974 79.4349 6.56798 79.3977 6.63002C79.3667 6.69206 79.3263 6.72308 79.2767 6.72308C79.0658 6.7417 78.8424 6.76341 78.6067 6.78823C78.3771 6.81304 78.1476 6.84096 77.918 6.87198C77.6947 6.8968 77.4806 6.92472 77.2759 6.95574C77.0711 6.98676 76.885 7.01778 76.7175 7.0488C76.55 7.07362 76.4135 7.09843 76.3081 7.12325C76.2088 7.15427 76.1467 7.18219 76.1219 7.207Z" fill="#4F4F4F"/>
<path d="M53.148 23.941C53.3677 24.1607 53.6262 24.2706 53.9235 24.2706C54.2337 24.2706 54.4922 24.1607 54.699 23.941C54.9188 23.7213 55.0286 23.4628 55.0286 23.1655C55.0286 22.8553 54.9188 22.5903 54.699 22.3706C54.4922 22.1509 54.2337 22.041 53.9235 22.041C53.6262 22.041 53.3677 22.1509 53.148 22.3706C52.9283 22.5903 52.8184 22.8553 52.8184 23.1655C52.8184 23.4628 52.9283 23.7213 53.148 23.941Z" fill="#4F4F4F"/>
<path d="M61.4882 42.0877V31.6396C61.4882 31.0591 61.4043 30.5948 61.2366 30.2465C61.0818 29.8853 60.7142 29.7047 60.1338 29.7047H59.7468V29.3178H64.7774C65.1127 29.3178 65.4868 29.3436 65.8996 29.3952C66.3252 29.4339 66.7509 29.5306 67.1766 29.6854C67.6151 29.8273 68.015 30.0401 68.3762 30.3239C68.7502 30.6077 69.0469 30.9817 69.2662 31.4461C69.4984 31.9104 69.6145 32.4909 69.6145 33.1874C69.6145 33.8453 69.5048 34.3999 69.2855 34.8514C69.0663 35.29 68.776 35.6447 68.4149 35.9156C68.0666 36.1864 67.699 36.3928 67.312 36.5347C66.925 36.6637 66.5574 36.754 66.2091 36.8056C65.8609 36.8443 65.5771 36.8636 65.3578 36.8636H63.2295V42.0877H61.4882ZM63.2295 36.1864H64.6806C64.9515 36.1864 65.2546 36.1348 65.59 36.0316C65.9254 35.9285 66.2543 35.7543 66.5768 35.5092C66.8992 35.2642 67.1637 34.9481 67.3701 34.5612C67.5764 34.1613 67.6796 33.6711 67.6796 33.0907C67.6796 32.5102 67.5764 32.0265 67.3701 31.6396C67.1637 31.2397 66.8992 30.9172 66.5768 30.6721C66.2543 30.4271 65.9254 30.2529 65.59 30.1497C65.2546 30.0466 64.9515 29.995 64.6806 29.995C64.4356 29.995 64.1776 30.0143 63.9067 30.053C63.6487 30.0917 63.423 30.1368 63.2295 30.1884V36.1864Z" fill="#005F8E"/>
<path d="M71.5833 42.0877V31.6396C71.5833 31.0591 71.4995 30.5948 71.3318 30.2465C71.177 29.8853 70.8094 29.7047 70.2289 29.7047H69.842V29.3178H71.5833C72.0348 29.3178 72.383 29.3758 72.6281 29.4919C72.8861 29.608 73.0667 29.8337 73.1699 30.1691C73.2731 30.5045 73.3247 30.9946 73.3247 31.6396V42.0877H71.5833Z" fill="#005F8E"/>
<path d="M79.5004 42.2812C78.9587 42.2812 78.4363 42.1844 77.9332 41.9909C77.4301 41.7974 77.0174 41.4492 76.6949 40.9461C76.3724 40.4431 76.2112 39.7272 76.2112 38.7985V35.3158C76.2112 34.7353 76.1274 34.2709 75.9597 33.9227C75.8049 33.5615 75.4373 33.3809 74.8568 33.3809H74.6633V32.9939H76.2112C76.6627 32.9939 77.0109 33.052 77.256 33.1681C77.514 33.2842 77.6946 33.5099 77.7978 33.8453C77.901 34.1806 77.9525 34.6708 77.9525 35.3158V38.7985C77.9525 39.4434 78.0557 39.9594 78.2621 40.3463C78.4685 40.7204 78.7329 40.9913 79.0554 41.159C79.3908 41.3266 79.7326 41.4105 80.0809 41.4105C80.3389 41.4105 80.5839 41.3653 80.8161 41.275C81.0483 41.1719 81.2676 41.0429 81.474 40.8881C81.6803 40.7333 81.8609 40.5656 82.0157 40.385V32.9939H83.7571V42.0877H82.7896L82.1124 41.3137H82.0157C81.7706 41.5588 81.4353 41.7846 81.0096 41.9909C80.5839 42.1844 80.0809 42.2812 79.5004 42.2812Z" fill="#005F8E"/>
<path d="M89.5839 42.2812C88.81 42.2812 88.1779 42.2167 87.6878 42.0877C87.1976 41.9458 86.83 41.7523 86.5849 41.5072C86.3399 41.2621 86.198 40.9848 86.1593 40.6752C86.1206 40.3657 86.1012 39.9658 86.1012 39.4756H86.4882C86.5914 40.1077 86.8623 40.6043 87.3008 40.9655C87.7394 41.3266 88.3714 41.5072 89.197 41.5072C89.9322 41.5072 90.4675 41.3782 90.8029 41.1203C91.1511 40.8623 91.3253 40.5398 91.3253 40.1528C91.3253 39.7659 91.1769 39.4434 90.8803 39.1854C90.5965 38.9145 90.1644 38.6566 89.5839 38.4115L88.423 37.9278C87.6878 37.6311 87.1138 37.2828 86.701 36.883C86.3012 36.4702 86.1012 35.9478 86.1012 35.3158C86.1012 34.5031 86.4043 33.884 87.0106 33.4583C87.6168 33.0197 88.3779 32.8005 89.2937 32.8005C90.0289 32.8005 90.6352 32.8714 91.1125 33.0133C91.5897 33.1423 91.9509 33.3293 92.196 33.5744C92.441 33.8195 92.5829 34.0968 92.6216 34.4064C92.6603 34.716 92.6797 35.1158 92.6797 35.606H92.2927C92.1895 34.9739 91.9186 34.4773 91.4801 34.1162C91.0544 33.755 90.4546 33.5744 89.6807 33.5744C89.0486 33.5744 88.5649 33.7034 88.2295 33.9614C87.9071 34.2193 87.7458 34.5418 87.7458 34.9288C87.7458 35.2642 87.8813 35.5737 88.1521 35.8575C88.423 36.1284 88.8035 36.367 89.2937 36.5734L90.4546 37.0571C91.2801 37.3925 91.9057 37.7601 92.3314 38.16C92.7571 38.5598 92.9699 39.0951 92.9699 39.7659C92.9699 40.5785 92.6474 41.2041 92.0025 41.6427C91.3575 42.0683 90.5513 42.2812 89.5839 42.2812Z" fill="#005F8E"/>
<path d="M9.11214 25.4991C7.89262 25.4991 6.85473 25.2915 5.99847 24.8763C5.15518 24.4612 4.51299 23.8903 4.07188 23.1638C3.64375 22.4503 3.42969 21.6524 3.42969 20.7702C3.42969 20.4458 3.46212 20.0437 3.52699 19.5636C3.60483 19.0706 3.72808 18.5841 3.89674 18.1041C4.07837 17.6111 4.31838 17.2024 4.61677 16.8781C4.92814 16.5408 5.32384 16.3721 5.80386 16.3721C5.97252 16.3721 6.12172 16.3916 6.25145 16.4305C6.38119 16.4694 6.49146 16.5213 6.58228 16.5862C6.68607 16.6381 6.7704 16.6965 6.83527 16.7613C6.36821 17.1505 6.01793 17.5852 5.7844 18.0652C5.55088 18.5452 5.38871 19.0123 5.29789 19.4663C5.22005 19.9074 5.18113 20.2966 5.18113 20.634C5.18113 21.8665 5.5379 22.7551 6.25145 23.3C6.97797 23.8579 7.92505 24.1368 9.09268 24.1368C10.2344 24.1368 11.0582 23.8709 11.5642 23.339C12.0831 22.82 12.3426 21.9508 12.3426 20.7313V13.1417C12.3426 12.8173 12.4269 12.5968 12.5956 12.48C12.7642 12.3503 12.9718 12.2854 13.2183 12.2854C13.4648 12.2854 13.6724 12.3503 13.841 12.48C14.0097 12.5968 14.094 12.8173 14.094 13.1417V20.7313C14.094 22.1843 13.6983 23.339 12.9069 24.1952C12.1155 25.0645 10.8506 25.4991 9.11214 25.4991ZM15.826 20.5561C15.1514 20.5561 14.5481 20.4004 14.0162 20.0891C13.4972 19.7647 13.0886 19.3301 12.7902 18.7852C12.4918 18.2274 12.3426 17.5981 12.3426 16.8976H14.094C14.094 17.2608 14.1524 17.6176 14.2692 17.9679C14.3989 18.3182 14.5935 18.6101 14.853 18.8436C15.1124 19.0771 15.4368 19.1939 15.826 19.1939H16.0984V20.5561H15.826ZM21.6252 20.5561C20.9506 20.5561 20.3473 20.4004 19.8154 20.0891C19.2964 19.7647 18.8878 19.3301 18.5894 18.7852C18.291 18.2274 18.1418 17.5981 18.1418 16.8976H19.8932C19.8932 17.2608 19.9516 17.6176 20.0684 17.9679C20.1981 18.3182 20.3927 18.6101 20.6522 18.8436C20.9117 19.0771 21.236 19.1939 21.6252 19.1939H22.0923V20.5561H21.6252ZM16.0984 20.5561V19.1939H16.4098C16.812 19.1939 17.1363 19.0771 17.3828 18.8436C17.6423 18.6101 17.8304 18.3182 17.9472 17.9679C18.0769 17.6176 18.1418 17.2608 18.1418 16.8976V12.6746C18.1418 12.3503 18.2261 12.1297 18.3948 12.013C18.5634 11.8832 18.771 11.8184 19.0175 11.8184C19.264 11.8184 19.4716 11.8832 19.6402 12.013C19.8089 12.1297 19.8932 12.3503 19.8932 12.6746V16.8976C19.8932 17.5981 19.744 18.2274 19.4456 18.7852C19.1472 19.3301 18.7386 19.7647 18.2196 20.0891C17.7007 20.4004 17.0974 20.5561 16.4098 20.5561H16.0984ZM27.4244 20.5561C26.7498 20.5561 26.1465 20.4004 25.6146 20.0891C25.0956 19.7647 24.687 19.3301 24.3886 18.7852C24.0902 18.2274 23.941 17.5981 23.941 16.8976H25.6924C25.6924 17.2608 25.7508 17.6176 25.8676 17.9679C25.9973 18.3182 26.1919 18.6101 26.4514 18.8436C26.7109 19.0771 27.0352 19.1939 27.4244 19.1939H28.125V20.5561H27.4244ZM22.0923 20.5561V19.1939H22.209C22.6112 19.1939 22.9355 19.0771 23.182 18.8436C23.4415 18.6101 23.6296 18.3182 23.7464 17.9679C23.8761 17.6176 23.941 17.2608 23.941 16.8976V12.0714C23.941 11.747 24.0253 11.5265 24.194 11.4097C24.3626 11.28 24.5702 11.2151 24.8167 11.2151C25.0632 11.2151 25.2708 11.28 25.4394 11.4097C25.6081 11.5265 25.6924 11.747 25.6924 12.0714V16.8976C25.6924 17.5981 25.5432 18.2274 25.2448 18.7852C24.9465 19.3301 24.5378 19.7647 24.0188 20.0891C23.4999 20.4004 22.8966 20.5561 22.209 20.5561H22.0923ZM28.125 20.5561V19.1939C28.2807 19.1939 28.3845 19.2523 28.4364 19.369C28.4883 19.4858 28.5142 19.6544 28.5142 19.875C28.5142 20.0826 28.4883 20.2512 28.4364 20.381C28.3845 20.4977 28.2807 20.5561 28.125 20.5561Z" fill="#005F8E"/>
<path d="M33.8266 20.5561C33.152 20.5561 32.5487 20.4004 32.0168 20.0891C31.4978 19.7647 31.0892 19.3301 30.7908 18.7852C30.4924 18.2274 30.3432 17.5981 30.3432 16.8976H32.0946C32.0946 17.2608 32.153 17.6176 32.2698 17.9679C32.3995 18.3182 32.5941 18.6101 32.8536 18.8436C33.113 19.0771 33.4374 19.1939 33.8266 19.1939H34.5272V20.5561H33.8266ZM28.125 20.5561V19.1939H28.6112C29.0134 19.1939 29.3377 19.0771 29.5842 18.8436C29.8437 18.6101 30.0318 18.3182 30.1486 17.9679C30.2783 17.6176 30.3432 17.2608 30.3432 16.8976V10.5924C30.3432 10.1902 30.2848 9.82692 30.168 9.50258C30.0642 9.17824 29.928 8.9058 29.7594 8.68525C29.5907 8.46469 29.4285 8.30252 29.2729 8.19873C29.3247 8.13387 29.4091 8.06251 29.5258 7.98467C29.6556 7.90683 29.8048 7.84196 29.9734 7.79007C30.1551 7.73817 30.3432 7.71222 30.5378 7.71222C30.7843 7.71222 31.0243 7.77709 31.2578 7.90683C31.5043 8.02359 31.7054 8.23766 31.8611 8.54902C32.0168 8.86039 32.0946 9.30149 32.0946 9.87233V16.8976C32.0946 17.5981 31.9454 18.2274 31.647 18.7852C31.3486 19.3301 30.94 19.7647 30.421 20.0891C29.9021 20.4004 29.2988 20.5561 28.6112 20.5561H28.125ZM28.125 20.5561C27.9693 20.5561 27.8652 20.4977 27.8133 20.381C27.7614 20.2512 27.7355 20.0826 27.7355 19.875C27.7355 19.6544 27.7614 19.4858 27.8133 19.369C27.8652 19.2523 27.9693 19.1939 28.125 19.1939V20.5561ZM34.5272 20.5561V19.1939C34.6829 19.1939 34.7866 19.2523 34.8385 19.369C34.8904 19.4858 34.9164 19.6544 34.9164 19.875C34.9164 20.0826 34.8904 20.2512 34.8385 20.381C34.7866 20.4977 34.6829 20.5561 34.5272 20.5561Z" fill="#005F8E"/>
<path d="M34.5291 20.5561V19.1939H35.833C36.2482 19.1939 36.592 19.0966 36.8644 18.902C37.1368 18.7074 37.3444 18.4609 37.4871 18.1625C37.6428 17.8641 37.7531 17.5527 37.818 17.2284C37.8958 16.904 37.9412 16.6121 37.9542 16.3527C37.9672 16.0802 37.9736 15.8856 37.9736 15.7688C37.9736 15.4186 37.9412 15.0034 37.8763 14.5234C37.8115 14.0434 37.6623 13.5439 37.4288 13.0249C37.2082 12.506 36.8385 12.0324 36.3195 11.6043C36.3844 11.5394 36.4622 11.4811 36.553 11.4292C36.6568 11.3643 36.7736 11.3124 36.9033 11.2735C37.0331 11.2346 37.1823 11.2151 37.3509 11.2151C37.805 11.2151 38.1812 11.3643 38.4796 11.6627C38.791 11.9611 39.0375 12.3503 39.2191 12.8303C39.4007 13.2974 39.5305 13.7969 39.6083 14.3288C39.6862 14.8607 39.7251 15.3537 39.7251 15.8078C39.7251 17.2997 39.3813 18.4674 38.6937 19.3106C38.0061 20.141 37.0525 20.5561 35.833 20.5561H34.5291ZM34.5291 20.5561C34.3735 20.5561 34.2697 20.4977 34.2178 20.381C34.1659 20.2512 34.1399 20.0826 34.1399 19.875C34.1399 19.6544 34.1659 19.4858 34.2178 19.369C34.2697 19.2523 34.3735 19.1939 34.5291 19.1939V20.5561ZM37.4093 24.3509C37.085 24.3509 36.8125 24.2406 36.592 24.0201C36.3714 23.7995 36.2611 23.5401 36.2611 23.2417C36.2611 22.9303 36.3714 22.6643 36.592 22.4438C36.8125 22.2232 37.085 22.113 37.4093 22.113C37.7077 22.113 37.9672 22.2232 38.1877 22.4438C38.4083 22.6643 38.5185 22.9303 38.5185 23.2417C38.5185 23.5401 38.4083 23.7995 38.1877 24.0201C37.9672 24.2406 37.7077 24.3509 37.4093 24.3509Z" fill="#005F8E"/>
</svg>
