<svg width="142" height="72" viewBox="0 0 142 72" fill="none" xmlns="http://www.w3.org/2000/svg">
<path d="M22.3385 61.5934V44.0043H19.7852C18.6505 44.0043 17.771 44.2691 17.1469 44.7986C16.5416 45.3093 16.239 46.132 16.239 47.2668H15.6716V45.1391C15.6716 44.7608 15.7378 44.4015 15.8702 44.061C16.0026 43.7017 16.239 43.418 16.5795 43.2099C16.9388 42.983 17.44 42.8695 18.0831 42.8695H31.2749V44.0043H24.8918V61.5934H22.3385Z" fill="white"/>
<path d="M33.7127 61.8771C33.3155 61.8771 32.8805 61.8109 32.4077 61.6785C31.9538 61.565 31.5093 61.357 31.0743 61.0544C30.6393 60.7518 30.28 60.3451 29.9963 59.8345C29.7315 59.3238 29.5991 58.6808 29.5991 57.9054C29.5991 56.8651 29.9301 56.0613 30.592 55.494C31.2729 54.9266 32.1618 54.5294 33.2588 54.3024C34.3746 54.0566 35.5662 53.9336 36.8333 53.9336H37.6844C37.6844 52.6097 37.552 51.6073 37.2872 50.9264C37.0225 50.2267 36.6631 49.7538 36.2092 49.508C35.7742 49.2432 35.273 49.1108 34.7056 49.1108C33.9113 49.1108 33.2399 49.281 32.6914 49.6215C32.1618 49.9619 31.793 50.5955 31.585 51.5222H30.3083C30.3083 51.0305 30.3367 50.5766 30.3934 50.1605C30.4502 49.7255 30.6582 49.3283 31.0176 48.969C31.3769 48.6096 31.9632 48.3543 32.7765 48.203C33.5898 48.0517 34.4219 47.976 35.273 47.976C35.9161 47.976 36.5307 48.0517 37.117 48.203C37.7223 48.3543 38.2518 48.638 38.7057 49.0541C39.1785 49.4512 39.5474 50.047 39.8121 50.8413C40.0958 51.6168 40.2377 52.6475 40.2377 53.9336V61.5934H38.8192L37.8263 60.3168H37.6844C37.4007 60.6761 36.9374 61.026 36.2943 61.3664C35.6513 61.7069 34.7907 61.8771 33.7127 61.8771ZM34.9893 60.6005C35.6891 60.6005 36.2376 60.4302 36.6348 60.0898C37.0508 59.7305 37.4007 59.3333 37.6844 58.8983V55.0684H36.8333C35.4149 55.0684 34.299 55.3332 33.4857 55.8628C32.6914 56.3734 32.2942 57.0543 32.2942 57.9054C32.2942 58.8321 32.5685 59.513 33.1169 59.948C33.6654 60.383 34.2895 60.6005 34.9893 60.6005Z" fill="white"/>
<path d="M41.073 66.9836V66.4162C41.6972 66.4162 42.2078 66.1893 42.605 65.7354C43.0022 65.3004 43.2953 64.6668 43.4844 63.8346C43.6736 63.0024 43.7681 62.0189 43.7681 60.8842V51.6641C43.7681 50.813 43.6452 50.1321 43.3993 49.6215C43.1724 49.0919 42.6334 48.8271 41.7823 48.8271H41.2149V48.2597H43.7681C44.4301 48.2597 44.9407 48.3448 45.3001 48.515C45.6784 48.6853 45.9431 49.0162 46.0944 49.508C46.2457 49.9997 46.3214 50.7184 46.3214 51.6641V60.8842C46.3214 62.3026 46.1701 63.4563 45.8675 64.3452C45.5649 65.2531 45.0353 65.915 44.2788 66.3311C43.5223 66.7661 42.4537 66.9836 41.073 66.9836ZM44.8462 46.5575C44.4112 46.5575 44.0329 46.3779 43.7114 46.0185C43.4088 45.6592 43.2575 45.2336 43.2575 44.7419C43.2575 44.3447 43.371 44.0327 43.5979 43.8057C43.8438 43.5787 44.1653 43.4653 44.5625 43.4653C44.9975 43.4653 45.3663 43.6449 45.6689 44.0043C45.9904 44.3636 46.1512 44.7892 46.1512 45.2809C46.1512 45.6781 46.0282 45.9902 45.7824 46.2171C45.5554 46.4441 45.2434 46.5575 44.8462 46.5575Z" fill="white"/>
<path d="M54.6647 61.8771C53.3408 61.8771 52.2344 61.565 51.3455 60.9409C50.4755 60.3168 49.8135 59.4751 49.3596 58.416C48.9246 57.3569 48.7071 56.1937 48.7071 54.9266C48.7071 53.6405 48.9341 52.4773 49.388 51.4371C49.8419 50.378 50.4944 49.5363 51.3455 48.9122C52.1966 48.2881 53.2084 47.976 54.381 47.976C55.6671 47.976 56.7262 48.2219 57.5584 48.7136C58.4095 49.1865 59.0336 49.8862 59.4308 50.813C59.8469 51.7397 60.0549 52.8745 60.0549 54.2173L59.9982 55.3521H51.4022C51.4022 56.903 51.7332 58.1891 52.3951 59.2104C53.076 60.2317 54.0217 60.7423 55.2321 60.7423C56.1588 60.7423 56.9248 60.5437 57.53 60.1465C58.1542 59.7494 58.7121 59.1914 59.2038 58.4728L59.7712 58.8983C59.3551 59.617 58.8823 60.1938 58.3527 60.6288C57.8421 61.0638 57.2747 61.3853 56.6506 61.5934C56.0454 61.7825 55.3834 61.8771 54.6647 61.8771ZM51.4022 54.2173H57.3598C57.3598 52.5719 57.1139 51.3142 56.6222 50.4442C56.1305 49.5553 55.3834 49.1108 54.381 49.1108C53.8136 49.1108 53.303 49.3378 52.8491 49.7917C52.4141 50.2267 52.0642 50.8319 51.7994 51.6073C51.5346 52.3638 51.4022 53.2338 51.4022 54.2173Z" fill="white"/>
<path d="M67.6659 61.8771C66.342 61.8771 65.2356 61.565 64.3467 60.9409C63.4767 60.3168 62.8147 59.4751 62.3608 58.416C61.9258 57.3569 61.7083 56.1937 61.7083 54.9266C61.7083 53.6405 61.9353 52.4773 62.3892 51.4371C62.8431 50.378 63.4956 49.5363 64.3467 48.9122C65.1978 48.2881 66.2096 47.976 67.3822 47.976C68.6683 47.976 69.7275 48.2219 70.5596 48.7136C71.4107 49.1865 72.0348 49.8862 72.432 50.813C72.8481 51.7397 73.0562 52.8745 73.0562 54.2173L72.9994 55.3521H64.4034C64.4034 56.903 64.7344 58.1891 65.3964 59.2104C66.0772 60.2317 67.0229 60.7423 68.2333 60.7423C69.1601 60.7423 69.926 60.5437 70.5313 60.1465C71.1554 59.7494 71.7133 59.1914 72.2051 58.4728L72.7725 58.8983C72.3564 59.617 71.8835 60.1938 71.354 60.6288C70.8433 61.0638 70.2759 61.3853 69.6518 61.5934C69.0466 61.7825 68.3846 61.8771 67.6659 61.8771ZM64.4034 54.2173H70.361C70.361 52.5719 70.1152 51.3142 69.6234 50.4442C69.1317 49.5553 68.3846 49.1108 67.3822 49.1108C66.8148 49.1108 66.3042 49.3378 65.8503 49.7917C65.4153 50.2267 65.0654 50.8319 64.8006 51.6073C64.5358 52.3638 64.4034 53.2338 64.4034 54.2173Z" fill="white"/>
<path d="M75.7025 61.5934V51.6641C75.7025 50.813 75.5796 50.1321 75.3337 49.6215C75.1067 49.0919 74.5677 48.8271 73.7166 48.8271H73.4329V48.2597H75.7025C76.4212 48.2597 76.9602 48.3637 77.3196 48.5718C77.6978 48.7798 77.9626 49.1013 78.1139 49.5363C78.4354 49.2148 78.8988 48.8744 79.504 48.515C80.1281 48.1557 80.8468 47.976 81.6601 47.976C81.9438 47.976 82.2464 48.0138 82.5679 48.0895C82.8894 48.1462 83.1542 48.2503 83.3623 48.4016C83.5703 48.5529 83.75 48.7325 83.9013 48.9406C84.0526 49.1486 84.2039 49.3945 84.3552 49.6782L83.2204 50.5293C83.0124 50.2456 82.7003 50.0375 82.2842 49.9052C81.8871 49.7538 81.4426 49.6782 80.9509 49.6782C80.3835 49.6782 79.8634 49.8106 79.3905 50.0754C78.9177 50.3212 78.5395 50.6617 78.2558 51.0967C78.2558 51.1912 78.2558 51.3331 78.2558 51.5222C78.2558 51.6924 78.2558 51.8343 78.2558 51.9478V61.5934H75.7025Z" fill="white"/>
<path d="M70.1164 29.9827V27.9968H73.6342V29.9827H70.1164ZM66.6553 36.4793C66.4094 36.4793 66.1919 36.4509 66.0028 36.3942C65.8137 36.3374 65.6435 36.2618 65.4921 36.1672C65.3598 36.0727 65.2463 35.9875 65.1517 35.9119C65.9082 35.2689 66.4473 34.588 66.7688 33.8693C67.1092 33.1506 67.3267 32.4414 67.4213 31.7416C67.5158 31.0607 67.5631 30.4744 67.5631 29.9827V17.6135C67.5631 17.1407 67.6861 16.8192 67.9319 16.649C68.1778 16.4598 68.4804 16.3653 68.8398 16.3653C69.1991 16.3653 69.5017 16.4598 69.7476 16.649C69.9934 16.8192 70.1164 17.1407 70.1164 17.6135V29.9827C70.1164 30.6446 70.0596 31.3539 69.9462 32.1104C69.8327 32.8669 69.6436 33.5761 69.3788 34.2381C69.114 34.9 68.7546 35.4391 68.3007 35.8552C67.8657 36.2712 67.3173 36.4793 66.6553 36.4793ZM73.6342 29.9827V27.9968C73.8611 27.9968 74.0124 28.0819 74.0881 28.2521C74.1638 28.4223 74.2016 28.6682 74.2016 28.9897C74.2016 29.2923 74.1638 29.5382 74.0881 29.7273C74.0124 29.8975 73.8611 29.9827 73.6342 29.9827Z" fill="white"/>
<path d="M72.7926 29.9827V27.9968H73.5019C74.0882 27.9968 74.561 27.8266 74.9203 27.4861C75.2986 27.1457 75.5728 26.7202 75.7431 26.2095C75.9322 25.6989 76.0268 25.1788 76.0268 24.6492V17.6135C76.0268 17.1407 76.1497 16.8192 76.3956 16.649C76.6414 16.4598 76.944 16.3653 77.3034 16.3653C77.6627 16.3653 77.9653 16.4598 78.2112 16.649C78.4571 16.8192 78.58 17.1407 78.58 17.6135V24.6492C78.58 25.6705 78.3625 26.5878 77.9275 27.401C77.4925 28.1954 76.8968 28.829 76.1402 29.3018C75.3837 29.7557 74.5043 29.9827 73.5019 29.9827H72.7926ZM81.1049 29.9827C80.1214 29.9827 79.242 29.7557 78.4665 29.3018C77.71 28.829 77.1143 28.1954 76.6793 27.401C76.2443 26.5878 76.0268 25.6705 76.0268 24.6492H78.58C78.58 25.1788 78.6651 25.6989 78.8353 26.2095C79.0245 26.7202 79.3082 27.1457 79.6864 27.4861C80.0647 27.8266 80.5375 27.9968 81.1049 27.9968H97.9954V29.9827H81.1049ZM97.9954 29.9827V27.9968C98.2223 27.9968 98.3736 28.0819 98.4493 28.2521C98.5249 28.4223 98.5627 28.6682 98.5627 28.9897C98.5627 29.2923 98.5249 29.5382 98.4493 29.7273C98.3736 29.8975 98.2223 29.9827 97.9954 29.9827ZM72.7926 29.9827C72.5657 29.9827 72.4144 29.8975 72.3387 29.7273C72.2631 29.5382 72.2252 29.2923 72.2252 28.9897C72.2252 28.6682 72.2631 28.4223 72.3387 28.2521C72.4144 28.0819 72.5657 27.9968 72.7926 27.9968V29.9827ZM79.3744 35.5147C78.9394 35.5147 78.5611 35.354 78.2396 35.0324C77.9181 34.7109 77.7573 34.3327 77.7573 33.8977C77.7573 33.4437 77.9181 33.056 78.2396 32.7345C78.5611 32.413 78.9394 32.2522 79.3744 32.2522C79.8283 32.2522 80.2065 32.413 80.5091 32.7345C80.8307 33.056 80.9914 33.4437 80.9914 33.8977C80.9914 34.3327 80.8307 34.7109 80.5091 35.0324C80.2065 35.354 79.8283 35.5147 79.3744 35.5147ZM75.2324 35.5147C74.7974 35.5147 74.4191 35.354 74.0976 35.0324C73.7761 34.7109 73.6153 34.3327 73.6153 33.8977C73.6153 33.4437 73.7761 33.056 74.0976 32.7345C74.4191 32.413 74.7974 32.2522 75.2324 32.2522C75.6863 32.2522 76.0646 32.413 76.3672 32.7345C76.6887 33.056 76.8495 33.4437 76.8495 33.8977C76.8495 34.3327 76.6887 34.7109 76.3672 35.0324C76.0646 35.354 75.6863 35.5147 75.2324 35.5147Z" fill="white"/>
<path d="M81.278 29.9827V27.9968H105.8C106.575 27.9968 107.19 27.6942 107.644 27.089C108.098 26.4648 108.325 25.4057 108.325 23.9116C108.325 21.8311 107.842 20.3843 106.878 19.571C105.932 18.7578 104.561 18.3511 102.764 18.3511C102.386 18.3511 102.046 18.3606 101.743 18.3795C101.44 18.3984 101.166 18.4268 100.92 18.4646C100.674 18.4835 100.438 18.493 100.211 18.493C99.7572 18.493 99.3883 18.4268 99.1047 18.2944C98.821 18.162 98.6035 17.9729 98.4522 17.727C98.3198 17.4622 98.2157 17.1691 98.1401 16.8476C98.1023 16.6395 98.0644 16.4315 98.0266 16.2234C98.0077 15.9965 98.0077 15.8452 98.0266 15.7695C98.2157 15.9019 98.4711 16.0532 98.7926 16.2234C99.1141 16.3936 99.5491 16.4788 100.098 16.4788C100.287 16.4788 100.504 16.4693 100.75 16.4504C101.015 16.4315 101.308 16.4126 101.63 16.3936C101.951 16.3747 102.301 16.3653 102.679 16.3653C104.136 16.3653 105.384 16.545 106.424 16.9043C107.464 17.2447 108.306 17.7459 108.949 18.4079C109.611 19.0698 110.093 19.8642 110.396 20.7909C110.717 21.7177 110.878 22.7484 110.878 23.8832C110.878 25.3962 110.642 26.6067 110.169 27.5145C109.696 28.4034 109.072 29.037 108.296 29.4153C107.54 29.7935 106.708 29.9827 105.8 29.9827H81.278ZM81.278 29.9827C81.051 29.9827 80.8997 29.8975 80.8241 29.7273C80.7484 29.5382 80.7106 29.2923 80.7106 28.9897C80.7106 28.6682 80.7484 28.4223 80.8241 28.2521C80.8997 28.0819 81.051 27.9968 81.278 27.9968V29.9827ZM103.162 35.5147C102.689 35.5147 102.292 35.354 101.97 35.0324C101.648 34.7109 101.488 34.3327 101.488 33.8977C101.488 33.4437 101.648 33.056 101.97 32.7345C102.292 32.413 102.689 32.2522 103.162 32.2522C103.597 32.2522 103.975 32.413 104.296 32.7345C104.618 33.056 104.779 33.4437 104.779 33.8977C104.779 34.3327 104.618 34.7109 104.296 35.0324C103.975 35.354 103.597 35.5147 103.162 35.5147Z" fill="white"/>
<path d="M119.507 29.9827C118.524 29.9827 117.645 29.7557 116.869 29.3018C116.113 28.829 115.517 28.1954 115.082 27.401C114.647 26.5878 114.429 25.6705 114.429 24.6492V15.4574C114.429 14.8711 114.344 14.3416 114.174 13.8688C114.023 13.3959 113.824 12.9988 113.578 12.6772C113.332 12.3557 113.096 12.1193 112.869 11.968C112.945 11.8734 113.068 11.7694 113.238 11.6559C113.427 11.5425 113.654 11.4479 113.919 11.3722C114.183 11.2966 114.458 11.2588 114.741 11.2588C115.101 11.2588 115.451 11.3533 115.791 11.5425C116.131 11.7127 116.415 12.0247 116.642 12.4786C116.869 12.9326 116.983 13.5756 116.983 14.4078V24.6492C116.983 25.1788 117.068 25.6989 117.238 26.2095C117.427 26.7202 117.711 27.1457 118.089 27.4861C118.467 27.8266 118.94 27.9968 119.507 27.9968H128.228V29.9827H119.507ZM128.228 29.9827V27.9968C128.455 27.9968 128.606 28.0819 128.681 28.2521C128.757 28.4223 128.795 28.6682 128.795 28.9897C128.795 29.2923 128.757 29.5382 128.681 29.7273C128.606 29.8975 128.455 29.9827 128.228 29.9827Z" fill="white"/>
<path d="M119.548 29.9827V27.9968H129.289C129.895 27.9968 130.396 27.8549 130.793 27.5712C131.19 27.2876 131.493 26.9282 131.701 26.4932C131.928 26.0582 132.089 25.6043 132.183 25.1315C132.297 24.6586 132.363 24.2331 132.382 23.8548C132.401 23.4577 132.41 23.174 132.41 23.0037C132.41 22.4931 132.363 21.8879 132.268 21.1881C132.174 20.4883 131.956 19.7602 131.616 19.0036C131.294 18.2471 130.755 17.5568 129.999 16.9327C130.093 16.8381 130.207 16.753 130.339 16.6773C130.49 16.5828 130.661 16.5071 130.85 16.4504C131.039 16.3936 131.256 16.3653 131.502 16.3653C132.164 16.3653 132.713 16.5828 133.148 17.0178C133.602 17.4528 133.961 18.0202 134.226 18.7199C134.491 19.4008 134.68 20.129 134.793 20.9044C134.907 21.6798 134.963 22.3985 134.963 23.0605C134.963 25.2355 134.462 26.9377 133.46 28.167C132.457 29.3774 131.067 29.9827 129.289 29.9827H119.548ZM119.548 29.9827C119.321 29.9827 119.17 29.8975 119.094 29.7273C119.018 29.5382 118.981 29.2923 118.981 28.9897C118.981 28.6682 119.018 28.4223 119.094 28.2521C119.17 28.0819 119.321 27.9968 119.548 27.9968V29.9827ZM133.658 14.5213C133.223 14.5213 132.845 14.3605 132.524 14.039C132.202 13.7174 132.041 13.3392 132.041 12.9042C132.041 12.4503 132.202 12.0626 132.524 11.741C132.845 11.4195 133.223 11.2588 133.658 11.2588C134.112 11.2588 134.491 11.4195 134.793 11.741C135.115 12.0626 135.275 12.4503 135.275 12.9042C135.275 13.3392 135.115 13.7174 134.793 14.039C134.491 14.3605 134.112 14.5213 133.658 14.5213ZM129.516 14.5213C129.081 14.5213 128.703 14.3605 128.382 14.039C128.06 13.7174 127.899 13.3392 127.899 12.9042C127.899 12.4503 128.06 12.0626 128.382 11.741C128.703 11.4195 129.081 11.2588 129.516 11.2588C129.97 11.2588 130.349 11.4195 130.651 11.741C130.973 12.0626 131.133 12.4503 131.133 12.9042C131.133 13.3392 130.973 13.7174 130.651 14.039C130.349 14.3605 129.97 14.5213 129.516 14.5213Z" fill="white"/>
<path d="M111.857 10.5461C111.684 10.301 111.625 10.0877 111.68 9.9061C111.734 9.71545 111.848 9.5702 112.02 9.47034C112.202 9.37048 112.397 9.33417 112.606 9.3614C112.814 9.37956 112.991 9.48396 113.137 9.6746L112.987 9.55204C112.86 9.47942 112.71 9.33871 112.537 9.12991C112.374 8.91203 112.229 8.64876 112.102 8.3401C111.984 8.02236 111.925 7.68192 111.925 7.31879C111.925 6.99198 111.984 6.68786 112.102 6.40643C112.229 6.125 112.406 5.87989 112.633 5.67109C112.86 5.46229 113.141 5.30342 113.477 5.19448C113.813 5.07646 114.19 5.01746 114.607 5.01746C115.07 5.01746 115.406 5.07646 115.615 5.19448C115.833 5.3125 115.969 5.45321 116.023 5.61662C116.087 5.77095 116.119 5.90259 116.119 6.01152C116.119 6.28387 116.051 6.48359 115.915 6.61069C115.778 6.72871 115.624 6.79226 115.452 6.80133C115.288 6.81041 115.166 6.77864 115.084 6.70601C115.093 6.4609 115.029 6.26118 114.893 6.10685C114.766 5.94344 114.612 5.82542 114.43 5.75279C114.249 5.67109 114.081 5.63024 113.926 5.63024H114.172C114.035 5.63024 113.886 5.68471 113.722 5.79365C113.568 5.90259 113.432 6.07053 113.314 6.29749C113.196 6.52445 113.137 6.82857 113.137 7.20985C113.137 7.71824 113.246 8.1086 113.463 8.38095C113.69 8.64422 113.972 8.82124 114.308 8.91203C114.644 9.00281 114.97 9.0482 115.288 9.0482C115.497 9.0482 115.683 9.03912 115.846 9.02097C116.01 8.99373 116.128 8.97104 116.201 8.95288C116.391 8.95288 116.523 8.99827 116.595 9.08905C116.677 9.17984 116.718 9.28424 116.718 9.40225C116.727 9.51119 116.704 9.61105 116.65 9.70184C116.605 9.79262 116.545 9.83801 116.473 9.83801C116.164 9.86524 115.837 9.89702 115.492 9.93333C115.157 9.96964 114.821 10.0105 114.485 10.0559C114.158 10.0922 113.845 10.1331 113.545 10.1784C113.246 10.2238 112.973 10.2692 112.728 10.3146C112.483 10.3509 112.283 10.3872 112.129 10.4236C111.984 10.4689 111.893 10.5098 111.857 10.5461Z" fill="white"/>
<path d="M78.2396 35.0324C78.5611 35.354 78.9394 35.5147 79.3744 35.5147C79.8283 35.5147 80.2065 35.354 80.5091 35.0324C80.8307 34.7109 80.9914 34.3327 80.9914 33.8977C80.9914 33.4437 80.8307 33.056 80.5091 32.7345C80.2065 32.413 79.8283 32.2522 79.3744 32.2522C78.9394 32.2522 78.5611 32.413 78.2396 32.7345C77.9181 33.056 77.7573 33.4437 77.7573 33.8977C77.7573 34.3327 77.9181 34.7109 78.2396 35.0324Z" fill="white"/>
<path d="M90.4434 61.5859V46.2975C90.4434 45.4482 90.3208 44.7687 90.0754 44.2591C89.8489 43.7306 89.311 43.4663 88.4616 43.4663H87.8954V42.9001H95.2565C95.7472 42.9001 96.2946 42.9379 96.8985 43.0134C97.5214 43.07 98.1443 43.2115 98.7671 43.438C99.4089 43.6456 99.994 43.9571 100.522 44.3723C101.07 44.7876 101.504 45.3349 101.825 46.0144C102.165 46.6939 102.334 47.5432 102.334 48.5625C102.334 49.5251 102.174 50.3367 101.853 50.9973C101.532 51.639 101.108 52.1581 100.579 52.5544C100.069 52.9508 99.5315 53.2528 98.9653 53.4604C98.3991 53.6492 97.8611 53.7813 97.3515 53.8568C96.8419 53.9134 96.4267 53.9417 96.1058 53.9417H92.9915V61.5859H90.4434ZM92.9915 52.9508H95.1149C95.5113 52.9508 95.9548 52.8753 96.4456 52.7243C96.9363 52.5733 97.4176 52.3185 97.8895 51.9599C98.3613 51.6013 98.7482 51.1388 99.0502 50.5726C99.3522 49.9875 99.5032 49.2703 99.5032 48.4209C99.5032 47.5716 99.3522 46.8638 99.0502 46.2975C98.7482 45.7124 98.3613 45.2405 97.8895 44.8819C97.4176 44.5233 96.9363 44.2685 96.4456 44.1175C95.9548 43.9665 95.5113 43.891 95.1149 43.891C94.7563 43.891 94.3788 43.9193 93.9824 43.976C93.6049 44.0326 93.2746 44.0986 92.9915 44.1741V52.9508Z" fill="white"/>
<path d="M105.215 61.5859V46.2975C105.215 45.4482 105.093 44.7687 104.847 44.2591C104.621 43.7306 104.083 43.4663 103.234 43.4663H102.667V42.9001H105.215C105.876 42.9001 106.386 42.985 106.744 43.1549C107.122 43.3248 107.386 43.6551 107.537 44.1458C107.688 44.6366 107.763 45.3538 107.763 46.2975V61.5859H105.215Z" fill="white"/>
<path d="M116.8 61.869C116.007 61.869 115.243 61.7275 114.507 61.4444C113.771 61.1612 113.167 60.6516 112.695 59.9155C112.223 59.1794 111.987 58.1319 111.987 56.7729V51.6768C111.987 50.8274 111.865 50.1479 111.619 49.6383C111.393 49.1098 110.855 48.8456 110.005 48.8456H109.722V48.2794H111.987C112.648 48.2794 113.157 48.3643 113.516 48.5342C113.894 48.704 114.158 49.0343 114.309 49.5251C114.46 50.0158 114.535 50.733 114.535 51.6768V56.7729C114.535 57.7166 114.686 58.4716 114.988 59.0379C115.29 59.5852 115.677 59.9816 116.149 60.227C116.64 60.4723 117.14 60.595 117.65 60.595C118.027 60.595 118.386 60.5289 118.725 60.3968C119.065 60.2458 119.386 60.0571 119.688 59.8306C119.99 59.6041 120.254 59.3587 120.481 59.0945V48.2794H123.029V61.5859H121.613L120.622 60.4534H120.481C120.122 60.8121 119.631 61.1424 119.009 61.4444C118.386 61.7275 117.65 61.869 116.8 61.869Z" fill="white"/>
<path d="M131.555 61.869C130.423 61.869 129.498 61.7747 128.781 61.5859C128.063 61.3783 127.525 61.0952 127.167 60.7366C126.808 60.3779 126.601 59.9721 126.544 59.5192C126.487 59.0662 126.459 58.4811 126.459 57.7638H127.025C127.176 58.6887 127.573 59.4153 128.214 59.9438C128.856 60.4723 129.781 60.7366 130.989 60.7366C132.065 60.7366 132.848 60.5478 133.339 60.1703C133.848 59.7928 134.103 59.321 134.103 58.7547C134.103 58.1885 133.886 57.7166 133.452 57.3391C133.037 56.9428 132.404 56.5653 131.555 56.2067L129.856 55.4989C128.781 55.0648 127.941 54.5551 127.337 53.97C126.752 53.366 126.459 52.6016 126.459 51.6768C126.459 50.4877 126.903 49.5817 127.79 48.9588C128.677 48.3171 129.79 47.9962 131.13 47.9962C132.206 47.9962 133.093 48.1 133.792 48.3077C134.49 48.4964 135.019 48.7701 135.377 49.1287C135.736 49.4873 135.943 49.8931 136 50.3461C136.057 50.7991 136.085 51.3842 136.085 52.1015H135.519C135.368 51.1766 134.971 50.4499 134.33 49.9214C133.707 49.3929 132.829 49.1287 131.697 49.1287C130.772 49.1287 130.064 49.3175 129.573 49.6949C129.101 50.0724 128.865 50.5443 128.865 51.1105C128.865 51.6013 129.064 52.0543 129.46 52.4695C129.856 52.8659 130.413 53.2151 131.13 53.517L132.829 54.2248C134.037 54.7156 134.953 55.2535 135.575 55.8386C136.198 56.4237 136.51 57.207 136.51 58.1885C136.51 59.3776 136.038 60.293 135.094 60.9347C134.15 61.5576 132.971 61.869 131.555 61.869Z" fill="white"/>
<path d="M13.8032 37.3123C12.0187 37.3123 10.5 37.0086 9.2471 36.4011C8.01314 35.7936 7.07344 34.9583 6.42798 33.8952C5.80152 32.8511 5.48828 31.6836 5.48828 30.3927C5.48828 29.9181 5.53574 29.3296 5.63066 28.6272C5.74456 27.9058 5.92491 27.1939 6.1717 26.4915C6.43748 25.7701 6.78868 25.1721 7.22531 24.6975C7.68092 24.2039 8.25993 23.9571 8.96234 23.9571C9.20913 23.9571 9.42744 23.9856 9.61728 24.0426C9.80712 24.0995 9.96848 24.1755 10.1014 24.2704C10.2532 24.3463 10.3766 24.4317 10.4716 24.5267C9.78814 25.0962 9.27557 25.7321 8.93386 26.4345C8.59215 27.137 8.35485 27.8204 8.22196 28.4848C8.10806 29.1303 8.05111 29.6998 8.05111 30.1934C8.05111 31.9968 8.57317 33.2972 9.61728 34.0946C10.6804 34.9109 12.0662 35.319 13.7748 35.319C15.4453 35.319 16.6508 34.9298 17.3912 34.1515C18.1505 33.3922 18.5302 32.1202 18.5302 30.3357V19.2302C18.5302 18.7556 18.6536 18.4328 18.9004 18.262C19.1472 18.0721 19.4509 17.9772 19.8116 17.9772C20.1723 17.9772 20.4761 18.0721 20.7229 18.262C20.9697 18.4328 21.0931 18.7556 21.0931 19.2302V30.3357C21.0931 32.4619 20.514 34.1515 19.356 35.4044C18.198 36.6764 16.3471 37.3123 13.8032 37.3123ZM23.6274 30.0795C22.6402 30.0795 21.7575 29.8517 20.9792 29.396C20.2198 28.9214 19.6218 28.2855 19.1852 27.4882C18.7485 26.6718 18.5302 25.7511 18.5302 24.726H21.0931C21.0931 25.2575 21.1785 25.7796 21.3493 26.2922C21.5392 26.8047 21.8239 27.2319 22.2036 27.5736C22.5833 27.9153 23.0579 28.0861 23.6274 28.0861H24.0261V30.0795H23.6274ZM32.1132 30.0795C31.1261 30.0795 30.2433 29.8517 29.465 29.396C28.7056 28.9214 28.1076 28.2855 27.671 27.4882C27.2343 26.6718 27.016 25.7511 27.016 24.726H29.5789C29.5789 25.2575 29.6643 25.7796 29.8351 26.2922C30.025 26.8047 30.3097 27.2319 30.6894 27.5736C31.0691 27.9153 31.5437 28.0861 32.1132 28.0861H32.7966V30.0795H32.1132ZM24.0261 30.0795V28.0861H24.4817C25.0702 28.0861 25.5448 27.9153 25.9055 27.5736C26.2852 27.2319 26.5604 26.8047 26.7313 26.2922C26.9211 25.7796 27.016 25.2575 27.016 24.726V18.5467C27.016 18.0721 27.1394 17.7494 27.3862 17.5786C27.633 17.3887 27.9368 17.2938 28.2975 17.2938C28.6581 17.2938 28.9619 17.3887 29.2087 17.5786C29.4555 17.7494 29.5789 18.0721 29.5789 18.5467V24.726C29.5789 25.7511 29.3605 26.6718 28.9239 27.4882C28.4873 28.2855 27.8893 28.9214 27.1299 29.396C26.3706 29.8517 25.4878 30.0795 24.4817 30.0795H24.0261ZM40.599 30.0795C39.6119 30.0795 38.7291 29.8517 37.9508 29.396C37.1914 28.9214 36.5934 28.2855 36.1568 27.4882C35.7202 26.6718 35.5018 25.7511 35.5018 24.726H38.0647C38.0647 25.2575 38.1501 25.7796 38.321 26.2922C38.5108 26.8047 38.7956 27.2319 39.1752 27.5736C39.5549 27.9153 40.0295 28.0861 40.599 28.0861H41.6242V30.0795H40.599ZM32.7966 30.0795V28.0861H32.9675C33.556 28.0861 34.0306 27.9153 34.3913 27.5736C34.771 27.2319 35.0462 26.8047 35.2171 26.2922C35.4069 25.7796 35.5018 25.2575 35.5018 24.726V17.664C35.5018 17.1894 35.6252 16.8667 35.872 16.6958C36.1188 16.506 36.4226 16.411 36.7833 16.411C37.144 16.411 37.4477 16.506 37.6945 16.6958C37.9413 16.8667 38.0647 17.1894 38.0647 17.664V24.726C38.0647 25.7511 37.8464 26.6718 37.4097 27.4882C36.9731 28.2855 36.3751 28.9214 35.6157 29.396C34.8564 29.8517 33.9736 30.0795 32.9675 30.0795H32.7966ZM41.6242 30.0795V28.0861C41.852 28.0861 42.0038 28.1716 42.0798 28.3424C42.1557 28.5133 42.1937 28.7601 42.1937 29.0828C42.1937 29.3865 42.1557 29.6333 42.0798 29.8232C42.0038 29.994 41.852 30.0795 41.6242 30.0795Z" fill="white"/>
<path d="M49.9671 30.0795C48.98 30.0795 48.0972 29.8517 47.3189 29.396C46.5595 28.9214 45.9615 28.2855 45.5249 27.4882C45.0883 26.6718 44.87 25.7511 44.87 24.726H47.4328C47.4328 25.2575 47.5182 25.7796 47.6891 26.2922C47.8789 26.8047 48.1637 27.2319 48.5433 27.5736C48.923 27.9153 49.3976 28.0861 49.9671 28.0861H50.9923V30.0795H49.9671ZM41.6242 30.0795V28.0861H42.3356C42.9241 28.0861 43.3987 27.9153 43.7594 27.5736C44.1391 27.2319 44.4143 26.8047 44.5852 26.2922C44.775 25.7796 44.87 25.2575 44.87 24.726V15.4998C44.87 14.9113 44.7845 14.3798 44.6137 13.9052C44.4618 13.4306 44.2625 13.0319 44.0157 12.7092C43.7689 12.3865 43.5316 12.1492 43.3038 11.9973C43.3797 11.9024 43.5031 11.798 43.674 11.684C43.8638 11.5701 44.0821 11.4752 44.3289 11.3993C44.5947 11.3234 44.87 11.2854 45.1547 11.2854C45.5154 11.2854 45.8666 11.3803 46.2083 11.5701C46.569 11.741 46.8633 12.0542 47.0911 12.5098C47.3189 12.9655 47.4328 13.6109 47.4328 14.4462V24.726C47.4328 25.7511 47.2145 26.6718 46.7778 27.4882C46.3412 28.2855 45.7432 28.9214 44.9839 29.396C44.2245 29.8517 43.3418 30.0795 42.3356 30.0795H41.6242ZM41.6242 30.0795C41.3963 30.0795 41.244 29.994 41.1681 29.8232C41.0922 29.6333 41.0542 29.3865 41.0542 29.0828C41.0542 28.7601 41.0922 28.5133 41.1681 28.3424C41.244 28.1716 41.3963 28.0861 41.6242 28.0861V30.0795ZM50.9923 30.0795V28.0861C51.2201 28.0861 51.3719 28.1716 51.4479 28.3424C51.5238 28.5133 51.5618 28.7601 51.5618 29.0828C51.5618 29.3865 51.5238 29.6333 51.4479 29.8232C51.3719 29.994 51.2201 30.0795 50.9923 30.0795Z" fill="white"/>
<path d="M50.9952 30.0795V28.0861H52.903C53.5105 28.0861 54.0136 27.9438 54.4123 27.659C54.8109 27.3742 55.1147 27.0136 55.3235 26.5769C55.5513 26.1403 55.7127 25.6847 55.8076 25.2101C55.9215 24.7355 55.9879 24.3083 56.0069 23.9287C56.0259 23.53 56.0354 23.2452 56.0354 23.0744C56.0354 22.5618 55.9879 21.9543 55.893 21.2519C55.7981 20.5495 55.5798 19.8187 55.2381 19.0593C54.9153 18.2999 54.3743 17.607 53.6149 16.9806C53.7099 16.8856 53.8238 16.8002 53.9566 16.7243C54.1085 16.6294 54.2794 16.5534 54.4692 16.4965C54.6591 16.4395 54.8774 16.411 55.1242 16.411C55.7886 16.411 56.3391 16.6294 56.7758 17.066C57.2314 17.5026 57.5921 18.0721 57.8578 18.7745C58.1236 19.458 58.3135 20.1888 58.4274 20.9672C58.5413 21.7455 58.5982 22.4669 58.5982 23.1313C58.5982 25.3145 58.0951 27.023 57.089 28.257C56.0828 29.472 54.6875 30.0795 52.903 30.0795H50.9952ZM50.9952 30.0795C50.7674 30.0795 50.6155 29.994 50.5395 29.8232C50.4636 29.6333 50.4256 29.3865 50.4256 29.0828C50.4256 28.7601 50.4636 28.5133 50.5395 28.3424C50.6155 28.1716 50.7674 28.0861 50.9952 28.0861V30.0795ZM55.2096 35.6322C54.735 35.6322 54.3363 35.4709 54.0136 35.1482C53.6909 34.8254 53.5295 34.4458 53.5295 34.0091C53.5295 33.5535 53.6909 33.1643 54.0136 32.8416C54.3363 32.5189 54.735 32.3575 55.2096 32.3575C55.6462 32.3575 56.0259 32.5189 56.3486 32.8416C56.6713 33.1643 56.8327 33.5535 56.8327 34.0091C56.8327 34.4458 56.6713 34.8254 56.3486 35.1482C56.0259 35.4709 55.6462 35.6322 55.2096 35.6322Z" fill="white"/>
</svg>
