<svg width="21" height="20" viewBox="0 0 21 20" fill="none" xmlns="http://www.w3.org/2000/svg">
<mask id="mask0_4577_6816" style="mask-type:alpha" maskUnits="userSpaceOnUse" x="0" y="0" width="21" height="20">
<rect x="0.5" width="20" height="20" fill="#D9D9D9"/>
</mask>
<g mask="url(#mask0_4577_6816)">
<path d="M14.3558 10.6245H4.875C4.69764 10.6245 4.54917 10.5647 4.42958 10.4449C4.30986 10.3254 4.25 10.1769 4.25 9.99952C4.25 9.82216 4.30986 9.67368 4.42958 9.5541C4.54917 9.43438 4.69764 9.37452 4.875 9.37452H14.3558L10.0481 5.06681C9.92424 4.94292 9.86306 4.79792 9.86458 4.63181C9.86625 4.4657 9.93167 4.31799 10.0608 4.18868C10.1901 4.06799 10.3365 4.00549 10.5 4.00118C10.6635 3.99688 10.8099 4.05938 10.9392 4.18868L16.2227 9.47223C16.3008 9.55028 16.3558 9.63257 16.3877 9.7191C16.4198 9.80563 16.4358 9.8991 16.4358 9.99952C16.4358 10.0999 16.4198 10.1934 16.3877 10.2799C16.3558 10.3665 16.3008 10.4488 16.2227 10.5268L10.9392 15.8104C10.8237 15.9258 10.6808 15.9848 10.5104 15.9874C10.34 15.9901 10.1901 15.931 10.0608 15.8104C9.93167 15.681 9.86708 15.5326 9.86708 15.3649C9.86708 15.1972 9.93167 15.0486 10.0608 14.9193L14.3558 10.6245Z" fill="#005F8E"/>
</g>
</svg>
