<svg width="18" height="18" viewBox="0 0 18 18" fill="none" xmlns="http://www.w3.org/2000/svg">
<mask id="mask0_4577_6944" style="mask-type:alpha" maskUnits="userSpaceOnUse" x="0" y="0" width="18" height="18">
<rect width="18" height="18" fill="#D9D9D9"/>
</mask>
<g mask="url(#mask0_4577_6944)">
<path d="M9.00079 11.0071C8.91042 11.0071 8.8263 10.9927 8.74842 10.9638C8.67055 10.935 8.59648 10.8855 8.52623 10.8153L5.15554 7.44465C5.05179 7.34077 4.99867 7.21021 4.99617 7.05296C4.99379 6.89584 5.04692 6.7629 5.15554 6.65415C5.2643 6.54552 5.39604 6.49121 5.55079 6.49121C5.70554 6.49121 5.83729 6.54552 5.94604 6.65415L9.00079 9.70909L12.0555 6.65415C12.1594 6.5504 12.29 6.49727 12.4472 6.49477C12.6044 6.4924 12.7373 6.54552 12.846 6.65415C12.9547 6.7629 13.009 6.89465 13.009 7.0494C13.009 7.20415 12.9547 7.3359 12.846 7.44465L9.47536 10.8153C9.40511 10.8855 9.33104 10.935 9.25317 10.9638C9.17529 10.9927 9.09117 11.0071 9.00079 11.0071Z" fill="#005F8E"/>
</g>
</svg>
