<svg width="48" height="48" viewBox="0 0 48 48" fill="none" xmlns="http://www.w3.org/2000/svg">
<path d="M23.9961 4C30.6161 4 35.9961 9.32 35.9961 15.9C35.9961 24.82 23.9961 38 23.9961 38C23.9961 38 11.9961 24.82 11.9961 15.9C11.9961 9.32 17.3761 4 23.9961 4ZM23.9961 12C22.9352 12 21.9178 12.4214 21.1677 13.1716C20.4175 13.9217 19.9961 14.9391 19.9961 16C19.9961 17.0609 20.4175 18.0783 21.1677 18.8284C21.9178 19.5786 22.9352 20 23.9961 20C25.057 20 26.0744 19.5786 26.8245 18.8284C27.5747 18.0783 27.9961 17.0609 27.9961 16C27.9961 14.9391 27.5747 13.9217 26.8245 13.1716C26.0744 12.4214 25.057 12 23.9961 12ZM39.9961 38C39.9961 42.42 32.8361 46 23.9961 46C15.1561 46 7.99609 42.42 7.99609 38C7.99609 35.42 10.4361 33.12 14.2161 31.66L15.4961 33.48C13.3361 34.38 11.9961 35.62 11.9961 37C11.9961 39.76 17.3761 42 23.9961 42C30.6161 42 35.9961 39.76 35.9961 37C35.9961 35.62 34.6561 34.38 32.4961 33.48L33.7761 31.66C37.5561 33.12 39.9961 35.42 39.9961 38Z" fill="#005F8E"/>
</svg>
