<svg width="23" height="23" viewBox="0 0 23 23" fill="none" xmlns="http://www.w3.org/2000/svg">
<mask id="mask0_4577_4190" style="mask-type:alpha" maskUnits="userSpaceOnUse" x="0" y="0" width="23" height="23">
<rect x="0.574219" y="0.650391" width="21.6" height="21.6" fill="#D9D9D9"/>
</mask>
<g mask="url(#mask0_4577_4190)">
<path d="M18.0689 19.1003C16.3728 19.1003 14.6689 18.7059 12.9571 17.9172C11.2455 17.1285 9.67278 16.016 8.23908 14.5796C6.80553 13.143 5.69441 11.5703 4.90571 9.86134C4.11701 8.15254 3.72266 6.45012 3.72266 4.75407C3.72266 4.48152 3.81266 4.25442 3.99266 4.07277C4.17266 3.89112 4.39766 3.80029 4.66766 3.80029H7.60301C7.83026 3.80029 8.03073 3.87447 8.20443 4.02282C8.37813 4.17102 8.48861 4.35417 8.53586 4.57227L9.05178 7.22029C9.08748 7.46599 9.07998 7.67712 9.02928 7.85367C8.97843 8.03022 8.88723 8.17849 8.75568 8.29849L6.67713 10.3219C7.01163 10.9345 7.39383 11.514 7.82373 12.0605C8.25348 12.6068 8.71878 13.1286 9.21963 13.6258C9.71343 14.1198 10.2384 14.5785 10.7946 15.0019C11.3508 15.4254 11.9514 15.8194 12.5964 16.1841L14.616 14.1469C14.7569 14.0004 14.9274 13.8976 15.1277 13.8387C15.3278 13.7799 15.5358 13.7655 15.7516 13.7955L18.2507 14.3044C18.4779 14.3644 18.6634 14.4804 18.8071 14.6523C18.9508 14.8242 19.0227 15.0192 19.0227 15.2373V18.1553C19.0227 18.4253 18.9318 18.6503 18.7502 18.8303C18.5685 19.0103 18.3414 19.1003 18.0689 19.1003ZM6.03836 9.04459L7.64463 7.50762C7.67343 7.48452 7.69218 7.45279 7.70088 7.41244C7.70958 7.37209 7.70816 7.33459 7.69661 7.29994L7.30533 5.28867C7.29378 5.24262 7.27361 5.20804 7.24481 5.18494C7.21601 5.16184 7.17851 5.15029 7.13231 5.15029H5.20766C5.17301 5.15029 5.14413 5.16184 5.12103 5.18494C5.09808 5.20804 5.08661 5.23692 5.08661 5.27157C5.13266 5.88657 5.23331 6.51132 5.38856 7.14582C5.54366 7.78047 5.76026 8.41339 6.03836 9.04459ZM13.8684 16.8226C14.4649 17.1007 15.0871 17.3133 15.735 17.4605C16.383 17.6075 16.9884 17.6949 17.5514 17.7226C17.586 17.7226 17.6149 17.7111 17.638 17.688C17.6611 17.6649 17.6727 17.636 17.6727 17.6013V15.708C17.6727 15.6618 17.6611 15.6243 17.638 15.5955C17.6149 15.5667 17.5803 15.5465 17.5343 15.5349L15.6443 15.1506C15.6096 15.1391 15.5793 15.1377 15.5534 15.1464C15.5274 15.1551 15.5 15.1738 15.471 15.2026L13.8684 16.8226Z" fill="#005F8E"/>
</g>
</svg>
