<svg width="24" height="24" viewBox="0 0 24 24" fill="none" xmlns="http://www.w3.org/2000/svg">
<mask id="mask0_4577_1500" style="mask-type:alpha" maskUnits="userSpaceOnUse" x="0" y="0" width="24" height="24">
<rect width="24" height="24" fill="#D9D9D9"/>
</mask>
<g mask="url(#mask0_4577_1500)">
<path d="M8.94141 14.75C7.34424 14.75 5.98666 14.191 4.86866 13.073C3.75049 11.9548 3.19141 10.5972 3.19141 9C3.19141 8.72217 3.21166 8.44442 3.25216 8.16675C3.29249 7.88892 3.36007 7.62242 3.45491 7.36725C3.51907 7.21342 3.60566 7.09967 3.71466 7.026C3.82349 6.95233 3.94649 6.89883 4.08366 6.8655C4.22099 6.83217 4.35916 6.83467 4.49816 6.873C4.63732 6.9115 4.76391 6.98783 4.87791 7.102L7.54141 9.74625L9.68766 7.6L7.05291 4.95575C6.93891 4.84158 6.86266 4.71275 6.82416 4.56925C6.78566 4.42575 6.78307 4.286 6.81641 4.15C6.84974 4.01417 6.90491 3.89175 6.98191 3.78275C7.05874 3.67375 7.17091 3.58717 7.31841 3.523C7.57357 3.42183 7.83899 3.351 8.11466 3.3105C8.39016 3.27017 8.66574 3.25 8.94141 3.25C10.5387 3.25 11.8964 3.809 13.0144 4.927C14.1324 6.04517 14.6914 7.40283 14.6914 9C14.6914 9.42183 14.6517 9.81475 14.5722 10.1788C14.4927 10.5429 14.3734 10.8949 14.2144 11.2348L19.6492 16.6385C20.0683 17.056 20.2779 17.5671 20.2779 18.1718C20.2779 18.7764 20.069 19.2884 19.6512 19.7078C19.2333 20.1269 18.7218 20.3365 18.1167 20.3365C17.5115 20.3365 16.9992 20.1218 16.5799 19.6923L11.1762 14.273C10.8235 14.4257 10.4651 14.5433 10.1009 14.626C9.73657 14.7087 9.35007 14.75 8.94141 14.75ZM8.94141 13.25C9.37907 13.25 9.81674 13.1849 10.2544 13.0548C10.6919 12.9248 11.0921 12.7213 11.4549 12.4443L17.6647 18.654C17.7863 18.7757 17.9388 18.834 18.1222 18.829C18.3055 18.8238 18.4581 18.7603 18.5799 18.6385C18.7017 18.5167 18.7627 18.3641 18.7627 18.1807C18.7627 17.9974 18.7017 17.8448 18.5799 17.723L12.3704 11.5288C12.6511 11.1826 12.8581 10.7887 12.9914 10.347C13.1247 9.90533 13.1914 9.45633 13.1914 9C13.1914 7.891 12.7952 6.90958 12.0029 6.05575C11.2106 5.20192 10.208 4.78333 8.99516 4.8L11.1627 6.96725C11.3433 7.14808 11.4337 7.359 11.4337 7.6C11.4337 7.841 11.3433 8.05192 11.1627 8.23275L8.17416 11.2213C7.99332 11.4019 7.78241 11.4923 7.54141 11.4923C7.30041 11.4923 7.08949 11.4019 6.90866 11.2213L4.74141 9.05375C4.74391 10.3371 5.17532 11.3573 6.03566 12.1145C6.89599 12.8715 7.86457 13.25 8.94141 13.25Z" fill="#005F8E"/>
</g>
</svg>
