<svg width="224" height="96" viewBox="0 0 224 96" fill="none" xmlns="http://www.w3.org/2000/svg">
<g clip-path="url(#clip0_4577_1211)">
<path d="M56.5742 63.167H61.6223V60.3454C62.9888 61.9026 64.9318 63.9246 69.357 63.9246C77.7563 63.9246 80.7733 56.0505 80.7733 51.3743C80.7733 45.1828 76.2225 38.9913 69.2315 38.9913C66.6656 38.9913 63.9789 39.9581 62.0731 41.8964V32.0002H56.5742V63.167ZM61.7478 51.1651C61.7478 47.7533 64.3554 44.1323 68.5761 44.1323C72.053 44.1323 75.2789 46.8701 75.2789 51.4161C75.2789 55.9622 72.2575 58.7884 68.6597 58.7884C65.4339 58.7884 61.7524 56.3433 61.7524 51.1651H61.7478Z" fill="#4F4F4F"/>
<path d="M105.189 53.9867C105.356 53.2291 105.519 52.2623 105.519 51.1653C105.519 45.2713 101.173 38.9915 93.6472 38.9915C86.1216 38.9915 81.5664 44.932 81.5664 51.5418C81.5664 58.1517 86.698 63.9248 93.689 63.9248C99.1091 63.9248 103.45 60.0063 104.775 55.7949H98.9835C97.9469 57.7334 96.1293 58.7838 93.689 58.7838C89.7565 58.7838 87.6092 55.4976 87.3582 53.9821H105.189V53.9867ZM87.1907 49.4826C88.2226 45.1458 91.4532 44.1325 93.6844 44.1325C96.6222 44.1325 99.2718 45.7315 99.8899 49.4826H87.1907Z" fill="#4F4F4F"/>
<path d="M130.456 39.791H125.408V42.738H125.325C125.157 42.4033 122.387 38.9915 117.711 38.9915C111.338 38.9915 106.211 44.1696 106.211 51.3327C106.211 59.1231 111.464 63.9248 117.381 63.9248C120.277 63.9248 123.67 62.3676 125.408 60.262V63.1672H130.456V39.791ZM125.246 51.4163C125.246 55.7532 122.35 58.7886 118.543 58.7886C114.736 58.7886 111.715 55.5439 111.715 51.5883C111.715 48.0928 114.029 44.1325 118.543 44.1325C121.811 44.1325 125.246 46.5775 125.246 51.4163Z" fill="#4F4F4F"/>
<path d="M132.98 63.166H138.484V51.4987C138.484 49.0119 138.484 44.1266 142.867 44.1266C146.26 44.1266 147.46 46.9899 147.46 50.1926V63.166H152.963V51.4987C152.963 50.0253 152.922 47.7104 153.791 46.3206C154.576 44.9726 156.068 44.1312 157.598 44.1312C161.944 44.1312 161.944 48.8492 161.944 50.1972V63.1706H167.447V49.5232C167.447 46.0696 166.62 43.8384 165.709 42.6159C164.882 41.4352 162.646 38.9949 158.137 38.9949C156.524 38.9949 153.131 39.1622 150.732 42.6577C148.58 39.2877 145.354 38.9949 144.113 38.9949C140.143 38.9949 138.568 41.0169 138.112 41.7746H138.028V39.7944H132.98V63.1706V63.166Z" fill="#4F4F4F"/>
</g>
<defs>
<clipPath id="clip0_4577_1211">
<rect width="110.961" height="32" fill="white" transform="translate(56.5703 32)"/>
</clipPath>
</defs>
</svg>
