<svg width="224" height="96" viewBox="0 0 224 96" fill="none" xmlns="http://www.w3.org/2000/svg">
<g clip-path="url(#clip0_4577_1217)">
<path d="M162.64 43.8204C162.052 41.6 157.481 36.5061 154.15 32.3918C154.085 32.3265 153.889 32 153.497 32C153.171 32 152.909 32.3265 153.04 32.5878C153.171 32.849 156.371 39.5102 155.783 41.6653C155.195 43.8857 152.256 43.4286 151.799 43.4286C151.538 43.4286 151.734 43.6245 151.995 43.8857C153.628 45.3224 154.673 47.3469 154.673 49.9592V51.9184C154.673 51.9837 154.673 51.9837 154.738 51.9837C158.46 51.6571 164.142 49.3714 162.64 43.8204Z" fill="#4F4F4F"/>
<path d="M148.208 56.6857C148.208 58.5796 145.662 59.6245 144.029 59.6245C142.266 59.6245 139.784 58.5796 139.784 56.6857V50.0245C139.784 48.1306 142.266 47.2816 144.029 47.2816C145.662 47.2816 148.208 48.1959 148.208 50.0245V56.6857ZM144.029 43.1021C140.11 43.1674 135.539 45.3878 135.539 49.9592V56.9469C135.539 61.5837 140.11 63.8041 144.029 63.8041C147.882 63.7388 152.453 61.5837 152.453 56.9469V50.0245C152.453 45.4531 147.882 43.1674 144.029 43.1021Z" fill="#4F4F4F"/>
<path d="M118.688 56.6857C118.688 58.5796 116.141 59.6245 114.508 59.6245C112.745 59.6245 110.263 58.5796 110.263 56.6857V50.0245C110.263 48.1306 112.745 47.2816 114.508 47.2816C116.141 47.2816 118.688 48.1959 118.688 50.0245V56.6857ZM114.443 43.1021C110.525 43.1674 105.953 45.3878 105.953 49.9592V56.9469C105.953 61.5837 110.525 63.8041 114.443 63.8041C118.296 63.7388 122.867 61.5837 122.867 56.9469V50.0245C122.867 45.4531 118.296 43.1674 114.443 43.1021Z" fill="#4F4F4F"/>
<path d="M71.8631 43.8857C72.1244 43.6245 72.3203 43.4286 72.0591 43.4286C71.6019 43.4286 68.6631 43.8857 68.0754 41.6653C67.4876 39.4449 70.6876 32.849 70.8182 32.5878C70.8835 32.3265 70.6876 32 70.2958 32C69.9693 32 69.708 32.3918 69.6427 32.3918C66.3774 36.5061 61.7407 41.6 61.1529 43.8204C59.6509 49.3714 65.4631 51.6571 69.1203 52.049C69.1856 52.049 69.1856 51.9837 69.1856 51.9837V50.0245C69.2509 47.3469 70.2305 45.3225 71.8631 43.8857Z" fill="#4F4F4F"/>
<path d="M105.695 44.6692C102.56 43.8202 100.275 43.4937 96.8788 43.4937C93.5482 43.4937 91.1972 43.8202 88.0625 44.6692C87.9319 44.7345 87.8666 44.8651 87.9319 44.9304C88.9768 45.8447 89.4339 47.0202 89.6298 48.3263C91.3278 47.9345 92.8951 47.6732 94.7237 47.5426V63.6732C94.7237 63.7386 94.789 63.7386 94.8543 63.7386H98.9033C98.9686 63.7386 99.0339 63.7386 99.0339 63.6732V47.5426C100.797 47.6732 102.234 47.8692 103.932 48.3263C104.193 47.0202 104.716 45.7794 105.826 44.9304C105.826 44.7998 105.76 44.6692 105.695 44.6692Z" fill="#4F4F4F"/>
<path d="M135.668 43.2976C135.342 43.2323 134.493 43.1017 133.709 43.167C129.856 43.2976 125.48 45.5833 125.48 50.0241V63.8037C125.48 63.869 125.546 63.869 125.611 63.869H129.66C129.725 63.869 129.791 63.869 129.791 63.8037V50.0241C129.791 48.5221 131.619 47.6731 133.121 47.3466C133.578 45.9098 134.427 44.7996 135.734 43.7547C135.929 43.5588 135.864 43.2976 135.668 43.2976Z" fill="#4F4F4F"/>
<path d="M83.5521 51.2005C83.5521 51.2658 83.5521 51.2658 83.4868 51.3311C83.4868 51.3964 83.4215 51.3964 83.3562 51.3964H75.65V50.025C75.65 48.1311 77.9358 47.2168 79.699 47.2168C81.397 47.2168 83.5521 48.1311 83.5521 50.025V51.2005ZM79.699 42.9719C75.7154 43.0372 71.3398 45.3229 71.3398 49.9597V57.0127C71.3398 61.7148 75.7154 63.9352 79.699 64.0005C82.5725 64.0005 85.7725 62.825 87.3398 60.278C87.4052 60.2127 87.3398 60.0821 87.2745 60.0168C85.9031 59.2331 85.1194 58.776 83.748 58.0576C83.6827 58.0576 83.6827 58.0576 83.6174 58.1229C82.899 59.3638 81.0052 60.0168 79.699 60.0168C77.9358 60.0168 75.65 58.9066 75.65 57.0127V54.9229H86.6868C87.2745 54.9229 87.7317 54.4658 87.7317 53.878V50.025C87.7317 45.3229 83.6174 43.0372 79.699 42.9719Z" fill="#4F4F4F"/>
</g>
<defs>
<clipPath id="clip0_4577_1217">
<rect width="102.008" height="32" fill="white" transform="translate(60.8906 32)"/>
</clipPath>
</defs>
</svg>
